<svg xmlns="http://www.w3.org/2000/svg" xmlns:xlink="http://www.w3.org/1999/xlink" width="1366" zoomAndPan="magnify" viewBox="0 0 1024.5 190.499994" height="254" preserveAspectRatio="xMidYMid meet" version="1.0"><defs><g/><clipPath id="868428eaac"><path d="M 255.480469 1.613281 L 734.910156 1.613281 L 734.910156 187.855469 L 255.480469 187.855469 Z M 255.480469 1.613281 " clip-rule="nonzero"/></clipPath><clipPath id="cca0229bfe"><path d="M 268.199219 1.613281 L 722.066406 1.613281 C 729.089844 1.613281 734.78125 7.304688 734.78125 14.328125 L 734.78125 175.140625 C 734.78125 182.164062 729.089844 187.855469 722.066406 187.855469 L 268.199219 187.855469 C 261.175781 187.855469 255.480469 182.164062 255.480469 175.140625 L 255.480469 14.328125 C 255.480469 7.304688 261.175781 1.613281 268.199219 1.613281 Z M 268.199219 1.613281 " clip-rule="nonzero"/></clipPath><clipPath id="a486914bb0"><path d="M 0.480469 0.613281 L 479.910156 0.613281 L 479.910156 186.855469 L 0.480469 186.855469 Z M 0.480469 0.613281 " clip-rule="nonzero"/></clipPath><clipPath id="7ca92b2944"><path d="M 13.199219 0.613281 L 467.066406 0.613281 C 474.089844 0.613281 479.78125 6.304688 479.78125 13.328125 L 479.78125 174.140625 C 479.78125 181.164062 474.089844 186.855469 467.066406 186.855469 L 13.199219 186.855469 C 6.175781 186.855469 0.480469 181.164062 0.480469 174.140625 L 0.480469 13.328125 C 0.480469 6.304688 6.175781 0.613281 13.199219 0.613281 Z M 13.199219 0.613281 " clip-rule="nonzero"/></clipPath><clipPath id="d923735860"><rect x="0" width="480" y="0" height="187"/></clipPath><clipPath id="56887e59e6"><path d="M 255.484375 1.613281 L 734.972656 1.613281 L 734.972656 187.875 L 255.484375 187.875 Z M 255.484375 1.613281 " clip-rule="nonzero"/></clipPath><clipPath id="a8706d8745"><path d="M 268.199219 1.613281 L 722.054688 1.613281 C 729.078125 1.613281 734.773438 7.304688 734.773438 14.328125 L 734.773438 175.132812 C 734.773438 182.15625 729.078125 187.851562 722.054688 187.851562 L 268.199219 187.851562 C 261.175781 187.851562 255.484375 182.15625 255.484375 175.132812 L 255.484375 14.328125 C 255.484375 7.304688 261.175781 1.613281 268.199219 1.613281 Z M 268.199219 1.613281 " clip-rule="nonzero"/></clipPath><linearGradient x1="-0.000000191481" gradientTransform="matrix(12.725035, 0, 0, 12.725035, 0.0000024366, 0.00000833518)" y1="9.783" x2="50.35187" gradientUnits="userSpaceOnUse" y2="9.783" id="bd9c856dfa"><stop stop-opacity="1" stop-color="rgb(53.729248%, 85.099792%, 34.118652%)" offset="0"/><stop stop-opacity="1" stop-color="rgb(53.826904%, 85.113525%, 34.140015%)" offset="0.0078125"/><stop stop-opacity="1" stop-color="rgb(54.022217%, 85.140991%, 34.182739%)" offset="0.015625"/><stop stop-opacity="1" stop-color="rgb(54.219055%, 85.168457%, 34.22699%)" offset="0.0234375"/><stop stop-opacity="1" stop-color="rgb(54.414368%, 85.195923%, 34.269714%)" offset="0.03125"/><stop stop-opacity="1" stop-color="rgb(54.611206%, 85.223389%, 34.312439%)" offset="0.0390625"/><stop stop-opacity="1" stop-color="rgb(54.806519%, 85.250854%, 34.355164%)" offset="0.046875"/><stop stop-opacity="1" stop-color="rgb(55.003357%, 85.27832%, 34.397888%)" offset="0.0546875"/><stop stop-opacity="1" stop-color="rgb(55.198669%, 85.305786%, 34.440613%)" offset="0.0625"/><stop stop-opacity="1" stop-color="rgb(55.395508%, 85.333252%, 34.483337%)" offset="0.0703125"/><stop stop-opacity="1" stop-color="rgb(55.59082%, 85.360718%, 34.526062%)" offset="0.078125"/><stop stop-opacity="1" stop-color="rgb(55.787659%, 85.388184%, 34.568787%)" offset="0.0859375"/><stop stop-opacity="1" stop-color="rgb(55.982971%, 85.415649%, 34.613037%)" offset="0.09375"/><stop stop-opacity="1" stop-color="rgb(56.277466%, 85.458374%, 34.677124%)" offset="0.109375"/><stop stop-opacity="1" stop-color="rgb(56.570435%, 85.499573%, 34.741211%)" offset="0.117188"/><stop stop-opacity="1" stop-color="rgb(56.767273%, 85.527039%, 34.783936%)" offset="0.125"/><stop stop-opacity="1" stop-color="rgb(56.962585%, 85.554504%, 34.82666%)" offset="0.132812"/><stop stop-opacity="1" stop-color="rgb(57.159424%, 85.58197%, 34.869385%)" offset="0.140625"/><stop stop-opacity="1" stop-color="rgb(57.354736%, 85.609436%, 34.912109%)" offset="0.148438"/><stop stop-opacity="1" stop-color="rgb(57.551575%, 85.636902%, 34.954834%)" offset="0.15625"/><stop stop-opacity="1" stop-color="rgb(57.746887%, 85.664368%, 34.999084%)" offset="0.164062"/><stop stop-opacity="1" stop-color="rgb(57.943726%, 85.691833%, 35.041809%)" offset="0.171875"/><stop stop-opacity="1" stop-color="rgb(58.139038%, 85.719299%, 35.084534%)" offset="0.179688"/><stop stop-opacity="1" stop-color="rgb(58.335876%, 85.746765%, 35.127258%)" offset="0.1875"/><stop stop-opacity="1" stop-color="rgb(58.531189%, 85.774231%, 35.169983%)" offset="0.195312"/><stop stop-opacity="1" stop-color="rgb(58.728027%, 85.801697%, 35.212708%)" offset="0.203125"/><stop stop-opacity="1" stop-color="rgb(58.92334%, 85.830688%, 35.255432%)" offset="0.210937"/><stop stop-opacity="1" stop-color="rgb(59.118652%, 85.858154%, 35.298157%)" offset="0.21875"/><stop stop-opacity="1" stop-color="rgb(59.315491%, 85.88562%, 35.340881%)" offset="0.226563"/><stop stop-opacity="1" stop-color="rgb(59.510803%, 85.913086%, 35.385132%)" offset="0.234375"/><stop stop-opacity="1" stop-color="rgb(59.707642%, 85.940552%, 35.427856%)" offset="0.242188"/><stop stop-opacity="1" stop-color="rgb(59.902954%, 85.968018%, 35.470581%)" offset="0.25"/><stop stop-opacity="1" stop-color="rgb(60.099792%, 85.995483%, 35.513306%)" offset="0.257812"/><stop stop-opacity="1" stop-color="rgb(60.295105%, 86.022949%, 35.55603%)" offset="0.265625"/><stop stop-opacity="1" stop-color="rgb(60.491943%, 86.050415%, 35.598755%)" offset="0.273438"/><stop stop-opacity="1" stop-color="rgb(60.687256%, 86.077881%, 35.641479%)" offset="0.28125"/><stop stop-opacity="1" stop-color="rgb(60.98175%, 86.11908%, 35.705566%)" offset="0.296875"/><stop stop-opacity="1" stop-color="rgb(61.274719%, 86.160278%, 35.771179%)" offset="0.304688"/><stop stop-opacity="1" stop-color="rgb(61.471558%, 86.18927%, 35.813904%)" offset="0.3125"/><stop stop-opacity="1" stop-color="rgb(61.66687%, 86.216736%, 35.856628%)" offset="0.320313"/><stop stop-opacity="1" stop-color="rgb(61.863708%, 86.244202%, 35.899353%)" offset="0.328125"/><stop stop-opacity="1" stop-color="rgb(62.059021%, 86.271667%, 35.942078%)" offset="0.335938"/><stop stop-opacity="1" stop-color="rgb(62.255859%, 86.299133%, 35.984802%)" offset="0.34375"/><stop stop-opacity="1" stop-color="rgb(62.451172%, 86.326599%, 36.027527%)" offset="0.351562"/><stop stop-opacity="1" stop-color="rgb(62.64801%, 86.354065%, 36.070251%)" offset="0.359375"/><stop stop-opacity="1" stop-color="rgb(62.843323%, 86.381531%, 36.112976%)" offset="0.367188"/><stop stop-opacity="1" stop-color="rgb(63.040161%, 86.408997%, 36.155701%)" offset="0.375"/><stop stop-opacity="1" stop-color="rgb(63.235474%, 86.436462%, 36.199951%)" offset="0.382813"/><stop stop-opacity="1" stop-color="rgb(63.432312%, 86.463928%, 36.242676%)" offset="0.390625"/><stop stop-opacity="1" stop-color="rgb(63.627625%, 86.491394%, 36.2854%)" offset="0.398438"/><stop stop-opacity="1" stop-color="rgb(63.822937%, 86.51886%, 36.328125%)" offset="0.40625"/><stop stop-opacity="1" stop-color="rgb(64.019775%, 86.546326%, 36.37085%)" offset="0.414063"/><stop stop-opacity="1" stop-color="rgb(64.215088%, 86.575317%, 36.413574%)" offset="0.421875"/><stop stop-opacity="1" stop-color="rgb(64.411926%, 86.602783%, 36.456299%)" offset="0.429688"/><stop stop-opacity="1" stop-color="rgb(64.607239%, 86.630249%, 36.499023%)" offset="0.4375"/><stop stop-opacity="1" stop-color="rgb(64.804077%, 86.657715%, 36.541748%)" offset="0.445313"/><stop stop-opacity="1" stop-color="rgb(64.99939%, 86.685181%, 36.585999%)" offset="0.453125"/><stop stop-opacity="1" stop-color="rgb(65.196228%, 86.712646%, 36.628723%)" offset="0.460938"/><stop stop-opacity="1" stop-color="rgb(65.391541%, 86.740112%, 36.671448%)" offset="0.46875"/><stop stop-opacity="1" stop-color="rgb(65.588379%, 86.767578%, 36.714172%)" offset="0.476562"/><stop stop-opacity="1" stop-color="rgb(65.783691%, 86.795044%, 36.756897%)" offset="0.484375"/><stop stop-opacity="1" stop-color="rgb(66.078186%, 86.836243%, 36.820984%)" offset="0.5"/><stop stop-opacity="1" stop-color="rgb(66.371155%, 86.877441%, 36.885071%)" offset="0.507812"/><stop stop-opacity="1" stop-color="rgb(66.567993%, 86.904907%, 36.927795%)" offset="0.515625"/><stop stop-opacity="1" stop-color="rgb(66.763306%, 86.932373%, 36.972046%)" offset="0.523438"/><stop stop-opacity="1" stop-color="rgb(66.960144%, 86.961365%, 37.014771%)" offset="0.53125"/><stop stop-opacity="1" stop-color="rgb(67.155457%, 86.988831%, 37.057495%)" offset="0.539062"/><stop stop-opacity="1" stop-color="rgb(67.352295%, 87.016296%, 37.10022%)" offset="0.546875"/><stop stop-opacity="1" stop-color="rgb(67.547607%, 87.043762%, 37.142944%)" offset="0.554688"/><stop stop-opacity="1" stop-color="rgb(67.744446%, 87.071228%, 37.185669%)" offset="0.5625"/><stop stop-opacity="1" stop-color="rgb(67.939758%, 87.098694%, 37.228394%)" offset="0.570312"/><stop stop-opacity="1" stop-color="rgb(68.136597%, 87.12616%, 37.271118%)" offset="0.578125"/><stop stop-opacity="1" stop-color="rgb(68.331909%, 87.153625%, 37.313843%)" offset="0.585938"/><stop stop-opacity="1" stop-color="rgb(68.528748%, 87.181091%, 37.358093%)" offset="0.59375"/><stop stop-opacity="1" stop-color="rgb(68.72406%, 87.208557%, 37.400818%)" offset="0.601562"/><stop stop-opacity="1" stop-color="rgb(68.919373%, 87.236023%, 37.443542%)" offset="0.609375"/><stop stop-opacity="1" stop-color="rgb(69.116211%, 87.263489%, 37.486267%)" offset="0.617188"/><stop stop-opacity="1" stop-color="rgb(69.311523%, 87.290955%, 37.528992%)" offset="0.625"/><stop stop-opacity="1" stop-color="rgb(69.508362%, 87.319946%, 37.571716%)" offset="0.632812"/><stop stop-opacity="1" stop-color="rgb(69.703674%, 87.347412%, 37.614441%)" offset="0.640625"/><stop stop-opacity="1" stop-color="rgb(69.900513%, 87.374878%, 37.657166%)" offset="0.648438"/><stop stop-opacity="1" stop-color="rgb(70.095825%, 87.402344%, 37.69989%)" offset="0.65625"/><stop stop-opacity="1" stop-color="rgb(70.292664%, 87.42981%, 37.744141%)" offset="0.664063"/><stop stop-opacity="1" stop-color="rgb(70.487976%, 87.457275%, 37.786865%)" offset="0.671875"/><stop stop-opacity="1" stop-color="rgb(70.684814%, 87.484741%, 37.82959%)" offset="0.679688"/><stop stop-opacity="1" stop-color="rgb(70.880127%, 87.512207%, 37.872314%)" offset="0.6875"/><stop stop-opacity="1" stop-color="rgb(71.174622%, 87.553406%, 37.936401%)" offset="0.703125"/><stop stop-opacity="1" stop-color="rgb(71.46759%, 87.594604%, 38.000488%)" offset="0.710938"/><stop stop-opacity="1" stop-color="rgb(71.664429%, 87.62207%, 38.043213%)" offset="0.71875"/><stop stop-opacity="1" stop-color="rgb(71.859741%, 87.649536%, 38.085938%)" offset="0.726562"/><stop stop-opacity="1" stop-color="rgb(72.05658%, 87.677002%, 38.128662%)" offset="0.734375"/><stop stop-opacity="1" stop-color="rgb(72.251892%, 87.705994%, 38.172913%)" offset="0.742187"/><stop stop-opacity="1" stop-color="rgb(72.44873%, 87.733459%, 38.215637%)" offset="0.75"/><stop stop-opacity="1" stop-color="rgb(72.644043%, 87.760925%, 38.258362%)" offset="0.757812"/><stop stop-opacity="1" stop-color="rgb(72.840881%, 87.788391%, 38.301086%)" offset="0.765625"/><stop stop-opacity="1" stop-color="rgb(73.036194%, 87.815857%, 38.343811%)" offset="0.773437"/><stop stop-opacity="1" stop-color="rgb(73.233032%, 87.843323%, 38.386536%)" offset="0.78125"/><stop stop-opacity="1" stop-color="rgb(73.428345%, 87.870789%, 38.42926%)" offset="0.789062"/><stop stop-opacity="1" stop-color="rgb(73.623657%, 87.898254%, 38.471985%)" offset="0.796875"/><stop stop-opacity="1" stop-color="rgb(73.820496%, 87.92572%, 38.514709%)" offset="0.804687"/><stop stop-opacity="1" stop-color="rgb(74.015808%, 87.953186%, 38.55896%)" offset="0.8125"/><stop stop-opacity="1" stop-color="rgb(74.212646%, 87.980652%, 38.601685%)" offset="0.820312"/><stop stop-opacity="1" stop-color="rgb(74.407959%, 88.008118%, 38.644409%)" offset="0.828125"/><stop stop-opacity="1" stop-color="rgb(74.604797%, 88.035583%, 38.687134%)" offset="0.835937"/><stop stop-opacity="1" stop-color="rgb(74.80011%, 88.064575%, 38.729858%)" offset="0.84375"/><stop stop-opacity="1" stop-color="rgb(74.996948%, 88.092041%, 38.772583%)" offset="0.851562"/><stop stop-opacity="1" stop-color="rgb(75.192261%, 88.119507%, 38.815308%)" offset="0.859375"/><stop stop-opacity="1" stop-color="rgb(75.389099%, 88.146973%, 38.858032%)" offset="0.867188"/><stop stop-opacity="1" stop-color="rgb(75.584412%, 88.174438%, 38.900757%)" offset="0.875"/><stop stop-opacity="1" stop-color="rgb(75.878906%, 88.215637%, 38.96637%)" offset="0.890625"/><stop stop-opacity="1" stop-color="rgb(76.171875%, 88.256836%, 39.030457%)" offset="0.898438"/><stop stop-opacity="1" stop-color="rgb(76.368713%, 88.284302%, 39.073181%)" offset="0.90625"/><stop stop-opacity="1" stop-color="rgb(76.564026%, 88.311768%, 39.115906%)" offset="0.914063"/><stop stop-opacity="1" stop-color="rgb(76.760864%, 88.339233%, 39.15863%)" offset="0.921875"/><stop stop-opacity="1" stop-color="rgb(76.956177%, 88.366699%, 39.201355%)" offset="0.929688"/><stop stop-opacity="1" stop-color="rgb(77.153015%, 88.394165%, 39.24408%)" offset="0.9375"/><stop stop-opacity="1" stop-color="rgb(77.348328%, 88.421631%, 39.286804%)" offset="0.945313"/><stop stop-opacity="1" stop-color="rgb(77.545166%, 88.450623%, 39.331055%)" offset="0.953125"/><stop stop-opacity="1" stop-color="rgb(77.740479%, 88.478088%, 39.373779%)" offset="0.960938"/><stop stop-opacity="1" stop-color="rgb(77.937317%, 88.505554%, 39.416504%)" offset="0.96875"/><stop stop-opacity="1" stop-color="rgb(78.132629%, 88.53302%, 39.459229%)" offset="0.976563"/><stop stop-opacity="1" stop-color="rgb(78.329468%, 88.560486%, 39.501953%)" offset="0.984375"/><stop stop-opacity="1" stop-color="rgb(78.52478%, 88.587952%, 39.544678%)" offset="0.992188"/><stop stop-opacity="1" stop-color="rgb(78.720093%, 88.615417%, 39.587402%)" offset="1"/></linearGradient><clipPath id="ca1b012cea"><path d="M 284.761719 52.261719 L 370 52.261719 L 370 137.207031 L 284.761719 137.207031 Z M 284.761719 52.261719 " clip-rule="nonzero"/></clipPath><clipPath id="1b7745bd4a"><path d="M 287.753906 52.261719 L 366.8125 52.261719 C 367.605469 52.261719 368.367188 52.578125 368.929688 53.136719 C 369.488281 53.699219 369.804688 54.460938 369.804688 55.253906 L 369.804688 134.214844 C 369.804688 135.007812 369.488281 135.769531 368.929688 136.332031 C 368.367188 136.890625 367.605469 137.207031 366.8125 137.207031 L 287.753906 137.207031 C 286.960938 137.207031 286.199219 136.890625 285.636719 136.332031 C 285.074219 135.769531 284.761719 135.007812 284.761719 134.214844 L 284.761719 55.253906 C 284.761719 54.460938 285.074219 53.699219 285.636719 53.136719 C 286.199219 52.578125 286.960938 52.261719 287.753906 52.261719 Z M 287.753906 52.261719 " clip-rule="nonzero"/></clipPath><clipPath id="2e0d03a551"><path d="M 0.761719 0.261719 L 85.964844 0.261719 L 85.964844 85.207031 L 0.761719 85.207031 Z M 0.761719 0.261719 " clip-rule="nonzero"/></clipPath><clipPath id="3ee2ad9043"><path d="M 3.753906 0.261719 L 82.8125 0.261719 C 83.605469 0.261719 84.367188 0.578125 84.929688 1.136719 C 85.488281 1.699219 85.804688 2.460938 85.804688 3.253906 L 85.804688 82.214844 C 85.804688 83.007812 85.488281 83.769531 84.929688 84.332031 C 84.367188 84.890625 83.605469 85.207031 82.8125 85.207031 L 3.753906 85.207031 C 2.960938 85.207031 2.199219 84.890625 1.636719 84.332031 C 1.074219 83.769531 0.761719 83.007812 0.761719 82.214844 L 0.761719 3.253906 C 0.761719 2.460938 1.074219 1.699219 1.636719 1.136719 C 2.199219 0.578125 2.960938 0.261719 3.753906 0.261719 Z M 3.753906 0.261719 " clip-rule="nonzero"/></clipPath><clipPath id="0afdfc67ff"><rect x="0" width="86" y="0" height="86"/></clipPath><clipPath id="9cbeffdef1"><path d="M 284.761719 52.261719 L 370 52.261719 L 370 137.539062 L 284.761719 137.539062 Z M 284.761719 52.261719 " clip-rule="nonzero"/></clipPath><clipPath id="95b3f2c669"><path d="M 287.753906 52.261719 L 366.808594 52.261719 C 367.601562 52.261719 368.363281 52.578125 368.921875 53.136719 C 369.484375 53.699219 369.800781 54.460938 369.800781 55.253906 L 369.800781 134.207031 C 369.800781 135 369.484375 135.761719 368.921875 136.324219 C 368.363281 136.882812 367.601562 137.199219 366.808594 137.199219 L 287.753906 137.199219 C 286.960938 137.199219 286.199219 136.882812 285.640625 136.324219 C 285.078125 135.761719 284.761719 135 284.761719 134.207031 L 284.761719 55.253906 C 284.761719 54.460938 285.078125 53.699219 285.640625 53.136719 C 286.199219 52.578125 286.960938 52.261719 287.753906 52.261719 Z M 287.753906 52.261719 " clip-rule="nonzero"/></clipPath><clipPath id="9e7ed5c3d2"><path d="M 419.609375 52.261719 L 536.40625 52.261719 L 536.40625 137.207031 L 419.609375 137.207031 Z M 419.609375 52.261719 " clip-rule="nonzero"/></clipPath><clipPath id="6249d6479a"><path d="M 437.5625 52.261719 L 518.390625 52.261719 C 528.304688 52.261719 536.34375 60.300781 536.34375 70.214844 L 536.34375 119.253906 C 536.34375 129.167969 528.304688 137.207031 518.390625 137.207031 L 437.5625 137.207031 C 427.644531 137.207031 419.609375 129.167969 419.609375 119.253906 L 419.609375 70.214844 C 419.609375 60.300781 427.644531 52.261719 437.5625 52.261719 Z M 437.5625 52.261719 " clip-rule="nonzero"/></clipPath><clipPath id="d151259e47"><path d="M 0.609375 0.261719 L 117.40625 0.261719 L 117.40625 85.207031 L 0.609375 85.207031 Z M 0.609375 0.261719 " clip-rule="nonzero"/></clipPath><clipPath id="6c1b65f687"><path d="M 18.5625 0.261719 L 99.390625 0.261719 C 109.304688 0.261719 117.34375 8.300781 117.34375 18.214844 L 117.34375 67.253906 C 117.34375 77.167969 109.304688 85.207031 99.390625 85.207031 L 18.5625 85.207031 C 8.644531 85.207031 0.609375 77.167969 0.609375 67.253906 L 0.609375 18.214844 C 0.609375 8.300781 8.644531 0.261719 18.5625 0.261719 Z M 18.5625 0.261719 " clip-rule="nonzero"/></clipPath><clipPath id="09aebe5436"><rect x="0" width="118" y="0" height="86"/></clipPath><clipPath id="c913960f38"><path d="M 419.609375 52.261719 L 536.300781 52.261719 L 536.300781 137.539062 L 419.609375 137.539062 Z M 419.609375 52.261719 " clip-rule="nonzero"/></clipPath><clipPath id="c8378aba07"><path d="M 437.5625 52.261719 L 518.382812 52.261719 C 528.296875 52.261719 536.335938 60.300781 536.335938 70.214844 L 536.335938 119.246094 C 536.335938 129.160156 528.296875 137.199219 518.382812 137.199219 L 437.5625 137.199219 C 427.648438 137.199219 419.609375 129.160156 419.609375 119.246094 L 419.609375 70.214844 C 419.609375 60.300781 427.648438 52.261719 437.5625 52.261719 Z M 437.5625 52.261719 " clip-rule="nonzero"/></clipPath><clipPath id="77a0a1ef0e"><path d="M 136.699219 11.460938 L 222.636719 11.460938 L 222.636719 178.300781 L 136.699219 178.300781 Z M 136.699219 11.460938 " clip-rule="nonzero"/></clipPath><clipPath id="c99ebf6a8f"><path d="M 149.414062 11.460938 L 209.917969 11.460938 C 216.941406 11.460938 222.636719 17.152344 222.636719 24.175781 L 222.636719 165.292969 C 222.636719 172.316406 216.941406 178.007812 209.917969 178.007812 L 149.414062 178.007812 C 142.390625 178.007812 136.699219 172.316406 136.699219 165.292969 L 136.699219 24.175781 C 136.699219 17.152344 142.390625 11.460938 149.414062 11.460938 Z M 149.414062 11.460938 " clip-rule="nonzero"/></clipPath><clipPath id="fe6f333615"><path d="M 0.699219 0.460938 L 86.636719 0.460938 L 86.636719 167 L 0.699219 167 Z M 0.699219 0.460938 " clip-rule="nonzero"/></clipPath><clipPath id="c5c5d1e502"><path d="M 13.414062 0.460938 L 73.917969 0.460938 C 80.941406 0.460938 86.636719 6.152344 86.636719 13.175781 L 86.636719 154.292969 C 86.636719 161.316406 80.941406 167.007812 73.917969 167.007812 L 13.414062 167.007812 C 6.390625 167.007812 0.699219 161.316406 0.699219 154.292969 L 0.699219 13.175781 C 0.699219 6.152344 6.390625 0.460938 13.414062 0.460938 Z M 13.414062 0.460938 " clip-rule="nonzero"/></clipPath><clipPath id="8e78a30262"><rect x="0" width="87" y="0" height="168"/></clipPath><clipPath id="6307fd115f"><path d="M 136.699219 11.464844 L 222.722656 11.464844 L 222.722656 178 L 136.699219 178 Z M 136.699219 11.464844 " clip-rule="nonzero"/></clipPath><clipPath id="5ef124dd29"><path d="M 149.414062 11.464844 L 209.914062 11.464844 C 216.9375 11.464844 222.628906 17.160156 222.628906 24.179688 L 222.628906 165.285156 C 222.628906 172.304688 216.9375 178 209.914062 178 L 149.414062 178 C 142.390625 178 136.699219 172.304688 136.699219 165.285156 L 136.699219 24.179688 C 136.699219 17.160156 142.390625 11.464844 149.414062 11.464844 Z M 149.414062 11.464844 " clip-rule="nonzero"/></clipPath><clipPath id="5126b9ac89"><path d="M 767.628906 11.460938 L 853.566406 11.460938 L 853.566406 178.300781 L 767.628906 178.300781 Z M 767.628906 11.460938 " clip-rule="nonzero"/></clipPath><clipPath id="32b302996e"><path d="M 780.34375 11.460938 L 840.847656 11.460938 C 847.871094 11.460938 853.566406 17.152344 853.566406 24.175781 L 853.566406 165.292969 C 853.566406 172.316406 847.871094 178.007812 840.847656 178.007812 L 780.34375 178.007812 C 773.320312 178.007812 767.628906 172.316406 767.628906 165.292969 L 767.628906 24.175781 C 767.628906 17.152344 773.320312 11.460938 780.34375 11.460938 Z M 780.34375 11.460938 " clip-rule="nonzero"/></clipPath><clipPath id="a51b709d94"><path d="M 0.628906 0.460938 L 86.566406 0.460938 L 86.566406 167 L 0.628906 167 Z M 0.628906 0.460938 " clip-rule="nonzero"/></clipPath><clipPath id="7d57be1e35"><path d="M 13.34375 0.460938 L 73.847656 0.460938 C 80.871094 0.460938 86.566406 6.152344 86.566406 13.175781 L 86.566406 154.292969 C 86.566406 161.316406 80.871094 167.007812 73.847656 167.007812 L 13.34375 167.007812 C 6.320312 167.007812 0.628906 161.316406 0.628906 154.292969 L 0.628906 13.175781 C 0.628906 6.152344 6.320312 0.460938 13.34375 0.460938 Z M 13.34375 0.460938 " clip-rule="nonzero"/></clipPath><clipPath id="3518398af1"><rect x="0" width="87" y="0" height="168"/></clipPath><clipPath id="8a07b0b1a6"><path d="M 767.628906 11.464844 L 853.652344 11.464844 L 853.652344 178 L 767.628906 178 Z M 767.628906 11.464844 " clip-rule="nonzero"/></clipPath><clipPath id="3e5ad856bc"><path d="M 780.34375 11.464844 L 840.84375 11.464844 C 847.867188 11.464844 853.558594 17.160156 853.558594 24.179688 L 853.558594 165.285156 C 853.558594 172.304688 847.867188 178 840.84375 178 L 780.34375 178 C 773.320312 178 767.628906 172.304688 767.628906 165.285156 L 767.628906 24.179688 C 767.628906 17.160156 773.320312 11.464844 780.34375 11.464844 Z M 780.34375 11.464844 " clip-rule="nonzero"/></clipPath><clipPath id="9e9fb25ab8"><path d="M 586.144531 53.125 L 705.773438 53.125 L 705.773438 136.34375 L 586.144531 136.34375 Z M 586.144531 53.125 " clip-rule="nonzero"/></clipPath><clipPath id="be0a91c147"><path d="M 590.632812 53.125 L 656.054688 53.125 C 683.109375 53.125 705.503906 71.753906 705.503906 94.734375 C 705.503906 117.714844 683.109375 136.34375 656.054688 136.34375 L 590.632812 136.34375 C 589.445312 136.34375 588.300781 135.871094 587.460938 135.03125 C 586.617188 134.1875 586.144531 133.046875 586.144531 131.855469 L 586.144531 57.613281 C 586.144531 56.421875 586.617188 55.28125 587.460938 54.4375 C 588.300781 53.597656 589.445312 53.125 590.632812 53.125 Z M 590.632812 53.125 " clip-rule="nonzero"/></clipPath><clipPath id="315a61c737"><path d="M 0.144531 0.125 L 119.5625 0.125 L 119.5625 83.34375 L 0.144531 83.34375 Z M 0.144531 0.125 " clip-rule="nonzero"/></clipPath><clipPath id="a271209827"><path d="M 4.632812 0.125 L 70.054688 0.125 C 97.109375 0.125 119.503906 18.753906 119.503906 41.734375 C 119.503906 64.714844 97.109375 83.34375 70.054688 83.34375 L 4.632812 83.34375 C 3.445312 83.34375 2.300781 82.871094 1.460938 82.03125 C 0.617188 81.1875 0.144531 80.046875 0.144531 78.855469 L 0.144531 4.613281 C 0.144531 3.421875 0.617188 2.28125 1.460938 1.4375 C 2.300781 0.597656 3.445312 0.125 4.632812 0.125 Z M 4.632812 0.125 " clip-rule="nonzero"/></clipPath><clipPath id="e0d6d11c52"><rect x="0" width="120" y="0" height="84"/></clipPath><clipPath id="636ccb891c"><path d="M 586.144531 53.128906 L 705.832031 53.128906 L 705.832031 136.15625 L 586.144531 136.15625 Z M 586.144531 53.128906 " clip-rule="nonzero"/></clipPath><clipPath id="bf5e49c960"><path d="M 590.632812 53.128906 L 656.050781 53.128906 C 683.101562 53.128906 705.492188 71.753906 705.492188 94.734375 C 705.492188 117.710938 683.101562 136.339844 656.050781 136.339844 L 590.632812 136.339844 C 589.445312 136.339844 588.300781 135.867188 587.460938 135.027344 C 586.617188 134.183594 586.144531 133.042969 586.144531 131.851562 L 586.144531 57.617188 C 586.144531 56.425781 586.617188 55.285156 587.460938 54.441406 C 588.300781 53.601562 589.445312 53.128906 590.632812 53.128906 Z M 590.632812 53.128906 " clip-rule="nonzero"/></clipPath></defs><g clip-path="url(#868428eaac)"><g clip-path="url(#cca0229bfe)"><g transform="matrix(1, 0, 0, 1, 255, 1)"><g clip-path="url(#d923735860)"><g clip-path="url(#a486914bb0)"><g clip-path="url(#7ca92b2944)"><path fill="#f8f3ed" d="M 0.480469 0.613281 L 479.910156 0.613281 L 479.910156 186.855469 L 0.480469 186.855469 Z M 0.480469 0.613281 " fill-opacity="1" fill-rule="nonzero"/></g></g></g></g></g></g><g clip-path="url(#56887e59e6)"><g clip-path="url(#a8706d8745)"><path stroke-linecap="butt" transform="matrix(0.748037, 0, 0, 0.748037, 255.482696, 1.61301)" fill="none" stroke-linejoin="miter" d="M 16.999867 0.000362512 L 623.728831 0.000362512 C 633.117994 0.000362512 640.731676 7.608822 640.731676 16.997985 L 640.731676 231.966997 C 640.731676 241.35616 633.117994 248.969841 623.728831 248.969841 L 16.999867 248.969841 C 7.610704 248.969841 0.0022448 241.35616 0.0022448 231.966997 L 0.0022448 16.997985 C 0.0022448 7.608822 7.610704 0.000362512 16.999867 0.000362512 Z M 16.999867 0.000362512 " stroke="url(#bd9c856dfa)" stroke-width="16" stroke-miterlimit="4"/></g></g><g fill="#000000" fill-opacity="1"><g transform="translate(438.55107, 33.701545)"><g><path d="M 6.242188 0.21875 C 8.269531 0.21875 10.046875 -0.800781 10.976562 -2.375 L 9.105469 -3.460938 C 8.585938 -2.5 7.5 -1.902344 6.242188 -1.902344 C 4.089844 -1.902344 2.671875 -3.394531 2.671875 -5.503906 C 2.671875 -7.625 4.089844 -9.121094 6.242188 -9.121094 C 7.5 -9.121094 8.570312 -8.523438 9.105469 -7.546875 L 10.976562 -8.632812 C 10.03125 -10.203125 8.253906 -11.226562 6.242188 -11.226562 C 2.910156 -11.226562 0.519531 -8.726562 0.519531 -5.503906 C 0.519531 -2.296875 2.910156 0.21875 6.242188 0.21875 Z M 6.242188 0.21875 "/></g></g></g><g fill="#000000" fill-opacity="1"><g transform="translate(449.96413, 33.701545)"><g><path d="M 4.671875 0.21875 C 6.980469 0.21875 8.835938 -1.589844 8.835938 -3.929688 C 8.835938 -6.273438 6.980469 -8.082031 4.671875 -8.082031 C 2.359375 -8.082031 0.519531 -6.273438 0.519531 -3.929688 C 0.519531 -1.589844 2.359375 0.21875 4.671875 0.21875 Z M 4.671875 -1.761719 C 3.476562 -1.761719 2.546875 -2.65625 2.546875 -3.929688 C 2.546875 -5.203125 3.476562 -6.101562 4.671875 -6.101562 C 5.878906 -6.101562 6.808594 -5.203125 6.808594 -3.929688 C 6.808594 -2.65625 5.878906 -1.761719 4.671875 -1.761719 Z M 4.671875 -1.761719 "/></g></g></g><g fill="#000000" fill-opacity="1"><g transform="translate(459.302089, 33.701545)"><g><path d="M 4.671875 0.21875 C 6.210938 0.21875 7.546875 -0.597656 8.222656 -1.824219 L 6.460938 -2.832031 C 6.148438 -2.1875 5.472656 -1.792969 4.652344 -1.792969 C 3.445312 -1.792969 2.546875 -2.6875 2.546875 -3.929688 C 2.546875 -5.1875 3.445312 -6.085938 4.652344 -6.085938 C 5.457031 -6.085938 6.132812 -5.675781 6.445312 -5.03125 L 8.191406 -6.054688 C 7.546875 -7.265625 6.210938 -8.082031 4.671875 -8.082031 C 2.28125 -8.082031 0.519531 -6.273438 0.519531 -3.929688 C 0.519531 -1.589844 2.28125 0.21875 4.671875 0.21875 Z M 4.671875 0.21875 "/></g></g></g><g fill="#000000" fill-opacity="1"><g transform="translate(467.728264, 33.701545)"><g><path d="M 4.671875 0.21875 C 6.980469 0.21875 8.835938 -1.589844 8.835938 -3.929688 C 8.835938 -6.273438 6.980469 -8.082031 4.671875 -8.082031 C 2.359375 -8.082031 0.519531 -6.273438 0.519531 -3.929688 C 0.519531 -1.589844 2.359375 0.21875 4.671875 0.21875 Z M 4.671875 -1.761719 C 3.476562 -1.761719 2.546875 -2.65625 2.546875 -3.929688 C 2.546875 -5.203125 3.476562 -6.101562 4.671875 -6.101562 C 5.878906 -6.101562 6.808594 -5.203125 6.808594 -3.929688 C 6.808594 -2.65625 5.878906 -1.761719 4.671875 -1.761719 Z M 4.671875 -1.761719 "/></g></g></g><g fill="#000000" fill-opacity="1"><g transform="translate(477.066223, 33.701545)"><g><path d="M 1.023438 -11.007812 L 1.023438 0 L 3.191406 0 L 3.191406 -11.007812 Z M 1.023438 -11.007812 "/></g></g></g><g fill="#000000" fill-opacity="1"><g transform="translate(481.279305, 33.701545)"><g><path d="M 5.300781 -8.082031 C 4.246094 -8.082031 3.429688 -7.6875 2.957031 -6.980469 L 2.957031 -7.863281 L 0.925781 -7.863281 L 0.925781 0 L 2.957031 0 L 2.957031 -4.246094 C 2.957031 -5.613281 3.695312 -6.195312 4.6875 -6.195312 C 5.597656 -6.195312 6.242188 -5.644531 6.242188 -4.574219 L 6.242188 0 L 8.269531 0 L 8.269531 -4.828125 C 8.269531 -6.917969 6.964844 -8.082031 5.300781 -8.082031 Z M 5.300781 -8.082031 "/></g></g></g><g fill="#000000" fill-opacity="1"><g transform="translate(490.350013, 33.701545)"><g><path d="M 6.886719 -11.007812 L 6.886719 -6.933594 C 6.320312 -7.65625 5.488281 -8.082031 4.339844 -8.082031 C 2.234375 -8.082031 0.503906 -6.273438 0.503906 -3.929688 C 0.503906 -1.589844 2.234375 0.21875 4.339844 0.21875 C 5.488281 0.21875 6.320312 -0.203125 6.886719 -0.925781 L 6.886719 0 L 8.914062 0 L 8.914062 -11.007812 Z M 4.71875 -1.714844 C 3.460938 -1.714844 2.53125 -2.609375 2.53125 -3.929688 C 2.53125 -5.25 3.460938 -6.148438 4.71875 -6.148438 C 5.960938 -6.148438 6.886719 -5.25 6.886719 -3.929688 C 6.886719 -2.609375 5.960938 -1.714844 4.71875 -1.714844 Z M 4.71875 -1.714844 "/></g></g></g><g fill="#000000" fill-opacity="1"><g transform="translate(500.191027, 33.701545)"><g><path d="M 2.640625 -3.097656 L 8.570312 -3.097656 C 8.617188 -3.363281 8.648438 -3.632812 8.648438 -3.929688 C 8.648438 -6.242188 6.996094 -8.082031 4.671875 -8.082031 C 2.203125 -8.082031 0.519531 -6.273438 0.519531 -3.929688 C 0.519531 -1.589844 2.1875 0.21875 4.828125 0.21875 C 6.335938 0.21875 7.515625 -0.394531 8.253906 -1.460938 L 6.621094 -2.40625 C 6.273438 -1.949219 5.644531 -1.621094 4.859375 -1.621094 C 3.789062 -1.621094 2.925781 -2.058594 2.640625 -3.097656 Z M 2.609375 -4.671875 C 2.847656 -5.675781 3.585938 -6.257812 4.671875 -6.257812 C 5.519531 -6.257812 6.367188 -5.800781 6.621094 -4.671875 Z M 2.609375 -4.671875 "/></g></g></g><g fill="#000000" fill-opacity="1"><g transform="translate(509.324616, 33.701545)"><g><path d="M 8.175781 0 L 5.300781 -4.023438 L 8.050781 -7.863281 L 5.722656 -7.863281 L 4.136719 -5.644531 L 2.546875 -7.863281 L 0.203125 -7.863281 L 2.957031 -4.007812 L 0.078125 0 L 2.421875 0 L 4.136719 -2.390625 L 5.832031 0 Z M 8.175781 0 "/></g></g></g><g fill="#000000" fill-opacity="1"><g transform="translate(517.577867, 33.701545)"><g/></g></g><g fill="#000000" fill-opacity="1"><g transform="translate(521.507981, 33.701545)"><g><path d="M 8.097656 0 L 10.457031 0 L 6.589844 -11.007812 L 3.898438 -11.007812 L 0.046875 0 L 2.390625 0 L 3.050781 -1.980469 L 7.4375 -1.980469 Z M 3.742188 -4.007812 L 5.25 -8.507812 L 6.761719 -4.007812 Z M 3.742188 -4.007812 "/></g></g></g><g fill="#000000" fill-opacity="1"><g transform="translate(532.009257, 33.701545)"><g><path d="M 5.503906 -8.082031 C 4.355469 -8.082031 3.523438 -7.65625 2.957031 -6.933594 L 2.957031 -7.863281 L 0.925781 -7.863281 L 0.925781 3.144531 L 2.957031 3.144531 L 2.957031 -0.925781 C 3.523438 -0.203125 4.355469 0.21875 5.503906 0.21875 C 7.609375 0.21875 9.339844 -1.589844 9.339844 -3.929688 C 9.339844 -6.273438 7.609375 -8.082031 5.503906 -8.082031 Z M 5.125 -1.714844 C 3.882812 -1.714844 2.957031 -2.609375 2.957031 -3.929688 C 2.957031 -5.25 3.882812 -6.148438 5.125 -6.148438 C 6.382812 -6.148438 7.3125 -5.25 7.3125 -3.929688 C 7.3125 -2.609375 6.382812 -1.714844 5.125 -1.714844 Z M 5.125 -1.714844 "/></g></g></g><g fill="#000000" fill-opacity="1"><g transform="translate(541.850271, 33.701545)"><g><path d="M 5.503906 -8.082031 C 4.355469 -8.082031 3.523438 -7.65625 2.957031 -6.933594 L 2.957031 -7.863281 L 0.925781 -7.863281 L 0.925781 3.144531 L 2.957031 3.144531 L 2.957031 -0.925781 C 3.523438 -0.203125 4.355469 0.21875 5.503906 0.21875 C 7.609375 0.21875 9.339844 -1.589844 9.339844 -3.929688 C 9.339844 -6.273438 7.609375 -8.082031 5.503906 -8.082031 Z M 5.125 -1.714844 C 3.882812 -1.714844 2.957031 -2.609375 2.957031 -3.929688 C 2.957031 -5.25 3.882812 -6.148438 5.125 -6.148438 C 6.382812 -6.148438 7.3125 -5.25 7.3125 -3.929688 C 7.3125 -2.609375 6.382812 -1.714844 5.125 -1.714844 Z M 5.125 -1.714844 "/></g></g></g><g clip-path="url(#ca1b012cea)"><g clip-path="url(#1b7745bd4a)"><g transform="matrix(1, 0, 0, 1, 284, 52)"><g clip-path="url(#0afdfc67ff)"><g clip-path="url(#2e0d03a551)"><g clip-path="url(#3ee2ad9043)"><path fill="#ffffff" d="M 0.761719 0.261719 L 85.707031 0.261719 L 85.707031 85.207031 L 0.761719 85.207031 Z M 0.761719 0.261719 " fill-opacity="1" fill-rule="nonzero"/></g></g></g></g></g></g><g clip-path="url(#9cbeffdef1)"><g clip-path="url(#95b3f2c669)"><path stroke-linecap="butt" transform="matrix(0.748037, 0, 0, 0.748037, 284.763508, 52.261968)" fill="none" stroke-linejoin="miter" d="M 3.997664 -0.000333378 L 109.680578 -0.000333378 C 110.740645 -0.000333378 111.758936 0.422649 112.505682 1.169395 C 113.257651 1.921364 113.680633 2.939655 113.680633 3.999722 L 113.680633 109.546864 C 113.680633 110.606931 113.257651 111.625221 112.505682 112.37719 C 111.758936 113.123937 110.740645 113.546919 109.680578 113.546919 L 3.997664 113.546919 C 2.937597 113.546919 1.919306 113.123937 1.17256 112.37719 C 0.420591 111.625221 -0.00239137 110.606931 -0.00239137 109.546864 L -0.00239137 3.999722 C -0.00239137 2.939655 0.420591 1.921364 1.17256 1.169395 C 1.919306 0.422649 2.937597 -0.000333378 3.997664 -0.000333378 Z M 3.997664 -0.000333378 " stroke="#000000" stroke-width="4" stroke-opacity="1" stroke-miterlimit="4"/></g></g><g fill="#000000" fill-opacity="1"><g transform="translate(307.856186, 98.640237)"><g><path d="M 4.71875 0.1875 C 6.917969 0.1875 8.429688 -1.007812 8.429688 -2.894531 C 8.429688 -4.9375 6.636719 -5.503906 4.636719 -6.164062 C 3.144531 -6.652344 2.203125 -7.027344 2.203125 -8.222656 C 2.203125 -9.433594 3.160156 -10.125 4.480469 -10.125 C 5.929688 -10.125 6.777344 -9.292969 7.1875 -8.300781 L 8.113281 -8.820312 C 7.546875 -10.125 6.289062 -11.195312 4.480469 -11.195312 C 2.65625 -11.195312 1.101562 -10.109375 1.101562 -8.175781 C 1.101562 -6.148438 2.832031 -5.675781 4.621094 -5.078125 C 6.242188 -4.542969 7.328125 -4.136719 7.328125 -2.863281 C 7.328125 -1.683594 6.398438 -0.878906 4.734375 -0.878906 C 3.003906 -0.878906 1.964844 -1.730469 1.574219 -3.050781 L 0.628906 -2.5 C 1.195312 -0.832031 2.6875 0.1875 4.71875 0.1875 Z M 4.71875 0.1875 "/></g></g></g><g fill="#000000" fill-opacity="1"><g transform="translate(316.675327, 98.640237)"><g><path d="M 5.265625 -6.855469 L 5.265625 -7.863281 L 3.003906 -7.863281 L 3.003906 -10.0625 L 1.964844 -9.75 L 1.964844 -7.863281 L 0.316406 -7.863281 L 0.316406 -6.855469 L 1.964844 -6.855469 L 1.964844 -2.089844 C 1.964844 -0.203125 3.144531 0.316406 5.265625 0 L 5.265625 -0.910156 C 3.742188 -0.847656 3.003906 -0.738281 3.003906 -2.089844 L 3.003906 -6.855469 Z M 5.265625 -6.855469 "/></g></g></g><g fill="#000000" fill-opacity="1"><g transform="translate(322.098786, 98.640237)"><g><path d="M 7.863281 -7.863281 L 7.863281 -6.320312 C 7.203125 -7.375 6.085938 -8.050781 4.6875 -8.050781 C 2.46875 -8.050781 0.628906 -6.257812 0.628906 -3.929688 C 0.628906 -1.605469 2.46875 0.1875 4.6875 0.1875 C 6.085938 0.1875 7.203125 -0.488281 7.863281 -1.539062 L 7.863281 0 L 8.898438 0 L 8.898438 -7.863281 Z M 4.765625 -0.816406 C 3.019531 -0.816406 1.667969 -2.1875 1.667969 -3.929688 C 1.667969 -5.675781 3.019531 -7.042969 4.765625 -7.042969 C 6.507812 -7.042969 7.863281 -5.675781 7.863281 -3.929688 C 7.863281 -2.1875 6.507812 -0.816406 4.765625 -0.816406 Z M 4.765625 -0.816406 "/></g></g></g><g fill="#000000" fill-opacity="1"><g transform="translate(332.097007, 98.640237)"><g><path d="M 5.265625 -6.855469 L 5.265625 -7.863281 L 3.003906 -7.863281 L 3.003906 -10.0625 L 1.964844 -9.75 L 1.964844 -7.863281 L 0.316406 -7.863281 L 0.316406 -6.855469 L 1.964844 -6.855469 L 1.964844 -2.089844 C 1.964844 -0.203125 3.144531 0.316406 5.265625 0 L 5.265625 -0.910156 C 3.742188 -0.847656 3.003906 -0.738281 3.003906 -2.089844 L 3.003906 -6.855469 Z M 5.265625 -6.855469 "/></g></g></g><g fill="#000000" fill-opacity="1"><g transform="translate(337.520467, 98.640237)"><g><path d="M 4.734375 -8.050781 C 2.296875 -8.050781 0.628906 -6.242188 0.628906 -3.929688 C 0.628906 -1.558594 2.328125 0.1875 4.8125 0.1875 C 6.398438 0.1875 7.609375 -0.550781 8.269531 -1.621094 L 7.359375 -2.152344 C 6.933594 -1.398438 6.070312 -0.816406 4.828125 -0.816406 C 3.160156 -0.816406 1.917969 -1.808594 1.699219 -3.410156 L 8.601562 -3.410156 C 8.617188 -3.570312 8.632812 -3.742188 8.632812 -3.898438 C 8.632812 -6.054688 7.136719 -8.050781 4.734375 -8.050781 Z M 4.734375 -7.042969 C 6.085938 -7.042969 7.34375 -6.148438 7.5625 -4.417969 L 1.699219 -4.417969 C 1.902344 -5.960938 3.082031 -7.042969 4.734375 -7.042969 Z M 4.734375 -7.042969 "/></g></g></g><path stroke-linecap="butt" transform="matrix(0.748037, 0, 0, 0.748037, 369.804545, 93.986269)" fill="none" stroke-linejoin="miter" d="M 0.000190958 1.000092 L 61.076748 1.000092 " stroke="#000000" stroke-width="2" stroke-opacity="1" stroke-miterlimit="4"/><path stroke-linecap="round" transform="matrix(0.748037, 0, 0, 0.748037, 369.804545, 93.986269)" fill-opacity="1" fill="#000000" fill-rule="nonzero" stroke-linejoin="round" d="M 61.578061 -2.00256 L 65.578116 1.000092 L 61.578061 3.997523 Z M 61.578061 -2.00256 " stroke="#000000" stroke-width="2" stroke-opacity="1" stroke-miterlimit="4"/><path stroke-linecap="butt" transform="matrix(0.748037, 0, 0, 0.748037, 222.635504, 93.986269)" fill="none" stroke-linejoin="miter" d="M 0.00162383 1.000092 L 77.548381 1.000092 " stroke="#89898d" stroke-width="2" stroke-opacity="1" stroke-miterlimit="4"/><path stroke-linecap="round" transform="matrix(0.748037, 0, 0, 0.748037, 222.635504, 93.986269)" fill-opacity="1" fill="#89898d" fill-rule="nonzero" stroke-linejoin="round" d="M 78.049694 -2.00256 L 82.049749 1.000092 L 78.049694 3.997523 Z M 78.049694 -2.00256 " stroke="#89898d" stroke-width="2" stroke-opacity="1" stroke-miterlimit="4"/><g clip-path="url(#9e7ed5c3d2)"><g clip-path="url(#6249d6479a)"><g transform="matrix(1, 0, 0, 1, 419, 52)"><g clip-path="url(#09aebe5436)"><g clip-path="url(#d151259e47)"><g clip-path="url(#6c1b65f687)"><path fill="#ffffff" d="M 0.609375 0.261719 L 117.40625 0.261719 L 117.40625 85.207031 L 0.609375 85.207031 Z M 0.609375 0.261719 " fill-opacity="1" fill-rule="nonzero"/></g></g></g></g></g></g><g clip-path="url(#c913960f38)"><g clip-path="url(#c8378aba07)"><path stroke-linecap="butt" transform="matrix(0.748037, 0, 0, 0.748037, 419.609783, 52.261968)" fill="none" stroke-linejoin="miter" d="M 23.999784 -0.000333378 L 132.043044 -0.000333378 C 145.29649 -0.000333378 156.043374 10.746551 156.043374 23.999996 L 156.043374 89.546589 C 156.043374 102.805257 145.29649 113.546919 132.043044 113.546919 L 23.999784 113.546919 C 10.746338 113.546919 -0.000546056 102.805257 -0.000546056 89.546589 L -0.000546056 23.999996 C -0.000546056 10.746551 10.746338 -0.000333378 23.999784 -0.000333378 Z M 23.999784 -0.000333378 " stroke="#000000" stroke-width="4" stroke-opacity="1" stroke-miterlimit="4"/></g></g><g fill="#000000" fill-opacity="1"><g transform="translate(442.983845, 88.167725)"><g><path d="M 8.175781 -11.007812 L 0.316406 -11.007812 L 0.316406 -9.96875 L 3.695312 -9.96875 L 3.695312 0 L 4.796875 0 L 4.796875 -9.96875 L 8.175781 -9.96875 Z M 8.175781 -11.007812 "/></g></g></g><g fill="#000000" fill-opacity="1"><g transform="translate(450.372235, 88.167725)"><g><path d="M 2.136719 -6.558594 L 2.136719 -7.863281 L 1.101562 -7.863281 L 1.101562 0 L 2.136719 0 L 2.136719 -4.371094 C 2.136719 -6.320312 3.363281 -6.980469 4.621094 -6.980469 L 4.621094 -7.988281 C 3.617188 -7.988281 2.6875 -7.65625 2.136719 -6.558594 Z M 2.136719 -6.558594 "/></g></g></g><g fill="#000000" fill-opacity="1"><g transform="translate(454.836748, 88.167725)"><g><path d="M 7.863281 -7.863281 L 7.863281 -6.320312 C 7.203125 -7.375 6.085938 -8.050781 4.6875 -8.050781 C 2.46875 -8.050781 0.628906 -6.257812 0.628906 -3.929688 C 0.628906 -1.605469 2.46875 0.1875 4.6875 0.1875 C 6.085938 0.1875 7.203125 -0.488281 7.863281 -1.539062 L 7.863281 0 L 8.898438 0 L 8.898438 -7.863281 Z M 4.765625 -0.816406 C 3.019531 -0.816406 1.667969 -2.1875 1.667969 -3.929688 C 1.667969 -5.675781 3.019531 -7.042969 4.765625 -7.042969 C 6.507812 -7.042969 7.863281 -5.675781 7.863281 -3.929688 C 7.863281 -2.1875 6.507812 -0.816406 4.765625 -0.816406 Z M 4.765625 -0.816406 "/></g></g></g><g fill="#000000" fill-opacity="1"><g transform="translate(464.834969, 88.167725)"><g><path d="M 4.78125 -8.050781 C 3.664062 -8.050781 2.75 -7.625 2.136719 -6.636719 L 2.136719 -7.863281 L 1.101562 -7.863281 L 1.101562 0 L 2.136719 0 L 2.136719 -4.121094 C 2.136719 -6.226562 3.300781 -7.042969 4.6875 -7.042969 C 6.054688 -7.042969 6.824219 -6.226562 6.824219 -4.828125 L 6.824219 0 L 7.863281 0 L 7.863281 -4.828125 C 7.863281 -6.792969 6.699219 -8.050781 4.78125 -8.050781 Z M 4.78125 -8.050781 "/></g></g></g><g fill="#000000" fill-opacity="1"><g transform="translate(473.606992, 88.167725)"><g><path d="M 1.917969 -5.800781 C 1.917969 -6.652344 2.75 -7.042969 3.570312 -7.042969 C 4.324219 -7.042969 5.125 -6.746094 5.457031 -5.945312 L 6.320312 -6.445312 C 5.863281 -7.421875 4.859375 -8.050781 3.570312 -8.050781 C 1.996094 -8.050781 0.878906 -7.058594 0.878906 -5.800781 C 0.878906 -2.910156 5.472656 -4.023438 5.472656 -2.074219 C 5.472656 -1.148438 4.589844 -0.816406 3.664062 -0.816406 C 2.609375 -0.816406 1.792969 -1.335938 1.507812 -2.136719 L 0.628906 -1.621094 C 1.023438 -0.613281 2.089844 0.1875 3.664062 0.1875 C 5.347656 0.1875 6.507812 -0.738281 6.507812 -2.074219 C 6.507812 -4.96875 1.917969 -3.851562 1.917969 -5.800781 Z M 1.917969 -5.800781 "/></g></g></g><g fill="#000000" fill-opacity="1"><g transform="translate(480.586848, 88.167725)"><g><path d="M 5.03125 -10.1875 L 5.03125 -11.195312 C 2.910156 -11.351562 1.730469 -10.21875 1.730469 -8.175781 L 1.730469 -7.863281 L 0.394531 -7.863281 L 0.394531 -6.855469 L 1.730469 -6.855469 L 1.730469 0 L 2.765625 0 L 2.765625 -6.855469 L 5.03125 -6.855469 L 5.03125 -7.863281 L 2.765625 -7.863281 L 2.765625 -8.175781 C 2.765625 -9.6875 3.507812 -10.316406 5.03125 -10.1875 Z M 5.03125 -10.1875 "/></g></g></g><g fill="#000000" fill-opacity="1"><g transform="translate(485.145687, 88.167725)"><g><path d="M 4.765625 0.1875 C 7.058594 0.1875 8.898438 -1.605469 8.898438 -3.929688 C 8.898438 -6.257812 7.058594 -8.050781 4.765625 -8.050781 C 2.46875 -8.050781 0.628906 -6.257812 0.628906 -3.929688 C 0.628906 -1.605469 2.46875 0.1875 4.765625 0.1875 Z M 4.765625 -0.816406 C 3.019531 -0.816406 1.667969 -2.1875 1.667969 -3.929688 C 1.667969 -5.675781 3.019531 -7.042969 4.765625 -7.042969 C 6.507812 -7.042969 7.863281 -5.675781 7.863281 -3.929688 C 7.863281 -2.1875 6.507812 -0.816406 4.765625 -0.816406 Z M 4.765625 -0.816406 "/></g></g></g><g fill="#000000" fill-opacity="1"><g transform="translate(494.672287, 88.167725)"><g><path d="M 2.136719 -6.558594 L 2.136719 -7.863281 L 1.101562 -7.863281 L 1.101562 0 L 2.136719 0 L 2.136719 -4.371094 C 2.136719 -6.320312 3.363281 -6.980469 4.621094 -6.980469 L 4.621094 -7.988281 C 3.617188 -7.988281 2.6875 -7.65625 2.136719 -6.558594 Z M 2.136719 -6.558594 "/></g></g></g><g fill="#000000" fill-opacity="1"><g transform="translate(499.608512, 88.167725)"><g><path d="M 9.480469 -8.050781 C 8.476562 -8.050781 7.515625 -7.59375 6.933594 -6.621094 C 6.492188 -7.53125 5.644531 -8.050781 4.542969 -8.050781 C 3.601562 -8.050781 2.75 -7.671875 2.136719 -6.714844 L 2.136719 -7.863281 L 1.101562 -7.863281 L 1.101562 0 L 2.136719 0 L 2.136719 -4.355469 C 2.136719 -6.304688 3.269531 -7.042969 4.402344 -7.042969 C 5.519531 -7.042969 6.242188 -6.304688 6.242188 -4.90625 L 6.242188 0 L 7.28125 0 L 7.28125 -4.355469 C 7.28125 -6.304688 8.253906 -7.042969 9.464844 -7.042969 C 10.582031 -7.042969 11.382812 -6.304688 11.382812 -4.90625 L 11.382812 0 L 12.421875 0 L 12.421875 -4.90625 C 12.421875 -6.871094 11.210938 -8.050781 9.480469 -8.050781 Z M 9.480469 -8.050781 "/></g></g></g><g fill="#000000" fill-opacity="1"><g transform="translate(465.728832, 109.860786)"><g><path d="M 7.46875 -9.96875 L 7.46875 -11.007812 L 1.257812 -11.007812 L 1.257812 0 L 2.359375 0 L 2.359375 -4.875 L 7.234375 -4.875 L 7.234375 -5.914062 L 2.359375 -5.914062 L 2.359375 -9.96875 Z M 7.46875 -9.96875 "/></g></g></g><g fill="#000000" fill-opacity="1"><g transform="translate(473.824877, 109.860786)"><g><path d="M 2.671875 1.574219 L 3.710938 1.574219 C 2.609375 -0.628906 1.980469 -2.988281 1.980469 -5.503906 C 1.980469 -8.019531 2.609375 -10.378906 3.710938 -12.578125 L 2.671875 -12.578125 C 1.574219 -10.378906 0.945312 -8.019531 0.945312 -5.503906 C 0.945312 -2.988281 1.574219 -0.628906 2.671875 1.574219 Z M 2.671875 1.574219 "/></g></g></g><g fill="#000000" fill-opacity="1"><g transform="translate(478.006524, 109.860786)"><g><path d="M 7.703125 0 L 4.636719 -4.074219 L 7.5 -7.863281 L 6.257812 -7.863281 L 4.007812 -4.890625 L 1.761719 -7.863281 L 0.519531 -7.863281 L 3.394531 -4.074219 L 0.316406 0 L 1.558594 0 L 4.007812 -3.238281 L 6.460938 0 Z M 7.703125 0 "/></g></g></g><g fill="#000000" fill-opacity="1"><g transform="translate(486.023959, 109.860786)"><g><path d="M 1.507812 1.574219 C 2.609375 -0.628906 3.238281 -2.988281 3.238281 -5.503906 C 3.238281 -8.019531 2.609375 -10.378906 1.507812 -12.578125 L 0.472656 -12.578125 C 1.574219 -10.378906 2.203125 -8.019531 2.203125 -5.503906 C 2.203125 -2.988281 1.574219 -0.628906 0.472656 1.574219 Z M 1.507812 1.574219 "/></g></g></g><g clip-path="url(#77a0a1ef0e)"><g clip-path="url(#c99ebf6a8f)"><g transform="matrix(1, 0, 0, 1, 136, 11)"><g clip-path="url(#8e78a30262)"><g clip-path="url(#fe6f333615)"><g clip-path="url(#c5c5d1e502)"><path fill="#e9f7ff" d="M 0.699219 0.460938 L 86.636719 0.460938 L 86.636719 166.964844 L 0.699219 166.964844 Z M 0.699219 0.460938 " fill-opacity="1" fill-rule="nonzero"/></g></g></g></g></g></g><g clip-path="url(#6307fd115f)"><g clip-path="url(#5ef124dd29)"><path stroke-linecap="butt" transform="matrix(0.748037, 0, 0, 0.748037, 136.697874, 11.465443)" fill="none" stroke-linejoin="miter" d="M 16.99942 -0.000801352 L 97.877816 -0.000801352 C 107.266979 -0.000801352 114.875439 7.61288 114.875439 16.996821 L 114.875439 205.631267 C 114.875439 215.015208 107.266979 222.62889 97.877816 222.62889 L 16.99942 222.62889 C 7.610257 222.62889 0.00179781 215.015208 0.00179781 205.631267 L 0.00179781 16.996821 C 0.00179781 7.61288 7.610257 -0.000801352 16.99942 -0.000801352 Z M 16.99942 -0.000801352 " stroke="#89898d" stroke-width="4" stroke-opacity="1" stroke-miterlimit="4"/></g></g><g fill="#000000" fill-opacity="1"><g transform="translate(154.580624, 87.760427)"><g><path d="M 4.71875 0.1875 C 6.917969 0.1875 8.429688 -1.007812 8.429688 -2.894531 C 8.429688 -4.9375 6.636719 -5.503906 4.636719 -6.164062 C 3.144531 -6.652344 2.203125 -7.027344 2.203125 -8.222656 C 2.203125 -9.433594 3.160156 -10.125 4.480469 -10.125 C 5.929688 -10.125 6.777344 -9.292969 7.1875 -8.300781 L 8.113281 -8.820312 C 7.546875 -10.125 6.289062 -11.195312 4.480469 -11.195312 C 2.65625 -11.195312 1.101562 -10.109375 1.101562 -8.175781 C 1.101562 -6.148438 2.832031 -5.675781 4.621094 -5.078125 C 6.242188 -4.542969 7.328125 -4.136719 7.328125 -2.863281 C 7.328125 -1.683594 6.398438 -0.878906 4.734375 -0.878906 C 3.003906 -0.878906 1.964844 -1.730469 1.574219 -3.050781 L 0.628906 -2.5 C 1.195312 -0.832031 2.6875 0.1875 4.71875 0.1875 Z M 4.71875 0.1875 "/></g></g></g><g fill="#000000" fill-opacity="1"><g transform="translate(163.635615, 87.760427)"><g><path d="M 4.765625 0.1875 C 7.058594 0.1875 8.898438 -1.605469 8.898438 -3.929688 C 8.898438 -6.257812 7.058594 -8.050781 4.765625 -8.050781 C 2.46875 -8.050781 0.628906 -6.257812 0.628906 -3.929688 C 0.628906 -1.605469 2.46875 0.1875 4.765625 0.1875 Z M 4.765625 -0.816406 C 3.019531 -0.816406 1.667969 -2.1875 1.667969 -3.929688 C 1.667969 -5.675781 3.019531 -7.042969 4.765625 -7.042969 C 6.507812 -7.042969 7.863281 -5.675781 7.863281 -3.929688 C 7.863281 -2.1875 6.507812 -0.816406 4.765625 -0.816406 Z M 4.765625 -0.816406 "/></g></g></g><g fill="#000000" fill-opacity="1"><g transform="translate(173.162215, 87.760427)"><g><path d="M 6.636719 -7.863281 L 6.636719 -3.742188 C 6.636719 -1.636719 5.472656 -0.816406 4.089844 -0.816406 C 2.71875 -0.816406 1.949219 -1.636719 1.949219 -3.035156 L 1.949219 -7.863281 L 0.910156 -7.863281 L 0.910156 -3.035156 C 0.910156 -1.070312 2.074219 0.1875 3.992188 0.1875 C 5.109375 0.1875 6.023438 -0.234375 6.636719 -1.226562 L 6.636719 0 L 7.671875 0 L 7.671875 -7.863281 Z M 6.636719 -7.863281 "/></g></g></g><g fill="#000000" fill-opacity="1"><g transform="translate(181.934239, 87.760427)"><g><path d="M 2.136719 -6.558594 L 2.136719 -7.863281 L 1.101562 -7.863281 L 1.101562 0 L 2.136719 0 L 2.136719 -4.371094 C 2.136719 -6.320312 3.363281 -6.980469 4.621094 -6.980469 L 4.621094 -7.988281 C 3.617188 -7.988281 2.6875 -7.65625 2.136719 -6.558594 Z M 2.136719 -6.558594 "/></g></g></g><g fill="#000000" fill-opacity="1"><g transform="translate(186.870463, 87.760427)"><g><path d="M 4.765625 0.1875 C 6.304688 0.1875 7.640625 -0.613281 8.285156 -1.855469 L 7.421875 -2.359375 C 6.917969 -1.445312 5.960938 -0.816406 4.765625 -0.816406 C 3.019531 -0.816406 1.667969 -2.1875 1.667969 -3.929688 C 1.667969 -5.675781 3.019531 -7.042969 4.765625 -7.042969 C 5.945312 -7.042969 6.933594 -6.429688 7.359375 -5.503906 L 8.207031 -5.992188 C 7.640625 -7.234375 6.320312 -8.050781 4.765625 -8.050781 C 2.390625 -8.050781 0.628906 -6.257812 0.628906 -3.929688 C 0.628906 -1.605469 2.390625 0.1875 4.765625 0.1875 Z M 4.765625 0.1875 "/></g></g></g><g fill="#000000" fill-opacity="1"><g transform="translate(195.54816, 87.760427)"><g><path d="M 4.734375 -8.050781 C 2.296875 -8.050781 0.628906 -6.242188 0.628906 -3.929688 C 0.628906 -1.558594 2.328125 0.1875 4.8125 0.1875 C 6.398438 0.1875 7.609375 -0.550781 8.269531 -1.621094 L 7.359375 -2.152344 C 6.933594 -1.398438 6.070312 -0.816406 4.828125 -0.816406 C 3.160156 -0.816406 1.917969 -1.808594 1.699219 -3.410156 L 8.601562 -3.410156 C 8.617188 -3.570312 8.632812 -3.742188 8.632812 -3.898438 C 8.632812 -6.054688 7.136719 -8.050781 4.734375 -8.050781 Z M 4.734375 -7.042969 C 6.085938 -7.042969 7.34375 -6.148438 7.5625 -4.417969 L 1.699219 -4.417969 C 1.902344 -5.960938 3.082031 -7.042969 4.734375 -7.042969 Z M 4.734375 -7.042969 "/></g></g></g><g fill="#000000" fill-opacity="1"><g transform="translate(153.353376, 109.453488)"><g><path d="M 4.71875 0.1875 C 6.917969 0.1875 8.429688 -1.007812 8.429688 -2.894531 C 8.429688 -4.9375 6.636719 -5.503906 4.636719 -6.164062 C 3.144531 -6.652344 2.203125 -7.027344 2.203125 -8.222656 C 2.203125 -9.433594 3.160156 -10.125 4.480469 -10.125 C 5.929688 -10.125 6.777344 -9.292969 7.1875 -8.300781 L 8.113281 -8.820312 C 7.546875 -10.125 6.289062 -11.195312 4.480469 -11.195312 C 2.65625 -11.195312 1.101562 -10.109375 1.101562 -8.175781 C 1.101562 -6.148438 2.832031 -5.675781 4.621094 -5.078125 C 6.242188 -4.542969 7.328125 -4.136719 7.328125 -2.863281 C 7.328125 -1.683594 6.398438 -0.878906 4.734375 -0.878906 C 3.003906 -0.878906 1.964844 -1.730469 1.574219 -3.050781 L 0.628906 -2.5 C 1.195312 -0.832031 2.6875 0.1875 4.71875 0.1875 Z M 4.71875 0.1875 "/></g></g></g><g fill="#000000" fill-opacity="1"><g transform="translate(162.408367, 109.453488)"><g><path d="M 6.761719 -7.863281 L 4.214844 -1.273438 L 1.257812 -7.863281 L 0.15625 -7.863281 L 3.679688 0.046875 L 3.476562 0.535156 C 3.050781 1.558594 2.34375 2.28125 1.320312 2.167969 L 1.320312 3.144531 C 2.734375 3.253906 3.898438 2.234375 4.496094 0.722656 L 7.863281 -7.863281 Z M 6.761719 -7.863281 "/></g></g></g><g fill="#000000" fill-opacity="1"><g transform="translate(170.425803, 109.453488)"><g><path d="M 1.917969 -5.800781 C 1.917969 -6.652344 2.75 -7.042969 3.570312 -7.042969 C 4.324219 -7.042969 5.125 -6.746094 5.457031 -5.945312 L 6.320312 -6.445312 C 5.863281 -7.421875 4.859375 -8.050781 3.570312 -8.050781 C 1.996094 -8.050781 0.878906 -7.058594 0.878906 -5.800781 C 0.878906 -2.910156 5.472656 -4.023438 5.472656 -2.074219 C 5.472656 -1.148438 4.589844 -0.816406 3.664062 -0.816406 C 2.609375 -0.816406 1.792969 -1.335938 1.507812 -2.136719 L 0.628906 -1.621094 C 1.023438 -0.613281 2.089844 0.1875 3.664062 0.1875 C 5.347656 0.1875 6.507812 -0.738281 6.507812 -2.074219 C 6.507812 -4.96875 1.917969 -3.851562 1.917969 -5.800781 Z M 1.917969 -5.800781 "/></g></g></g><g fill="#000000" fill-opacity="1"><g transform="translate(177.5629, 109.453488)"><g><path d="M 5.265625 -6.855469 L 5.265625 -7.863281 L 3.003906 -7.863281 L 3.003906 -10.0625 L 1.964844 -9.75 L 1.964844 -7.863281 L 0.316406 -7.863281 L 0.316406 -6.855469 L 1.964844 -6.855469 L 1.964844 -2.089844 C 1.964844 -0.203125 3.144531 0.316406 5.265625 0 L 5.265625 -0.910156 C 3.742188 -0.847656 3.003906 -0.738281 3.003906 -2.089844 L 3.003906 -6.855469 Z M 5.265625 -6.855469 "/></g></g></g><g fill="#000000" fill-opacity="1"><g transform="translate(183.458071, 109.453488)"><g><path d="M 4.734375 -8.050781 C 2.296875 -8.050781 0.628906 -6.242188 0.628906 -3.929688 C 0.628906 -1.558594 2.328125 0.1875 4.8125 0.1875 C 6.398438 0.1875 7.609375 -0.550781 8.269531 -1.621094 L 7.359375 -2.152344 C 6.933594 -1.398438 6.070312 -0.816406 4.828125 -0.816406 C 3.160156 -0.816406 1.917969 -1.808594 1.699219 -3.410156 L 8.601562 -3.410156 C 8.617188 -3.570312 8.632812 -3.742188 8.632812 -3.898438 C 8.632812 -6.054688 7.136719 -8.050781 4.734375 -8.050781 Z M 4.734375 -7.042969 C 6.085938 -7.042969 7.34375 -6.148438 7.5625 -4.417969 L 1.699219 -4.417969 C 1.902344 -5.960938 3.082031 -7.042969 4.734375 -7.042969 Z M 4.734375 -7.042969 "/></g></g></g><g fill="#000000" fill-opacity="1"><g transform="translate(192.638823, 109.453488)"><g><path d="M 9.480469 -8.050781 C 8.476562 -8.050781 7.515625 -7.59375 6.933594 -6.621094 C 6.492188 -7.53125 5.644531 -8.050781 4.542969 -8.050781 C 3.601562 -8.050781 2.75 -7.671875 2.136719 -6.714844 L 2.136719 -7.863281 L 1.101562 -7.863281 L 1.101562 0 L 2.136719 0 L 2.136719 -4.355469 C 2.136719 -6.304688 3.269531 -7.042969 4.402344 -7.042969 C 5.519531 -7.042969 6.242188 -6.304688 6.242188 -4.90625 L 6.242188 0 L 7.28125 0 L 7.28125 -4.355469 C 7.28125 -6.304688 8.253906 -7.042969 9.464844 -7.042969 C 10.582031 -7.042969 11.382812 -6.304688 11.382812 -4.90625 L 11.382812 0 L 12.421875 0 L 12.421875 -4.90625 C 12.421875 -6.871094 11.210938 -8.050781 9.480469 -8.050781 Z M 9.480469 -8.050781 "/></g></g></g><g clip-path="url(#5126b9ac89)"><g clip-path="url(#32b302996e)"><g transform="matrix(1, 0, 0, 1, 767, 11)"><g clip-path="url(#3518398af1)"><g clip-path="url(#a51b709d94)"><g clip-path="url(#7d57be1e35)"><path fill="#e9f7ff" d="M 0.628906 0.460938 L 86.566406 0.460938 L 86.566406 166.964844 L 0.628906 166.964844 Z M 0.628906 0.460938 " fill-opacity="1" fill-rule="nonzero"/></g></g></g></g></g></g><g clip-path="url(#8a07b0b1a6)"><g clip-path="url(#3e5ad856bc)"><path stroke-linecap="butt" transform="matrix(0.748037, 0, 0, 0.748037, 767.627526, 11.465443)" fill="none" stroke-linejoin="miter" d="M 16.999468 -0.000801352 L 97.877864 -0.000801352 C 107.267027 -0.000801352 114.875486 7.61288 114.875486 16.996821 L 114.875486 205.631267 C 114.875486 215.015208 107.267027 222.62889 97.877864 222.62889 L 16.999468 222.62889 C 7.610305 222.62889 0.00184504 215.015208 0.00184504 205.631267 L 0.00184504 16.996821 C 0.00184504 7.61288 7.610305 -0.000801352 16.999468 -0.000801352 Z M 16.999468 -0.000801352 " stroke="#89898d" stroke-width="4" stroke-opacity="1" stroke-miterlimit="4"/></g></g><g fill="#000000" fill-opacity="1"><g transform="translate(786.340129, 87.760427)"><g><path d="M 8.175781 -11.007812 L 0.316406 -11.007812 L 0.316406 -9.96875 L 3.695312 -9.96875 L 3.695312 0 L 4.796875 0 L 4.796875 -9.96875 L 8.175781 -9.96875 Z M 8.175781 -11.007812 "/></g></g></g><g fill="#000000" fill-opacity="1"><g transform="translate(794.829185, 87.760427)"><g><path d="M 7.863281 -7.863281 L 7.863281 -6.320312 C 7.203125 -7.375 6.085938 -8.050781 4.6875 -8.050781 C 2.46875 -8.050781 0.628906 -6.257812 0.628906 -3.929688 C 0.628906 -1.605469 2.46875 0.1875 4.6875 0.1875 C 6.085938 0.1875 7.203125 -0.488281 7.863281 -1.539062 L 7.863281 0 L 8.898438 0 L 8.898438 -7.863281 Z M 4.765625 -0.816406 C 3.019531 -0.816406 1.667969 -2.1875 1.667969 -3.929688 C 1.667969 -5.675781 3.019531 -7.042969 4.765625 -7.042969 C 6.507812 -7.042969 7.863281 -5.675781 7.863281 -3.929688 C 7.863281 -2.1875 6.507812 -0.816406 4.765625 -0.816406 Z M 4.765625 -0.816406 "/></g></g></g><g fill="#000000" fill-opacity="1"><g transform="translate(804.827406, 87.760427)"><g><path d="M 2.136719 -6.558594 L 2.136719 -7.863281 L 1.101562 -7.863281 L 1.101562 0 L 2.136719 0 L 2.136719 -4.371094 C 2.136719 -6.320312 3.363281 -6.980469 4.621094 -6.980469 L 4.621094 -7.988281 C 3.617188 -7.988281 2.6875 -7.65625 2.136719 -6.558594 Z M 2.136719 -6.558594 "/></g></g></g><g fill="#000000" fill-opacity="1"><g transform="translate(809.76363, 87.760427)"><g><path d="M 7.863281 -7.863281 L 7.863281 -6.320312 C 7.203125 -7.375 6.085938 -8.050781 4.6875 -8.050781 C 2.46875 -8.050781 0.628906 -6.257812 0.628906 -3.929688 C 0.628906 -1.605469 2.46875 0.1875 4.6875 0.1875 C 6.085938 0.1875 7.203125 -0.488281 7.863281 -1.539062 L 7.863281 -0.316406 C 7.863281 1.289062 6.777344 2.328125 4.953125 2.328125 C 3.253906 2.328125 2.53125 1.699219 2.136719 0.894531 L 1.226562 1.414062 C 1.839844 2.640625 3.144531 3.332031 4.953125 3.332031 C 6.980469 3.332031 8.898438 2.074219 8.898438 -0.316406 L 8.898438 -7.863281 Z M 4.765625 -0.816406 C 3.019531 -0.816406 1.667969 -2.1875 1.667969 -3.929688 C 1.667969 -5.675781 3.019531 -7.042969 4.765625 -7.042969 C 6.507812 -7.042969 7.863281 -5.675781 7.863281 -3.929688 C 7.863281 -2.1875 6.507812 -0.816406 4.765625 -0.816406 Z M 4.765625 -0.816406 "/></g></g></g><g fill="#000000" fill-opacity="1"><g transform="translate(819.761851, 87.760427)"><g><path d="M 4.734375 -8.050781 C 2.296875 -8.050781 0.628906 -6.242188 0.628906 -3.929688 C 0.628906 -1.558594 2.328125 0.1875 4.8125 0.1875 C 6.398438 0.1875 7.609375 -0.550781 8.269531 -1.621094 L 7.359375 -2.152344 C 6.933594 -1.398438 6.070312 -0.816406 4.828125 -0.816406 C 3.160156 -0.816406 1.917969 -1.808594 1.699219 -3.410156 L 8.601562 -3.410156 C 8.617188 -3.570312 8.632812 -3.742188 8.632812 -3.898438 C 8.632812 -6.054688 7.136719 -8.050781 4.734375 -8.050781 Z M 4.734375 -7.042969 C 6.085938 -7.042969 7.34375 -6.148438 7.5625 -4.417969 L 1.699219 -4.417969 C 1.902344 -5.960938 3.082031 -7.042969 4.734375 -7.042969 Z M 4.734375 -7.042969 "/></g></g></g><g fill="#000000" fill-opacity="1"><g transform="translate(828.942603, 87.760427)"><g><path d="M 5.265625 -6.855469 L 5.265625 -7.863281 L 3.003906 -7.863281 L 3.003906 -10.0625 L 1.964844 -9.75 L 1.964844 -7.863281 L 0.316406 -7.863281 L 0.316406 -6.855469 L 1.964844 -6.855469 L 1.964844 -2.089844 C 1.964844 -0.203125 3.144531 0.316406 5.265625 0 L 5.265625 -0.910156 C 3.742188 -0.847656 3.003906 -0.738281 3.003906 -2.089844 L 3.003906 -6.855469 Z M 5.265625 -6.855469 "/></g></g></g><g fill="#000000" fill-opacity="1"><g transform="translate(784.283028, 109.453488)"><g><path d="M 4.71875 0.1875 C 6.917969 0.1875 8.429688 -1.007812 8.429688 -2.894531 C 8.429688 -4.9375 6.636719 -5.503906 4.636719 -6.164062 C 3.144531 -6.652344 2.203125 -7.027344 2.203125 -8.222656 C 2.203125 -9.433594 3.160156 -10.125 4.480469 -10.125 C 5.929688 -10.125 6.777344 -9.292969 7.1875 -8.300781 L 8.113281 -8.820312 C 7.546875 -10.125 6.289062 -11.195312 4.480469 -11.195312 C 2.65625 -11.195312 1.101562 -10.109375 1.101562 -8.175781 C 1.101562 -6.148438 2.832031 -5.675781 4.621094 -5.078125 C 6.242188 -4.542969 7.328125 -4.136719 7.328125 -2.863281 C 7.328125 -1.683594 6.398438 -0.878906 4.734375 -0.878906 C 3.003906 -0.878906 1.964844 -1.730469 1.574219 -3.050781 L 0.628906 -2.5 C 1.195312 -0.832031 2.6875 0.1875 4.71875 0.1875 Z M 4.71875 0.1875 "/></g></g></g><g fill="#000000" fill-opacity="1"><g transform="translate(793.33802, 109.453488)"><g><path d="M 6.761719 -7.863281 L 4.214844 -1.273438 L 1.257812 -7.863281 L 0.15625 -7.863281 L 3.679688 0.046875 L 3.476562 0.535156 C 3.050781 1.558594 2.34375 2.28125 1.320312 2.167969 L 1.320312 3.144531 C 2.734375 3.253906 3.898438 2.234375 4.496094 0.722656 L 7.863281 -7.863281 Z M 6.761719 -7.863281 "/></g></g></g><g fill="#000000" fill-opacity="1"><g transform="translate(801.355455, 109.453488)"><g><path d="M 1.917969 -5.800781 C 1.917969 -6.652344 2.75 -7.042969 3.570312 -7.042969 C 4.324219 -7.042969 5.125 -6.746094 5.457031 -5.945312 L 6.320312 -6.445312 C 5.863281 -7.421875 4.859375 -8.050781 3.570312 -8.050781 C 1.996094 -8.050781 0.878906 -7.058594 0.878906 -5.800781 C 0.878906 -2.910156 5.472656 -4.023438 5.472656 -2.074219 C 5.472656 -1.148438 4.589844 -0.816406 3.664062 -0.816406 C 2.609375 -0.816406 1.792969 -1.335938 1.507812 -2.136719 L 0.628906 -1.621094 C 1.023438 -0.613281 2.089844 0.1875 3.664062 0.1875 C 5.347656 0.1875 6.507812 -0.738281 6.507812 -2.074219 C 6.507812 -4.96875 1.917969 -3.851562 1.917969 -5.800781 Z M 1.917969 -5.800781 "/></g></g></g><g fill="#000000" fill-opacity="1"><g transform="translate(808.492552, 109.453488)"><g><path d="M 5.265625 -6.855469 L 5.265625 -7.863281 L 3.003906 -7.863281 L 3.003906 -10.0625 L 1.964844 -9.75 L 1.964844 -7.863281 L 0.316406 -7.863281 L 0.316406 -6.855469 L 1.964844 -6.855469 L 1.964844 -2.089844 C 1.964844 -0.203125 3.144531 0.316406 5.265625 0 L 5.265625 -0.910156 C 3.742188 -0.847656 3.003906 -0.738281 3.003906 -2.089844 L 3.003906 -6.855469 Z M 5.265625 -6.855469 "/></g></g></g><g fill="#000000" fill-opacity="1"><g transform="translate(814.387723, 109.453488)"><g><path d="M 4.734375 -8.050781 C 2.296875 -8.050781 0.628906 -6.242188 0.628906 -3.929688 C 0.628906 -1.558594 2.328125 0.1875 4.8125 0.1875 C 6.398438 0.1875 7.609375 -0.550781 8.269531 -1.621094 L 7.359375 -2.152344 C 6.933594 -1.398438 6.070312 -0.816406 4.828125 -0.816406 C 3.160156 -0.816406 1.917969 -1.808594 1.699219 -3.410156 L 8.601562 -3.410156 C 8.617188 -3.570312 8.632812 -3.742188 8.632812 -3.898438 C 8.632812 -6.054688 7.136719 -8.050781 4.734375 -8.050781 Z M 4.734375 -7.042969 C 6.085938 -7.042969 7.34375 -6.148438 7.5625 -4.417969 L 1.699219 -4.417969 C 1.902344 -5.960938 3.082031 -7.042969 4.734375 -7.042969 Z M 4.734375 -7.042969 "/></g></g></g><g fill="#000000" fill-opacity="1"><g transform="translate(823.568475, 109.453488)"><g><path d="M 9.480469 -8.050781 C 8.476562 -8.050781 7.515625 -7.59375 6.933594 -6.621094 C 6.492188 -7.53125 5.644531 -8.050781 4.542969 -8.050781 C 3.601562 -8.050781 2.75 -7.671875 2.136719 -6.714844 L 2.136719 -7.863281 L 1.101562 -7.863281 L 1.101562 0 L 2.136719 0 L 2.136719 -4.355469 C 2.136719 -6.304688 3.269531 -7.042969 4.402344 -7.042969 C 5.519531 -7.042969 6.242188 -6.304688 6.242188 -4.90625 L 6.242188 0 L 7.28125 0 L 7.28125 -4.355469 C 7.28125 -6.304688 8.253906 -7.042969 9.464844 -7.042969 C 10.582031 -7.042969 11.382812 -6.304688 11.382812 -4.90625 L 11.382812 0 L 12.421875 0 L 12.421875 -4.90625 C 12.421875 -6.871094 11.210938 -8.050781 9.480469 -8.050781 Z M 9.480469 -8.050781 "/></g></g></g><path stroke-linecap="butt" transform="matrix(0.748037, -0.000000000000000278, 0.000000000000000278, 0.748037, 536.34263, 93.986269)" fill="none" stroke-linejoin="miter" d="M 0.0014977 1.000092 L 61.078055 1.000092 " stroke="#000000" stroke-width="2" stroke-opacity="1" stroke-miterlimit="4"/><path stroke-linecap="round" transform="matrix(0.748037, -0.000000000000000278, 0.000000000000000278, 0.748037, 536.34263, 93.986269)" fill-opacity="1" fill="#000000" fill-rule="nonzero" stroke-linejoin="round" d="M 61.579367 -2.00256 L 65.579422 1.000092 L 61.579367 3.997523 Z M 61.579367 -2.00256 " stroke="#000000" stroke-width="2" stroke-opacity="1" stroke-miterlimit="4"/><g clip-path="url(#9e9fb25ab8)"><g clip-path="url(#be0a91c147)"><g transform="matrix(1, 0, 0, 1, 586, 53)"><g clip-path="url(#e0d6d11c52)"><g clip-path="url(#315a61c737)"><g clip-path="url(#a271209827)"><path fill="#ffffff" d="M 0.144531 0.125 L 119.449219 0.125 L 119.449219 83.34375 L 0.144531 83.34375 Z M 0.144531 0.125 " fill-opacity="1" fill-rule="nonzero"/></g></g></g></g></g></g><g clip-path="url(#636ccb891c)"><g clip-path="url(#bf5e49c960)"><path stroke-linecap="butt" transform="matrix(0.748037, 0, 0, 0.748037, 586.145781, 53.127467)" fill="none" stroke-linejoin="miter" d="M 5.998412 0.00192428 L 93.45131 0.00192428 C 129.613687 0.00192428 159.546213 24.900439 159.546213 55.621488 C 159.546213 86.337314 129.613687 111.241051 93.45131 111.241051 L 5.998412 111.241051 C 4.410922 111.241051 2.880875 110.609188 1.758144 109.486457 C 0.630192 108.358505 -0.00167092 106.83368 -0.00167092 105.240968 L -0.00167092 6.002007 C -0.00167092 4.409296 0.630192 2.88447 1.758144 1.756518 C 2.880875 0.633787 4.410922 0.00192428 5.998412 0.00192428 Z M 5.998412 0.00192428 " stroke="#000000" stroke-width="4" stroke-opacity="1" stroke-miterlimit="4"/></g></g><g fill="#000000" fill-opacity="1"><g transform="translate(600.592238, 88.282128)"><g><path d="M 8.175781 -11.007812 L 0.316406 -11.007812 L 0.316406 -9.96875 L 3.695312 -9.96875 L 3.695312 0 L 4.796875 0 L 4.796875 -9.96875 L 8.175781 -9.96875 Z M 8.175781 -11.007812 "/></g></g></g><g fill="#000000" fill-opacity="1"><g transform="translate(609.081294, 88.282128)"><g><path d="M 7.863281 -7.863281 L 7.863281 -6.320312 C 7.203125 -7.375 6.085938 -8.050781 4.6875 -8.050781 C 2.46875 -8.050781 0.628906 -6.257812 0.628906 -3.929688 C 0.628906 -1.605469 2.46875 0.1875 4.6875 0.1875 C 6.085938 0.1875 7.203125 -0.488281 7.863281 -1.539062 L 7.863281 0 L 8.898438 0 L 8.898438 -7.863281 Z M 4.765625 -0.816406 C 3.019531 -0.816406 1.667969 -2.1875 1.667969 -3.929688 C 1.667969 -5.675781 3.019531 -7.042969 4.765625 -7.042969 C 6.507812 -7.042969 7.863281 -5.675781 7.863281 -3.929688 C 7.863281 -2.1875 6.507812 -0.816406 4.765625 -0.816406 Z M 4.765625 -0.816406 "/></g></g></g><g fill="#000000" fill-opacity="1"><g transform="translate(619.079514, 88.282128)"><g><path d="M 2.136719 -6.558594 L 2.136719 -7.863281 L 1.101562 -7.863281 L 1.101562 0 L 2.136719 0 L 2.136719 -4.371094 C 2.136719 -6.320312 3.363281 -6.980469 4.621094 -6.980469 L 4.621094 -7.988281 C 3.617188 -7.988281 2.6875 -7.65625 2.136719 -6.558594 Z M 2.136719 -6.558594 "/></g></g></g><g fill="#000000" fill-opacity="1"><g transform="translate(624.015739, 88.282128)"><g><path d="M 7.863281 -7.863281 L 7.863281 -6.320312 C 7.203125 -7.375 6.085938 -8.050781 4.6875 -8.050781 C 2.46875 -8.050781 0.628906 -6.257812 0.628906 -3.929688 C 0.628906 -1.605469 2.46875 0.1875 4.6875 0.1875 C 6.085938 0.1875 7.203125 -0.488281 7.863281 -1.539062 L 7.863281 -0.316406 C 7.863281 1.289062 6.777344 2.328125 4.953125 2.328125 C 3.253906 2.328125 2.53125 1.699219 2.136719 0.894531 L 1.226562 1.414062 C 1.839844 2.640625 3.144531 3.332031 4.953125 3.332031 C 6.980469 3.332031 8.898438 2.074219 8.898438 -0.316406 L 8.898438 -7.863281 Z M 4.765625 -0.816406 C 3.019531 -0.816406 1.667969 -2.1875 1.667969 -3.929688 C 1.667969 -5.675781 3.019531 -7.042969 4.765625 -7.042969 C 6.507812 -7.042969 7.863281 -5.675781 7.863281 -3.929688 C 7.863281 -2.1875 6.507812 -0.816406 4.765625 -0.816406 Z M 4.765625 -0.816406 "/></g></g></g><g fill="#000000" fill-opacity="1"><g transform="translate(634.01396, 88.282128)"><g><path d="M 4.734375 -8.050781 C 2.296875 -8.050781 0.628906 -6.242188 0.628906 -3.929688 C 0.628906 -1.558594 2.328125 0.1875 4.8125 0.1875 C 6.398438 0.1875 7.609375 -0.550781 8.269531 -1.621094 L 7.359375 -2.152344 C 6.933594 -1.398438 6.070312 -0.816406 4.828125 -0.816406 C 3.160156 -0.816406 1.917969 -1.808594 1.699219 -3.410156 L 8.601562 -3.410156 C 8.617188 -3.570312 8.632812 -3.742188 8.632812 -3.898438 C 8.632812 -6.054688 7.136719 -8.050781 4.734375 -8.050781 Z M 4.734375 -7.042969 C 6.085938 -7.042969 7.34375 -6.148438 7.5625 -4.417969 L 1.699219 -4.417969 C 1.902344 -5.960938 3.082031 -7.042969 4.734375 -7.042969 Z M 4.734375 -7.042969 "/></g></g></g><g fill="#000000" fill-opacity="1"><g transform="translate(643.194712, 88.282128)"><g><path d="M 5.265625 -6.855469 L 5.265625 -7.863281 L 3.003906 -7.863281 L 3.003906 -10.0625 L 1.964844 -9.75 L 1.964844 -7.863281 L 0.316406 -7.863281 L 0.316406 -6.855469 L 1.964844 -6.855469 L 1.964844 -2.089844 C 1.964844 -0.203125 3.144531 0.316406 5.265625 0 L 5.265625 -0.910156 C 3.742188 -0.847656 3.003906 -0.738281 3.003906 -2.089844 L 3.003906 -6.855469 Z M 5.265625 -6.855469 "/></g></g></g><g fill="#000000" fill-opacity="1"><g transform="translate(604.82332, 109.975189)"><g><path d="M 4.71875 0.1875 C 6.917969 0.1875 8.429688 -1.007812 8.429688 -2.894531 C 8.429688 -4.9375 6.636719 -5.503906 4.636719 -6.164062 C 3.144531 -6.652344 2.203125 -7.027344 2.203125 -8.222656 C 2.203125 -9.433594 3.160156 -10.125 4.480469 -10.125 C 5.929688 -10.125 6.777344 -9.292969 7.1875 -8.300781 L 8.113281 -8.820312 C 7.546875 -10.125 6.289062 -11.195312 4.480469 -11.195312 C 2.65625 -11.195312 1.101562 -10.109375 1.101562 -8.175781 C 1.101562 -6.148438 2.832031 -5.675781 4.621094 -5.078125 C 6.242188 -4.542969 7.328125 -4.136719 7.328125 -2.863281 C 7.328125 -1.683594 6.398438 -0.878906 4.734375 -0.878906 C 3.003906 -0.878906 1.964844 -1.730469 1.574219 -3.050781 L 0.628906 -2.5 C 1.195312 -0.832031 2.6875 0.1875 4.71875 0.1875 Z M 4.71875 0.1875 "/></g></g></g><g fill="#000000" fill-opacity="1"><g transform="translate(613.878311, 109.975189)"><g><path d="M 5.265625 -6.855469 L 5.265625 -7.863281 L 3.003906 -7.863281 L 3.003906 -10.0625 L 1.964844 -9.75 L 1.964844 -7.863281 L 0.316406 -7.863281 L 0.316406 -6.855469 L 1.964844 -6.855469 L 1.964844 -2.089844 C 1.964844 -0.203125 3.144531 0.316406 5.265625 0 L 5.265625 -0.910156 C 3.742188 -0.847656 3.003906 -0.738281 3.003906 -2.089844 L 3.003906 -6.855469 Z M 5.265625 -6.855469 "/></g></g></g><g fill="#000000" fill-opacity="1"><g transform="translate(619.773482, 109.975189)"><g><path d="M 7.863281 -7.863281 L 7.863281 -6.320312 C 7.203125 -7.375 6.085938 -8.050781 4.6875 -8.050781 C 2.46875 -8.050781 0.628906 -6.257812 0.628906 -3.929688 C 0.628906 -1.605469 2.46875 0.1875 4.6875 0.1875 C 6.085938 0.1875 7.203125 -0.488281 7.863281 -1.539062 L 7.863281 0 L 8.898438 0 L 8.898438 -7.863281 Z M 4.765625 -0.816406 C 3.019531 -0.816406 1.667969 -2.1875 1.667969 -3.929688 C 1.667969 -5.675781 3.019531 -7.042969 4.765625 -7.042969 C 6.507812 -7.042969 7.863281 -5.675781 7.863281 -3.929688 C 7.863281 -2.1875 6.507812 -0.816406 4.765625 -0.816406 Z M 4.765625 -0.816406 "/></g></g></g><g fill="#000000" fill-opacity="1"><g transform="translate(629.771703, 109.975189)"><g><path d="M 5.265625 -6.855469 L 5.265625 -7.863281 L 3.003906 -7.863281 L 3.003906 -10.0625 L 1.964844 -9.75 L 1.964844 -7.863281 L 0.316406 -7.863281 L 0.316406 -6.855469 L 1.964844 -6.855469 L 1.964844 -2.089844 C 1.964844 -0.203125 3.144531 0.316406 5.265625 0 L 5.265625 -0.910156 C 3.742188 -0.847656 3.003906 -0.738281 3.003906 -2.089844 L 3.003906 -6.855469 Z M 5.265625 -6.855469 "/></g></g></g><g fill="#000000" fill-opacity="1"><g transform="translate(635.666874, 109.975189)"><g><path d="M 4.734375 -8.050781 C 2.296875 -8.050781 0.628906 -6.242188 0.628906 -3.929688 C 0.628906 -1.558594 2.328125 0.1875 4.8125 0.1875 C 6.398438 0.1875 7.609375 -0.550781 8.269531 -1.621094 L 7.359375 -2.152344 C 6.933594 -1.398438 6.070312 -0.816406 4.828125 -0.816406 C 3.160156 -0.816406 1.917969 -1.808594 1.699219 -3.410156 L 8.601562 -3.410156 C 8.617188 -3.570312 8.632812 -3.742188 8.632812 -3.898438 C 8.632812 -6.054688 7.136719 -8.050781 4.734375 -8.050781 Z M 4.734375 -7.042969 C 6.085938 -7.042969 7.34375 -6.148438 7.5625 -4.417969 L 1.699219 -4.417969 C 1.902344 -5.960938 3.082031 -7.042969 4.734375 -7.042969 Z M 4.734375 -7.042969 "/></g></g></g><path fill="#89898d" d="M 705.503906 93.984375 L 707 93.984375 L 707 95.480469 L 705.503906 95.480469 M 708.496094 93.984375 L 709.992188 93.984375 L 709.992188 95.480469 L 708.496094 95.480469 M 711.488281 93.984375 L 712.984375 93.984375 L 712.984375 95.480469 L 711.488281 95.480469 M 714.480469 93.984375 L 715.976562 93.984375 L 715.976562 95.480469 L 714.480469 95.480469 M 717.472656 93.984375 L 718.96875 93.984375 L 718.96875 95.480469 L 717.472656 95.480469 M 720.464844 93.984375 L 721.960938 93.984375 L 721.960938 95.480469 L 720.464844 95.480469 M 723.457031 93.984375 L 724.953125 93.984375 L 724.953125 95.480469 L 723.457031 95.480469 M 726.449219 93.984375 L 727.945312 93.984375 L 727.945312 95.480469 L 726.449219 95.480469 M 729.441406 93.984375 L 730.9375 93.984375 L 730.9375 95.480469 L 729.441406 95.480469 M 732.433594 93.984375 L 733.929688 93.984375 L 733.929688 95.480469 L 732.433594 95.480469 M 735.425781 93.984375 L 736.921875 93.984375 L 736.921875 95.480469 L 735.425781 95.480469 M 738.417969 93.984375 L 739.914062 93.984375 L 739.914062 95.480469 L 738.417969 95.480469 M 741.410156 93.984375 L 742.902344 93.984375 L 742.902344 95.480469 L 741.410156 95.480469 M 744.398438 93.984375 L 745.894531 93.984375 L 745.894531 95.480469 L 744.398438 95.480469 M 747.390625 93.984375 L 748.886719 93.984375 L 748.886719 95.480469 L 747.390625 95.480469 M 750.382812 93.984375 L 751.878906 93.984375 L 751.878906 95.480469 L 750.382812 95.480469 M 753.375 93.984375 L 754.871094 93.984375 L 754.871094 95.480469 L 753.375 95.480469 M 756.367188 93.984375 L 757.863281 93.984375 L 757.863281 95.480469 L 756.367188 95.480469 M 759.359375 93.984375 L 760.855469 93.984375 L 760.855469 95.480469 L 759.359375 95.480469 M 762.351562 93.984375 L 763.511719 93.984375 L 763.511719 95.480469 L 762.351562 95.480469 " fill-opacity="1" fill-rule="nonzero"/><path stroke-linecap="round" transform="matrix(0.748037, -0.00000000000104538, 0.00000000000104538, 0.748037, 705.502452, 93.986269)" fill-opacity="1" fill="#89898d" fill-rule="nonzero" stroke-linejoin="round" d="M 78.050013 -2.00256 L 82.050068 1.000092 L 78.050013 3.997523 Z M 78.050013 -2.00256 " stroke="#89898d" stroke-width="2" stroke-opacity="1" stroke-miterlimit="4"/></svg>