<svg xmlns="http://www.w3.org/2000/svg" width="1240" height="1408" viewBox="0 0 1240 1408" role="img"><rect width="1240" height="1408" fill="#FCF3D8"/><circle cx="60" cy="59" r="6" fill="#BE5133"/><text x="82" y="59" dominant-baseline="central" font-family="'JetBrains Mono', ui-monospace, 'SF Mono', Menlo, monospace" font-size="21" font-weight="600" fill="#BE5133" letter-spacing="3.8">COCOINDEX · SLIDES TO SPEECH FLOW</text><rect x="240" y="106" width="760" height="104" rx="18" fill="#FCF3D8" stroke="#532638" stroke-width="1.8"/><text x="620" y="132" text-anchor="middle" dominant-baseline="central" font-family="'JetBrains Mono', ui-monospace, 'SF Mono', Menlo, monospace" font-size="14" font-weight="600" fill="rgba(42,18,27,0.58)" letter-spacing="1.9">SOURCE</text><text x="620" y="162" text-anchor="middle" dominant-baseline="central" font-family="'JetBrains Mono', ui-monospace, 'SF Mono', Menlo, monospace" font-size="24" font-weight="600" fill="#2A121B">localfs.walk_dir</text><text x="620" y="190" text-anchor="middle" dominant-baseline="central" font-family="Inter, 'Plus Jakarta Sans', system-ui, -apple-system, sans-serif" font-size="18" font-weight="400" fill="rgba(42,18,27,0.58)">slide decks · *.pdf</text><line x1="620" y1="210" x2="620" y2="243" stroke="#532638" stroke-width="2.6"/><path d="M 613 243 L 627 243 L 620 252 Z" fill="#532638"/><rect x="60" y="252" width="1120" height="882" rx="24" fill="#FAE9CB" stroke="#BE5133" stroke-width="2"/><text x="620" y="284" text-anchor="middle" dominant-baseline="central" font-family="'JetBrains Mono', ui-monospace, 'SF Mono', Menlo, monospace" font-size="16" font-weight="600" fill="#BE5133" letter-spacing="1.3">PROCESSING COMPONENT</text><text x="620" y="310" text-anchor="middle" dominant-baseline="central" font-family="Inter, 'Plus Jakarta Sans', system-ui, -apple-system, sans-serif" font-size="17" font-weight="500" fill="rgba(42,18,27,0.58)">mount_each → process_file (per deck, memoized)</text><rect x="94" y="334" width="1052" height="104" rx="18" fill="#FCF3D8" stroke="#532638" stroke-width="1.8"/><text x="620" y="360" text-anchor="middle" dominant-baseline="central" font-family="'JetBrains Mono', ui-monospace, 'SF Mono', Menlo, monospace" font-size="14" font-weight="600" fill="rgba(42,18,27,0.58)" letter-spacing="1.9">TRANSFORM · PYMUPDF</text><text x="620" y="390" text-anchor="middle" dominant-baseline="central" font-family="'JetBrains Mono', ui-monospace, 'SF Mono', Menlo, monospace" font-size="24" font-weight="600" fill="#2A121B">pdf_to_slides</text><text x="620" y="418" text-anchor="middle" dominant-baseline="central" font-family="Inter, 'Plus Jakarta Sans', system-ui, -apple-system, sans-serif" font-size="18" font-weight="400" fill="rgba(42,18,27,0.58)">PDF → one image per slide</text><line x1="620" y1="438" x2="620" y2="471" stroke="#532638" stroke-width="2.6"/><path d="M 613 471 L 627 471 L 620 480 Z" fill="#532638"/><rect x="94" y="480" width="1052" height="104" rx="5" fill="#FCF3D8" stroke="#532638" stroke-width="1.8"/><text x="620" y="506" text-anchor="middle" dominant-baseline="central" font-family="'JetBrains Mono', ui-monospace, 'SF Mono', Menlo, monospace" font-size="14" font-weight="600" fill="rgba(42,18,27,0.58)" letter-spacing="1.9">DATA</text><text x="620" y="536" text-anchor="middle" dominant-baseline="central" font-family="'JetBrains Mono', ui-monospace, 'SF Mono', Menlo, monospace" font-size="24" font-weight="600" fill="#2A121B">slides</text><text x="620" y="564" text-anchor="middle" dominant-baseline="central" font-family="Inter, 'Plus Jakarta Sans', system-ui, -apple-system, sans-serif" font-size="18" font-weight="400" fill="rgba(42,18,27,0.58)">SlidePage · page + image</text><line x1="620" y1="584" x2="620" y2="617" stroke="#532638" stroke-width="2.6"/><path d="M 613 617 L 627 617 L 620 626 Z" fill="#532638"/><rect x="94" y="626" width="1052" height="478" rx="20" fill="#F6F4E9" stroke="#D28D6F" stroke-width="1.8" stroke-dasharray="8 7"/><text x="620" y="656" text-anchor="middle" dominant-baseline="central" font-family="'JetBrains Mono', ui-monospace, 'SF Mono', Menlo, monospace" font-size="14" font-weight="600" fill="rgba(42,18,27,0.58)" letter-spacing="1.1">COCO.MAP → PROCESS_SLIDE (PER SLIDE)</text><rect x="122" y="682" width="996" height="104" rx="18" fill="#FCF3D8" stroke="#532638" stroke-width="1.8"/><text x="620" y="708" text-anchor="middle" dominant-baseline="central" font-family="'JetBrains Mono', ui-monospace, 'SF Mono', Menlo, monospace" font-size="14" font-weight="600" fill="rgba(42,18,27,0.58)" letter-spacing="1.9">TRANSFORM · VISION LLM</text><text x="620" y="738" text-anchor="middle" dominant-baseline="central" font-family="'JetBrains Mono', ui-monospace, 'SF Mono', Menlo, monospace" font-size="24" font-weight="600" fill="#2A121B">extract_speaker_notes</text><text x="620" y="766" text-anchor="middle" dominant-baseline="central" font-family="Inter, 'Plus Jakarta Sans', system-ui, -apple-system, sans-serif" font-size="18" font-weight="400" fill="rgba(42,18,27,0.58)">slide image → speaker notes</text><line x1="620" y1="786" x2="620" y2="819" stroke="#532638" stroke-width="2.6"/><path d="M 613 819 L 627 819 L 620 828 Z" fill="#532638"/><rect x="122" y="828" width="483" height="104" rx="18" fill="#FCF3D8" stroke="#532638" stroke-width="1.8"/><text x="364" y="854" text-anchor="middle" dominant-baseline="central" font-family="'JetBrains Mono', ui-monospace, 'SF Mono', Menlo, monospace" font-size="14" font-weight="600" fill="rgba(42,18,27,0.58)" letter-spacing="1.9">TRANSFORM · PIPER TTS</text><text x="364" y="884" text-anchor="middle" dominant-baseline="central" font-family="'JetBrains Mono', ui-monospace, 'SF Mono', Menlo, monospace" font-size="24" font-weight="600" fill="#2A121B">text_to_speech</text><text x="364" y="912" text-anchor="middle" dominant-baseline="central" font-family="Inter, 'Plus Jakarta Sans', system-ui, -apple-system, sans-serif" font-size="18" font-weight="400" fill="rgba(42,18,27,0.58)">notes → MP3 audio</text><rect x="635" y="828" width="483" height="104" rx="18" fill="#FCF3D8" stroke="#532638" stroke-width="1.8"/><text x="876" y="854" text-anchor="middle" dominant-baseline="central" font-family="'JetBrains Mono', ui-monospace, 'SF Mono', Menlo, monospace" font-size="14" font-weight="600" fill="rgba(42,18,27,0.58)" letter-spacing="1.9">TRANSFORM · EMBED</text><text x="876" y="884" text-anchor="middle" dominant-baseline="central" font-family="'JetBrains Mono', ui-monospace, 'SF Mono', Menlo, monospace" font-size="24" font-weight="600" fill="#2A121B">SentenceTransformer</text><text x="876" y="912" text-anchor="middle" dominant-baseline="central" font-family="Inter, 'Plus Jakarta Sans', system-ui, -apple-system, sans-serif" font-size="18" font-weight="400" fill="rgba(42,18,27,0.58)">notes → vector</text><line x1="620" y1="932" x2="620" y2="965" stroke="#532638" stroke-width="2.6"/><path d="M 613 965 L 627 965 L 620 974 Z" fill="#532638"/><path d="M 126 974 L 1096 974 A 22 22 0 0 1 1118 996 L 1118 1056 A 22 22 0 0 1 1096 1078 L 126 1078 A 4 4 0 0 1 122 1074 L 122 978 A 4 4 0 0 1 126 974 Z" fill="#FCF3D8" stroke="#532638" stroke-width="1.8"/><text x="620" y="1000" text-anchor="middle" dominant-baseline="central" font-family="'JetBrains Mono', ui-monospace, 'SF Mono', Menlo, monospace" font-size="14" font-weight="600" fill="rgba(42,18,27,0.58)" letter-spacing="1.9">TARGET STATE · ONE PER SLIDE</text><text x="620" y="1030" text-anchor="middle" dominant-baseline="central" font-family="'JetBrains Mono', ui-monospace, 'SF Mono', Menlo, monospace" font-size="24" font-weight="600" fill="#2A121B">declare_row → SlideRecord</text><text x="620" y="1058" text-anchor="middle" dominant-baseline="central" font-family="Inter, 'Plus Jakarta Sans', system-ui, -apple-system, sans-serif" font-size="18" font-weight="400" fill="rgba(42,18,27,0.58)">page · notes · voice · embedding</text><line x1="620" y1="1134" x2="620" y2="1167" stroke="#532638" stroke-width="2.6"/><path d="M 613 1167 L 627 1167 L 620 1176 Z" fill="#532638"/><rect x="240" y="1176" width="760" height="104" rx="18" fill="#FCF3D8" stroke="#532638" stroke-width="1.8"/><text x="620" y="1202" text-anchor="middle" dominant-baseline="central" font-family="'JetBrains Mono', ui-monospace, 'SF Mono', Menlo, monospace" font-size="14" font-weight="600" fill="rgba(42,18,27,0.58)" letter-spacing="1.9">TARGET</text><text x="620" y="1232" text-anchor="middle" dominant-baseline="central" font-family="Inter, 'Plus Jakarta Sans', system-ui, -apple-system, sans-serif" font-size="26" font-weight="600" fill="#2A121B">LanceDB</text><text x="620" y="1260" text-anchor="middle" dominant-baseline="central" font-family="Inter, 'Plus Jakarta Sans', system-ui, -apple-system, sans-serif" font-size="18" font-weight="400" fill="rgba(42,18,27,0.58)">slides_to_speech table</text><line x1="60" y1="1318" x2="1180" y2="1318" stroke="rgba(42,18,27,0.16)" stroke-width="1.5"/><rect x="189" y="1342" width="40" height="26" rx="18" fill="#FCF3D8" stroke="#532638" stroke-width="1.8"/><text x="241" y="1355" dominant-baseline="central" font-family="Inter, 'Plus Jakarta Sans', system-ui, -apple-system, sans-serif" font-size="18" font-weight="400" fill="rgba(42,18,27,0.58)">Source / transform</text><rect x="435" y="1342" width="40" height="26" rx="5" fill="#FCF3D8" stroke="#532638" stroke-width="1.8"/><text x="487" y="1355" dominant-baseline="central" font-family="Inter, 'Plus Jakarta Sans', system-ui, -apple-system, sans-serif" font-size="18" font-weight="400" fill="rgba(42,18,27,0.58)">Data (state)</text><path d="M 632 1342 L 655 1342 A 13.0 13.0 0 0 1 668 1355 L 668 1355 A 13.0 13.0 0 0 1 655 1368 L 632 1368 A 4 4 0 0 1 628 1364 L 628 1346 A 4 4 0 0 1 632 1342 Z" fill="#FCF3D8" stroke="#532638" stroke-width="1.8"/><text x="680" y="1355" dominant-baseline="central" font-family="Inter, 'Plus Jakarta Sans', system-ui, -apple-system, sans-serif" font-size="18" font-weight="400" fill="rgba(42,18,27,0.58)">Target state</text><rect x="821" y="1342" width="40" height="26" rx="8" fill="#FAE9CB" stroke="#BE5133" stroke-width="1.8"/><text x="873" y="1355" dominant-baseline="central" font-family="Inter, 'Plus Jakarta Sans', system-ui, -apple-system, sans-serif" font-size="18" font-weight="400" fill="rgba(42,18,27,0.58)">Processing component</text></svg>