<svg xmlns="http://www.w3.org/2000/svg" viewBox="0 0 1200 460" role="img" aria-label="CocoIndex Enterprise — built for enterprise scale. Four headline stats for PB-scale incremental indexing: PB corpus scale incrementally indexed (coral), 10× fewer LLM embedding calls vs. full recompute (yellow), 100% lineage coverage with every byte traceable (mint), Δ only the delta always (sky). Below, a wide 50×8 corpus matrix of 400 dim tiles represents a petabyte-scale store where a single coral Δ slice of 8 tiles re-runs while the other 99.9% stays cached. Keywords: enterprise RAG, petabyte-scale indexing, incremental compute, delta-only, lineage, parallel chunking, zero-copy, failure isolation.">
  <title>CocoIndex Enterprise · Built for enterprise scale (light)</title>
  <desc>Light-theme enterprise banner: gradient title, 4 stat tiles (PB coral · 10× amber · 100% emerald · Δ indigo) with captions, and a 50×8 corpus matrix where only a single brand-coral Δ column of 8 tiles re-runs while 99.9% stays cached. Recolored for white GitHub READMEs — every token clears WCAG AA on #ffffff, palette mapped identically to the other light heroes (coral #BE5133 · amber #B45309 · peach #E59A63 · emerald #16A534 · indigo #2563EB · ink #2A121B).</desc>

  <defs>
    <pattern id="es-dots" width="12" height="12" patternUnits="userSpaceOnUse">
      <circle cx="1.5" cy="1.5" r="0.9" fill="#2A121B" fill-opacity="0.14"/>
    </pattern>
    <style>
      .pulse { animation: p 2.4s ease-in-out infinite; transform-origin: center; transform-box: fill-box; }
      @keyframes p { 0%,100% { opacity: 1 } 50% { opacity: 0.45 } }
    </style>
  </defs>

  <!-- Title · solid brand maroon (no gradient) -->
  <text x="600" y="58" text-anchor="middle" font-family="Inter, -apple-system, system-ui, sans-serif" font-size="40" font-weight="900" letter-spacing="-0.025em" fill="#532638">CocoIndex Enterprise</text>
  <text x="600" y="86" text-anchor="middle" font-family="Inter, -apple-system, system-ui, sans-serif" font-size="15" font-weight="500" fill="#2A121B" fill-opacity="0.72">
    Built for enterprise scale — <tspan fill="#BE5133" font-style="italic" font-weight="700">petabyte incremental indexing.</tspan>
  </text>
  <text x="600" y="108" text-anchor="middle" font-family="JetBrains Mono, ui-monospace, monospace" font-size="10" letter-spacing="0.24em" font-weight="700" fill="#2A121B" fill-opacity="0.55">
    PB-SCALE · Δ ONLY · 100% LINEAGE · NO RE-COMPUTE
  </text>

  <!-- 4 STAT TILES · dotted bg · no filled circle · cocoindex palette -->
  <g transform="translate(60, 134)" font-family="Inter, -apple-system, system-ui, sans-serif">
    <!-- Tile 1: Petabyte corpus — brand coral -->
    <g>
      <rect width="260" height="104" rx="14" fill="url(#es-dots)"/>
      <rect width="260" height="104" rx="14" fill="none" stroke="#2A121B" stroke-opacity="0.12" stroke-width="1"/>
      <text x="36" y="52" text-anchor="middle" dominant-baseline="central" font-size="22" font-weight="900" fill="#BE5133">PB</text>
      <text x="74" y="40" font-size="19" font-weight="900" letter-spacing="-0.01em" fill="#BE5133">Petabyte corpus</text>
      <text x="74" y="62" font-size="12" font-weight="500" fill="#2A121B" fill-opacity="0.72">incrementally indexed</text>
      <text x="74" y="84" font-family="JetBrains Mono, ui-monospace, monospace" font-size="9" letter-spacing="0.18em" font-weight="700" fill="#BE5133">ANY SCALE</text>
    </g>
    <!-- Tile 2: 10× fewer LLM calls — brand amber -->
    <g transform="translate(280, 0)">
      <rect width="260" height="104" rx="14" fill="url(#es-dots)"/>
      <rect width="260" height="104" rx="14" fill="none" stroke="#2A121B" stroke-opacity="0.12" stroke-width="1"/>
      <text x="36" y="52" text-anchor="middle" dominant-baseline="central" font-size="22" font-weight="900" fill="#B45309">10×</text>
      <text x="74" y="40" font-size="19" font-weight="900" letter-spacing="-0.01em" fill="#B45309">Fewer LLM calls</text>
      <text x="74" y="62" font-size="12" font-weight="500" fill="#2A121B" fill-opacity="0.72">vs. full recompute</text>
      <text x="74" y="84" font-family="JetBrains Mono, ui-monospace, monospace" font-size="9" letter-spacing="0.18em" font-weight="700" fill="#B45309">Δ ONLY · CACHED</text>
    </g>
    <!-- Tile 3: 100% lineage — brand emerald -->
    <g transform="translate(560, 0)">
      <rect width="260" height="104" rx="14" fill="url(#es-dots)"/>
      <rect width="260" height="104" rx="14" fill="none" stroke="#2A121B" stroke-opacity="0.12" stroke-width="1"/>
      <text x="36" y="52" text-anchor="middle" dominant-baseline="central" font-size="20" font-weight="900" fill="#0A7F4A">100%</text>
      <text x="80" y="40" font-size="19" font-weight="900" letter-spacing="-0.01em" fill="#0A7F4A">Lineage coverage</text>
      <text x="80" y="62" font-size="12" font-weight="500" fill="#2A121B" fill-opacity="0.72">every byte traceable</text>
      <text x="80" y="84" font-family="JetBrains Mono, ui-monospace, monospace" font-size="9" letter-spacing="0.18em" font-weight="700" fill="#0A7F4A">END-TO-END</text>
    </g>
    <!-- Tile 4: Δ only — brand maroon -->
    <g transform="translate(840, 0)">
      <rect width="260" height="104" rx="14" fill="url(#es-dots)"/>
      <rect width="260" height="104" rx="14" fill="none" stroke="#2A121B" stroke-opacity="0.12" stroke-width="1"/>
      <text x="36" y="52" text-anchor="middle" dominant-baseline="central" font-size="26" font-weight="900" fill="#532638">Δ</text>
      <text x="74" y="40" font-size="19" font-weight="900" letter-spacing="-0.01em" fill="#532638">Delta only</text>
      <text x="74" y="62" font-size="12" font-weight="500" fill="#2A121B" fill-opacity="0.72">always — never full</text>
      <text x="74" y="84" font-family="JetBrains Mono, ui-monospace, monospace" font-size="9" letter-spacing="0.18em" font-weight="700" fill="#532638">FRESH · LIVE</text>
    </g>
  </g>

  <!-- CORPUS MATRIX · 50×8 -->
  <g transform="translate(74, 260)">
    <text x="0" y="0" font-family="JetBrains Mono, ui-monospace, monospace" font-size="10" letter-spacing="0.2em" font-weight="800" fill="#2A121B" fill-opacity="0.6">CORPUS · 400 TILES · PB-SCALE</text>
    <text x="1052" y="0" text-anchor="end" font-family="JetBrains Mono, ui-monospace, monospace" font-size="10" letter-spacing="0.2em" font-weight="800" fill="#BE5133">Δ SLICE · 8 TILES · 0.1%</text>
  </g>

  <!-- 50 columns × 8 rows. cached = ink @ 0.08 (dormant tiles); Δ column at col 12 = brand coral, pulsing -->
  <g fill="#2A121B" fill-opacity="0.08">
    <g transform="translate(74, 290)">
      <!-- row 0 -->
      <g>
        <rect x="0"    y="0" width="6" height="6" rx="1"/><rect x="21"   y="0" width="6" height="6" rx="1"/><rect x="42"   y="0" width="6" height="6" rx="1"/><rect x="63"   y="0" width="6" height="6" rx="1"/><rect x="84"   y="0" width="6" height="6" rx="1"/><rect x="105"  y="0" width="6" height="6" rx="1"/><rect x="126"  y="0" width="6" height="6" rx="1"/><rect x="147"  y="0" width="6" height="6" rx="1"/><rect x="168"  y="0" width="6" height="6" rx="1"/><rect x="189"  y="0" width="6" height="6" rx="1"/><rect x="210"  y="0" width="6" height="6" rx="1"/><rect x="231"  y="0" width="6" height="6" rx="1"/><rect class="pulse" x="252" y="0" width="6" height="6" rx="1" fill="#BE5133" fill-opacity="1"/><rect x="273"  y="0" width="6" height="6" rx="1"/><rect x="294"  y="0" width="6" height="6" rx="1"/><rect x="315"  y="0" width="6" height="6" rx="1"/><rect x="336"  y="0" width="6" height="6" rx="1"/><rect x="357"  y="0" width="6" height="6" rx="1"/><rect x="378"  y="0" width="6" height="6" rx="1"/><rect x="399"  y="0" width="6" height="6" rx="1"/><rect x="420"  y="0" width="6" height="6" rx="1"/><rect x="441"  y="0" width="6" height="6" rx="1"/><rect x="462"  y="0" width="6" height="6" rx="1"/><rect x="483"  y="0" width="6" height="6" rx="1"/><rect x="504"  y="0" width="6" height="6" rx="1"/><rect x="525"  y="0" width="6" height="6" rx="1"/><rect x="546"  y="0" width="6" height="6" rx="1"/><rect x="567"  y="0" width="6" height="6" rx="1"/><rect x="588"  y="0" width="6" height="6" rx="1"/><rect x="609"  y="0" width="6" height="6" rx="1"/><rect x="630"  y="0" width="6" height="6" rx="1"/><rect x="651"  y="0" width="6" height="6" rx="1"/><rect x="672"  y="0" width="6" height="6" rx="1"/><rect x="693"  y="0" width="6" height="6" rx="1"/><rect x="714"  y="0" width="6" height="6" rx="1"/><rect x="735"  y="0" width="6" height="6" rx="1"/><rect x="756"  y="0" width="6" height="6" rx="1"/><rect x="777"  y="0" width="6" height="6" rx="1"/><rect x="798"  y="0" width="6" height="6" rx="1"/><rect x="819"  y="0" width="6" height="6" rx="1"/><rect x="840"  y="0" width="6" height="6" rx="1"/><rect x="861"  y="0" width="6" height="6" rx="1"/><rect x="882"  y="0" width="6" height="6" rx="1"/><rect x="903"  y="0" width="6" height="6" rx="1"/><rect x="924"  y="0" width="6" height="6" rx="1"/><rect x="945"  y="0" width="6" height="6" rx="1"/><rect x="966"  y="0" width="6" height="6" rx="1"/><rect x="987"  y="0" width="6" height="6" rx="1"/><rect x="1008" y="0" width="6" height="6" rx="1"/><rect x="1029" y="0" width="6" height="6" rx="1"/>
      </g>
      <!-- row 1 -->
      <g transform="translate(0, 16)">
        <rect x="0"    y="0" width="6" height="6" rx="1"/><rect x="21"   y="0" width="6" height="6" rx="1"/><rect x="42"   y="0" width="6" height="6" rx="1"/><rect x="63"   y="0" width="6" height="6" rx="1"/><rect x="84"   y="0" width="6" height="6" rx="1"/><rect x="105"  y="0" width="6" height="6" rx="1"/><rect x="126"  y="0" width="6" height="6" rx="1"/><rect x="147"  y="0" width="6" height="6" rx="1"/><rect x="168"  y="0" width="6" height="6" rx="1"/><rect x="189"  y="0" width="6" height="6" rx="1"/><rect x="210"  y="0" width="6" height="6" rx="1"/><rect x="231"  y="0" width="6" height="6" rx="1"/><rect class="pulse" x="252" y="0" width="6" height="6" rx="1" fill="#BE5133" fill-opacity="1" style="animation-delay:0.1s"/><rect x="273"  y="0" width="6" height="6" rx="1"/><rect x="294"  y="0" width="6" height="6" rx="1"/><rect x="315"  y="0" width="6" height="6" rx="1"/><rect x="336"  y="0" width="6" height="6" rx="1"/><rect x="357"  y="0" width="6" height="6" rx="1"/><rect x="378"  y="0" width="6" height="6" rx="1"/><rect x="399"  y="0" width="6" height="6" rx="1"/><rect x="420"  y="0" width="6" height="6" rx="1"/><rect x="441"  y="0" width="6" height="6" rx="1"/><rect x="462"  y="0" width="6" height="6" rx="1"/><rect x="483"  y="0" width="6" height="6" rx="1"/><rect x="504"  y="0" width="6" height="6" rx="1"/><rect x="525"  y="0" width="6" height="6" rx="1"/><rect x="546"  y="0" width="6" height="6" rx="1"/><rect x="567"  y="0" width="6" height="6" rx="1"/><rect x="588"  y="0" width="6" height="6" rx="1"/><rect x="609"  y="0" width="6" height="6" rx="1"/><rect x="630"  y="0" width="6" height="6" rx="1"/><rect x="651"  y="0" width="6" height="6" rx="1"/><rect x="672"  y="0" width="6" height="6" rx="1"/><rect x="693"  y="0" width="6" height="6" rx="1"/><rect x="714"  y="0" width="6" height="6" rx="1"/><rect x="735"  y="0" width="6" height="6" rx="1"/><rect x="756"  y="0" width="6" height="6" rx="1"/><rect x="777"  y="0" width="6" height="6" rx="1"/><rect x="798"  y="0" width="6" height="6" rx="1"/><rect x="819"  y="0" width="6" height="6" rx="1"/><rect x="840"  y="0" width="6" height="6" rx="1"/><rect x="861"  y="0" width="6" height="6" rx="1"/><rect x="882"  y="0" width="6" height="6" rx="1"/><rect x="903"  y="0" width="6" height="6" rx="1"/><rect x="924"  y="0" width="6" height="6" rx="1"/><rect x="945"  y="0" width="6" height="6" rx="1"/><rect x="966"  y="0" width="6" height="6" rx="1"/><rect x="987"  y="0" width="6" height="6" rx="1"/><rect x="1008" y="0" width="6" height="6" rx="1"/><rect x="1029" y="0" width="6" height="6" rx="1"/>
      </g>
      <!-- row 2 -->
      <g transform="translate(0, 32)">
        <rect x="0"    y="0" width="6" height="6" rx="1"/><rect x="21"   y="0" width="6" height="6" rx="1"/><rect x="42"   y="0" width="6" height="6" rx="1"/><rect x="63"   y="0" width="6" height="6" rx="1"/><rect x="84"   y="0" width="6" height="6" rx="1"/><rect x="105"  y="0" width="6" height="6" rx="1"/><rect x="126"  y="0" width="6" height="6" rx="1"/><rect x="147"  y="0" width="6" height="6" rx="1"/><rect x="168"  y="0" width="6" height="6" rx="1"/><rect x="189"  y="0" width="6" height="6" rx="1"/><rect x="210"  y="0" width="6" height="6" rx="1"/><rect x="231"  y="0" width="6" height="6" rx="1"/><rect class="pulse" x="252" y="0" width="6" height="6" rx="1" fill="#BE5133" fill-opacity="1" style="animation-delay:0.2s"/><rect x="273"  y="0" width="6" height="6" rx="1"/><rect x="294"  y="0" width="6" height="6" rx="1"/><rect x="315"  y="0" width="6" height="6" rx="1"/><rect x="336"  y="0" width="6" height="6" rx="1"/><rect x="357"  y="0" width="6" height="6" rx="1"/><rect x="378"  y="0" width="6" height="6" rx="1"/><rect x="399"  y="0" width="6" height="6" rx="1"/><rect x="420"  y="0" width="6" height="6" rx="1"/><rect x="441"  y="0" width="6" height="6" rx="1"/><rect x="462"  y="0" width="6" height="6" rx="1"/><rect x="483"  y="0" width="6" height="6" rx="1"/><rect x="504"  y="0" width="6" height="6" rx="1"/><rect x="525"  y="0" width="6" height="6" rx="1"/><rect x="546"  y="0" width="6" height="6" rx="1"/><rect x="567"  y="0" width="6" height="6" rx="1"/><rect x="588"  y="0" width="6" height="6" rx="1"/><rect x="609"  y="0" width="6" height="6" rx="1"/><rect x="630"  y="0" width="6" height="6" rx="1"/><rect x="651"  y="0" width="6" height="6" rx="1"/><rect x="672"  y="0" width="6" height="6" rx="1"/><rect x="693"  y="0" width="6" height="6" rx="1"/><rect x="714"  y="0" width="6" height="6" rx="1"/><rect x="735"  y="0" width="6" height="6" rx="1"/><rect x="756"  y="0" width="6" height="6" rx="1"/><rect x="777"  y="0" width="6" height="6" rx="1"/><rect x="798"  y="0" width="6" height="6" rx="1"/><rect x="819"  y="0" width="6" height="6" rx="1"/><rect x="840"  y="0" width="6" height="6" rx="1"/><rect x="861"  y="0" width="6" height="6" rx="1"/><rect x="882"  y="0" width="6" height="6" rx="1"/><rect x="903"  y="0" width="6" height="6" rx="1"/><rect x="924"  y="0" width="6" height="6" rx="1"/><rect x="945"  y="0" width="6" height="6" rx="1"/><rect x="966"  y="0" width="6" height="6" rx="1"/><rect x="987"  y="0" width="6" height="6" rx="1"/><rect x="1008" y="0" width="6" height="6" rx="1"/><rect x="1029" y="0" width="6" height="6" rx="1"/>
      </g>
      <!-- row 3 -->
      <g transform="translate(0, 48)">
        <rect x="0"    y="0" width="6" height="6" rx="1"/><rect x="21"   y="0" width="6" height="6" rx="1"/><rect x="42"   y="0" width="6" height="6" rx="1"/><rect x="63"   y="0" width="6" height="6" rx="1"/><rect x="84"   y="0" width="6" height="6" rx="1"/><rect x="105"  y="0" width="6" height="6" rx="1"/><rect x="126"  y="0" width="6" height="6" rx="1"/><rect x="147"  y="0" width="6" height="6" rx="1"/><rect x="168"  y="0" width="6" height="6" rx="1"/><rect x="189"  y="0" width="6" height="6" rx="1"/><rect x="210"  y="0" width="6" height="6" rx="1"/><rect x="231"  y="0" width="6" height="6" rx="1"/><rect class="pulse" x="252" y="0" width="6" height="6" rx="1" fill="#BE5133" fill-opacity="1" style="animation-delay:0.3s"/><rect x="273"  y="0" width="6" height="6" rx="1"/><rect x="294"  y="0" width="6" height="6" rx="1"/><rect x="315"  y="0" width="6" height="6" rx="1"/><rect x="336"  y="0" width="6" height="6" rx="1"/><rect x="357"  y="0" width="6" height="6" rx="1"/><rect x="378"  y="0" width="6" height="6" rx="1"/><rect x="399"  y="0" width="6" height="6" rx="1"/><rect x="420"  y="0" width="6" height="6" rx="1"/><rect x="441"  y="0" width="6" height="6" rx="1"/><rect x="462"  y="0" width="6" height="6" rx="1"/><rect x="483"  y="0" width="6" height="6" rx="1"/><rect x="504"  y="0" width="6" height="6" rx="1"/><rect x="525"  y="0" width="6" height="6" rx="1"/><rect x="546"  y="0" width="6" height="6" rx="1"/><rect x="567"  y="0" width="6" height="6" rx="1"/><rect x="588"  y="0" width="6" height="6" rx="1"/><rect x="609"  y="0" width="6" height="6" rx="1"/><rect x="630"  y="0" width="6" height="6" rx="1"/><rect x="651"  y="0" width="6" height="6" rx="1"/><rect x="672"  y="0" width="6" height="6" rx="1"/><rect x="693"  y="0" width="6" height="6" rx="1"/><rect x="714"  y="0" width="6" height="6" rx="1"/><rect x="735"  y="0" width="6" height="6" rx="1"/><rect x="756"  y="0" width="6" height="6" rx="1"/><rect x="777"  y="0" width="6" height="6" rx="1"/><rect x="798"  y="0" width="6" height="6" rx="1"/><rect x="819"  y="0" width="6" height="6" rx="1"/><rect x="840"  y="0" width="6" height="6" rx="1"/><rect x="861"  y="0" width="6" height="6" rx="1"/><rect x="882"  y="0" width="6" height="6" rx="1"/><rect x="903"  y="0" width="6" height="6" rx="1"/><rect x="924"  y="0" width="6" height="6" rx="1"/><rect x="945"  y="0" width="6" height="6" rx="1"/><rect x="966"  y="0" width="6" height="6" rx="1"/><rect x="987"  y="0" width="6" height="6" rx="1"/><rect x="1008" y="0" width="6" height="6" rx="1"/><rect x="1029" y="0" width="6" height="6" rx="1"/>
      </g>
      <!-- row 4 -->
      <g transform="translate(0, 64)">
        <rect x="0"    y="0" width="6" height="6" rx="1"/><rect x="21"   y="0" width="6" height="6" rx="1"/><rect x="42"   y="0" width="6" height="6" rx="1"/><rect x="63"   y="0" width="6" height="6" rx="1"/><rect x="84"   y="0" width="6" height="6" rx="1"/><rect x="105"  y="0" width="6" height="6" rx="1"/><rect x="126"  y="0" width="6" height="6" rx="1"/><rect x="147"  y="0" width="6" height="6" rx="1"/><rect x="168"  y="0" width="6" height="6" rx="1"/><rect x="189"  y="0" width="6" height="6" rx="1"/><rect x="210"  y="0" width="6" height="6" rx="1"/><rect x="231"  y="0" width="6" height="6" rx="1"/><rect class="pulse" x="252" y="0" width="6" height="6" rx="1" fill="#BE5133" fill-opacity="1" style="animation-delay:0.4s"/><rect x="273"  y="0" width="6" height="6" rx="1"/><rect x="294"  y="0" width="6" height="6" rx="1"/><rect x="315"  y="0" width="6" height="6" rx="1"/><rect x="336"  y="0" width="6" height="6" rx="1"/><rect x="357"  y="0" width="6" height="6" rx="1"/><rect x="378"  y="0" width="6" height="6" rx="1"/><rect x="399"  y="0" width="6" height="6" rx="1"/><rect x="420"  y="0" width="6" height="6" rx="1"/><rect x="441"  y="0" width="6" height="6" rx="1"/><rect x="462"  y="0" width="6" height="6" rx="1"/><rect x="483"  y="0" width="6" height="6" rx="1"/><rect x="504"  y="0" width="6" height="6" rx="1"/><rect x="525"  y="0" width="6" height="6" rx="1"/><rect x="546"  y="0" width="6" height="6" rx="1"/><rect x="567"  y="0" width="6" height="6" rx="1"/><rect x="588"  y="0" width="6" height="6" rx="1"/><rect x="609"  y="0" width="6" height="6" rx="1"/><rect x="630"  y="0" width="6" height="6" rx="1"/><rect x="651"  y="0" width="6" height="6" rx="1"/><rect x="672"  y="0" width="6" height="6" rx="1"/><rect x="693"  y="0" width="6" height="6" rx="1"/><rect x="714"  y="0" width="6" height="6" rx="1"/><rect x="735"  y="0" width="6" height="6" rx="1"/><rect x="756"  y="0" width="6" height="6" rx="1"/><rect x="777"  y="0" width="6" height="6" rx="1"/><rect x="798"  y="0" width="6" height="6" rx="1"/><rect x="819"  y="0" width="6" height="6" rx="1"/><rect x="840"  y="0" width="6" height="6" rx="1"/><rect x="861"  y="0" width="6" height="6" rx="1"/><rect x="882"  y="0" width="6" height="6" rx="1"/><rect x="903"  y="0" width="6" height="6" rx="1"/><rect x="924"  y="0" width="6" height="6" rx="1"/><rect x="945"  y="0" width="6" height="6" rx="1"/><rect x="966"  y="0" width="6" height="6" rx="1"/><rect x="987"  y="0" width="6" height="6" rx="1"/><rect x="1008" y="0" width="6" height="6" rx="1"/><rect x="1029" y="0" width="6" height="6" rx="1"/>
      </g>
      <!-- row 5 -->
      <g transform="translate(0, 80)">
        <rect x="0"    y="0" width="6" height="6" rx="1"/><rect x="21"   y="0" width="6" height="6" rx="1"/><rect x="42"   y="0" width="6" height="6" rx="1"/><rect x="63"   y="0" width="6" height="6" rx="1"/><rect x="84"   y="0" width="6" height="6" rx="1"/><rect x="105"  y="0" width="6" height="6" rx="1"/><rect x="126"  y="0" width="6" height="6" rx="1"/><rect x="147"  y="0" width="6" height="6" rx="1"/><rect x="168"  y="0" width="6" height="6" rx="1"/><rect x="189"  y="0" width="6" height="6" rx="1"/><rect x="210"  y="0" width="6" height="6" rx="1"/><rect x="231"  y="0" width="6" height="6" rx="1"/><rect class="pulse" x="252" y="0" width="6" height="6" rx="1" fill="#BE5133" fill-opacity="1" style="animation-delay:0.5s"/><rect x="273"  y="0" width="6" height="6" rx="1"/><rect x="294"  y="0" width="6" height="6" rx="1"/><rect x="315"  y="0" width="6" height="6" rx="1"/><rect x="336"  y="0" width="6" height="6" rx="1"/><rect x="357"  y="0" width="6" height="6" rx="1"/><rect x="378"  y="0" width="6" height="6" rx="1"/><rect x="399"  y="0" width="6" height="6" rx="1"/><rect x="420"  y="0" width="6" height="6" rx="1"/><rect x="441"  y="0" width="6" height="6" rx="1"/><rect x="462"  y="0" width="6" height="6" rx="1"/><rect x="483"  y="0" width="6" height="6" rx="1"/><rect x="504"  y="0" width="6" height="6" rx="1"/><rect x="525"  y="0" width="6" height="6" rx="1"/><rect x="546"  y="0" width="6" height="6" rx="1"/><rect x="567"  y="0" width="6" height="6" rx="1"/><rect x="588"  y="0" width="6" height="6" rx="1"/><rect x="609"  y="0" width="6" height="6" rx="1"/><rect x="630"  y="0" width="6" height="6" rx="1"/><rect x="651"  y="0" width="6" height="6" rx="1"/><rect x="672"  y="0" width="6" height="6" rx="1"/><rect x="693"  y="0" width="6" height="6" rx="1"/><rect x="714"  y="0" width="6" height="6" rx="1"/><rect x="735"  y="0" width="6" height="6" rx="1"/><rect x="756"  y="0" width="6" height="6" rx="1"/><rect x="777"  y="0" width="6" height="6" rx="1"/><rect x="798"  y="0" width="6" height="6" rx="1"/><rect x="819"  y="0" width="6" height="6" rx="1"/><rect x="840"  y="0" width="6" height="6" rx="1"/><rect x="861"  y="0" width="6" height="6" rx="1"/><rect x="882"  y="0" width="6" height="6" rx="1"/><rect x="903"  y="0" width="6" height="6" rx="1"/><rect x="924"  y="0" width="6" height="6" rx="1"/><rect x="945"  y="0" width="6" height="6" rx="1"/><rect x="966"  y="0" width="6" height="6" rx="1"/><rect x="987"  y="0" width="6" height="6" rx="1"/><rect x="1008" y="0" width="6" height="6" rx="1"/><rect x="1029" y="0" width="6" height="6" rx="1"/>
      </g>
      <!-- row 6 -->
      <g transform="translate(0, 96)">
        <rect x="0"    y="0" width="6" height="6" rx="1"/><rect x="21"   y="0" width="6" height="6" rx="1"/><rect x="42"   y="0" width="6" height="6" rx="1"/><rect x="63"   y="0" width="6" height="6" rx="1"/><rect x="84"   y="0" width="6" height="6" rx="1"/><rect x="105"  y="0" width="6" height="6" rx="1"/><rect x="126"  y="0" width="6" height="6" rx="1"/><rect x="147"  y="0" width="6" height="6" rx="1"/><rect x="168"  y="0" width="6" height="6" rx="1"/><rect x="189"  y="0" width="6" height="6" rx="1"/><rect x="210"  y="0" width="6" height="6" rx="1"/><rect x="231"  y="0" width="6" height="6" rx="1"/><rect class="pulse" x="252" y="0" width="6" height="6" rx="1" fill="#BE5133" fill-opacity="1" style="animation-delay:0.6s"/><rect x="273"  y="0" width="6" height="6" rx="1"/><rect x="294"  y="0" width="6" height="6" rx="1"/><rect x="315"  y="0" width="6" height="6" rx="1"/><rect x="336"  y="0" width="6" height="6" rx="1"/><rect x="357"  y="0" width="6" height="6" rx="1"/><rect x="378"  y="0" width="6" height="6" rx="1"/><rect x="399"  y="0" width="6" height="6" rx="1"/><rect x="420"  y="0" width="6" height="6" rx="1"/><rect x="441"  y="0" width="6" height="6" rx="1"/><rect x="462"  y="0" width="6" height="6" rx="1"/><rect x="483"  y="0" width="6" height="6" rx="1"/><rect x="504"  y="0" width="6" height="6" rx="1"/><rect x="525"  y="0" width="6" height="6" rx="1"/><rect x="546"  y="0" width="6" height="6" rx="1"/><rect x="567"  y="0" width="6" height="6" rx="1"/><rect x="588"  y="0" width="6" height="6" rx="1"/><rect x="609"  y="0" width="6" height="6" rx="1"/><rect x="630"  y="0" width="6" height="6" rx="1"/><rect x="651"  y="0" width="6" height="6" rx="1"/><rect x="672"  y="0" width="6" height="6" rx="1"/><rect x="693"  y="0" width="6" height="6" rx="1"/><rect x="714"  y="0" width="6" height="6" rx="1"/><rect x="735"  y="0" width="6" height="6" rx="1"/><rect x="756"  y="0" width="6" height="6" rx="1"/><rect x="777"  y="0" width="6" height="6" rx="1"/><rect x="798"  y="0" width="6" height="6" rx="1"/><rect x="819"  y="0" width="6" height="6" rx="1"/><rect x="840"  y="0" width="6" height="6" rx="1"/><rect x="861"  y="0" width="6" height="6" rx="1"/><rect x="882"  y="0" width="6" height="6" rx="1"/><rect x="903"  y="0" width="6" height="6" rx="1"/><rect x="924"  y="0" width="6" height="6" rx="1"/><rect x="945"  y="0" width="6" height="6" rx="1"/><rect x="966"  y="0" width="6" height="6" rx="1"/><rect x="987"  y="0" width="6" height="6" rx="1"/><rect x="1008" y="0" width="6" height="6" rx="1"/><rect x="1029" y="0" width="6" height="6" rx="1"/>
      </g>
      <!-- row 7 -->
      <g transform="translate(0, 112)">
        <rect x="0"    y="0" width="6" height="6" rx="1"/><rect x="21"   y="0" width="6" height="6" rx="1"/><rect x="42"   y="0" width="6" height="6" rx="1"/><rect x="63"   y="0" width="6" height="6" rx="1"/><rect x="84"   y="0" width="6" height="6" rx="1"/><rect x="105"  y="0" width="6" height="6" rx="1"/><rect x="126"  y="0" width="6" height="6" rx="1"/><rect x="147"  y="0" width="6" height="6" rx="1"/><rect x="168"  y="0" width="6" height="6" rx="1"/><rect x="189"  y="0" width="6" height="6" rx="1"/><rect x="210"  y="0" width="6" height="6" rx="1"/><rect x="231"  y="0" width="6" height="6" rx="1"/><rect class="pulse" x="252" y="0" width="6" height="6" rx="1" fill="#BE5133" fill-opacity="1" style="animation-delay:0.7s"/><rect x="273"  y="0" width="6" height="6" rx="1"/><rect x="294"  y="0" width="6" height="6" rx="1"/><rect x="315"  y="0" width="6" height="6" rx="1"/><rect x="336"  y="0" width="6" height="6" rx="1"/><rect x="357"  y="0" width="6" height="6" rx="1"/><rect x="378"  y="0" width="6" height="6" rx="1"/><rect x="399"  y="0" width="6" height="6" rx="1"/><rect x="420"  y="0" width="6" height="6" rx="1"/><rect x="441"  y="0" width="6" height="6" rx="1"/><rect x="462"  y="0" width="6" height="6" rx="1"/><rect x="483"  y="0" width="6" height="6" rx="1"/><rect x="504"  y="0" width="6" height="6" rx="1"/><rect x="525"  y="0" width="6" height="6" rx="1"/><rect x="546"  y="0" width="6" height="6" rx="1"/><rect x="567"  y="0" width="6" height="6" rx="1"/><rect x="588"  y="0" width="6" height="6" rx="1"/><rect x="609"  y="0" width="6" height="6" rx="1"/><rect x="630"  y="0" width="6" height="6" rx="1"/><rect x="651"  y="0" width="6" height="6" rx="1"/><rect x="672"  y="0" width="6" height="6" rx="1"/><rect x="693"  y="0" width="6" height="6" rx="1"/><rect x="714"  y="0" width="6" height="6" rx="1"/><rect x="735"  y="0" width="6" height="6" rx="1"/><rect x="756"  y="0" width="6" height="6" rx="1"/><rect x="777"  y="0" width="6" height="6" rx="1"/><rect x="798"  y="0" width="6" height="6" rx="1"/><rect x="819"  y="0" width="6" height="6" rx="1"/><rect x="840"  y="0" width="6" height="6" rx="1"/><rect x="861"  y="0" width="6" height="6" rx="1"/><rect x="882"  y="0" width="6" height="6" rx="1"/><rect x="903"  y="0" width="6" height="6" rx="1"/><rect x="924"  y="0" width="6" height="6" rx="1"/><rect x="945"  y="0" width="6" height="6" rx="1"/><rect x="966"  y="0" width="6" height="6" rx="1"/><rect x="987"  y="0" width="6" height="6" rx="1"/><rect x="1008" y="0" width="6" height="6" rx="1"/><rect x="1029" y="0" width="6" height="6" rx="1"/>
      </g>
    </g>
  </g>

  <!-- Footer tagline -->
  <text x="600" y="434" text-anchor="middle" font-family="Inter, -apple-system, system-ui, sans-serif" font-size="13" font-style="italic" fill="#2A121B" fill-opacity="0.6">
    Only the Δ is reprocessed — the other 99.9% stays cached. Production-ready at petabyte scale.
  </text>
</svg>
