<svg width="1200" height="200" viewBox="0 0 1200 200" fill="none" xmlns="http://www.w3.org/2000/svg">
<path d="M335.208 39.6639C338.177 43.8362 337.923 46.7859 337.923 46.7859L336.073 45.2636L334.424 43.9359L330.94 41.0096L327.933 38.3288C327.933 38.3288 326.428 36.963 325.848 36.5268C325.269 36.0906 325.983 34.5014 327.268 33.9485C328.552 33.3957 329.785 34.4106 329.785 34.4106C329.785 34.4106 332.239 35.4917 335.208 39.6639Z" fill="#532638"/>
<path d="M350.916 33.5142C338.252 41.3299 334.395 46.7924 329.497 57.1969C329.497 57.1969 359.234 69.4765 362.376 69.4765C365.518 69.4765 373.285 69.4413 379.712 64.601C386.139 59.761 391.91 50.2316 396.865 39.1663C386.367 31.298 382.675 28.1925 369 28C361.777 28.3622 356.641 30.2712 350.916 33.5142Z" fill="#27E62B" fill-opacity="0.75"/>
<path d="M365.539 37.3642C365.362 39.5415 363.258 41.1451 360.839 40.9458C358.42 40.7466 356.603 38.8201 356.78 36.6428C356.958 34.4655 359.062 32.862 361.481 33.0612C363.899 33.2604 365.716 35.1869 365.539 37.3642Z" fill="#F6F4E9"/>
<path d="M388.638 105.761C388.638 135.316 364.875 159.161 335.704 159.161C306.532 159.161 282.77 135.316 282.77 105.761C282.77 76.2058 306.532 52.3613 335.704 52.3613C364.875 52.3613 388.638 76.2058 388.638 105.761Z" fill="#532638" stroke="#532638" stroke-width="8"/>
<path d="M301.758 129.036C301.474 128.776 303.639 136.196 307.54 141.859C311.441 147.521 316.625 149.04 316.625 149.04" stroke="#6A1E23" stroke-width="7" stroke-linecap="round"/>
<path d="M332.16 130.891C331.05 136.708 332.16 148.145 335.704 151.366" stroke="#591D2E" stroke-width="8" stroke-linecap="round"/>
<path d="M377.586 121.118C377.12 131.123 374.096 139.034 372.467 141.361" stroke="#591D2E" stroke-width="8" stroke-linecap="round"/>
<path d="M304.06 56.8988C295.192 62.7661 288.415 69.6961 284.088 80.3993C279.761 91.1026 290.962 106.748 305.96 114.603C320.415 121.08 328.514 121.767 342.956 120.885C355.562 119.737 365.293 116.93 374.6 109.717C383.907 102.504 391.818 88.3104 387.397 79.236C382.976 70.1615 377.857 63.6465 367.852 57.1315C357.847 50.6165 346.64 47.5918 334.812 47.5918C322.577 47.6597 314.259 50.1511 304.06 56.8988Z" fill="#FCF3D8"/>
<path d="M307.895 60.3607C300.15 65.1833 294.232 70.8793 290.454 79.6766C286.675 88.4739 296.456 101.333 309.554 107.79C322.178 113.113 329.251 113.678 341.863 112.953C352.871 112.009 361.37 109.702 369.497 103.773C377.625 97.8447 384.534 86.1788 380.673 78.7203C376.813 71.2618 372.342 65.9069 363.605 60.552C354.867 55.1973 345.08 52.7109 334.751 52.7109C324.066 52.7667 316.802 54.8147 307.895 60.3607Z" fill="#E59A63"/>
<path d="M311.98 67.4973C315.147 66.9297 317.531 65.4442 317.304 64.1793C317.078 62.9144 314.326 62.3491 311.159 62.9167C307.992 63.4842 305.608 64.9697 305.834 66.2346C306.061 67.4995 308.812 68.0648 311.98 67.4973Z" fill="#401D30"/>
<path d="M360.166 67.2114C363.355 67.6359 366.079 66.9473 366.248 65.6735C366.418 64.3996 363.969 63.023 360.779 62.5985C357.59 62.1741 354.867 62.8627 354.697 64.1365C354.528 65.4103 356.976 66.787 360.166 67.2114Z" fill="#401D30"/>
<path d="M304.059 101.573C307.915 101.573 311.04 99.9064 311.04 97.8503C311.04 95.7942 307.915 94.1274 304.059 94.1274C300.204 94.1274 297.079 95.7942 297.079 97.8503C297.079 99.9064 300.204 101.573 304.059 101.573Z" fill="#FB6A76"/>
<path d="M367.813 101.573C371.668 101.573 374.794 99.9064 374.794 97.8503C374.794 95.7942 371.668 94.1274 367.813 94.1274C363.958 94.1274 360.833 95.7942 360.833 97.8503C360.833 99.9064 363.958 101.573 367.813 101.573Z" fill="#FB6A76"/>
<path d="M311.971 93.6622C317.882 93.6622 322.674 88.8702 322.674 82.959C322.674 77.0478 317.882 72.2559 311.971 72.2559C306.06 72.2559 301.268 77.0478 301.268 82.959C301.268 88.8702 306.06 93.6622 311.971 93.6622Z" fill="#401D30"/>
<path d="M309.238 82.7407C311.628 82.7407 313.565 81.0781 313.565 79.0273C313.565 76.9765 311.628 75.314 309.238 75.314C306.848 75.314 304.911 76.9765 304.911 79.0273C304.911 81.0781 306.848 82.7407 309.238 82.7407Z" fill="#F6F4E9"/>
<path d="M359.437 93.6622C365.348 93.6622 370.14 88.8702 370.14 82.959C370.14 77.0478 365.348 72.2559 359.437 72.2559C353.525 72.2559 348.733 77.0478 348.733 82.959C348.733 88.8702 353.525 93.6622 359.437 93.6622Z" fill="#401D30"/>
<path d="M356.704 82.7407C359.093 82.7407 361.031 81.0781 361.031 79.0273C361.031 76.9765 359.093 75.314 356.704 75.314C354.314 75.314 352.377 76.9765 352.377 79.0273C352.377 81.0781 354.314 82.7407 356.704 82.7407Z" fill="#F6F4E9"/>
<path d="M328.723 87.147C329.18 94.7002 342.683 94.4843 342.683 87.147" stroke="#532638" stroke-width="7" stroke-linecap="round"/>
<path d="M335.704 163C367.573 163 393.408 137.165 393.408 105.296C393.408 73.4268 367.573 47.5918 335.704 47.5918C303.835 47.5918 278 73.4268 278 105.296C278 137.165 303.835 163 335.704 163Z" fill="#BE5133"/>
<path d="M304.055 56.8892C295.176 62.7502 288.391 69.6733 284.059 80.3652C279.727 91.0574 290.941 106.687 305.957 114.533C320.43 121.004 328.539 121.69 342.998 120.809C355.619 119.662 365.362 116.858 374.68 109.652C383.998 102.447 391.919 88.268 387.493 79.2031C383.066 70.138 377.941 63.6299 367.924 57.1216C357.907 50.6134 346.687 47.5918 334.844 47.5918C322.594 47.6594 314.267 50.1487 304.055 56.8892Z" fill="#FCF3D8"/>
<path d="M307.895 60.3607C300.15 65.1833 294.232 70.8793 290.454 79.6766C286.675 88.4739 296.456 101.333 309.554 107.79C322.178 113.113 329.251 113.678 341.863 112.953C352.871 112.009 361.37 109.702 369.497 103.773C377.625 97.8447 384.534 86.1788 380.673 78.7203C376.813 71.2618 372.342 65.9069 363.605 60.552C354.867 55.1973 345.08 52.7109 334.751 52.7109C324.066 52.7667 316.802 54.8147 307.895 60.3607Z" fill="#E59A63"/>
<path d="M311.98 67.4973C315.147 66.9297 317.531 65.4442 317.304 64.1793C317.078 62.9144 314.326 62.3491 311.159 62.9167C307.992 63.4842 305.608 64.9697 305.834 66.2346C306.061 67.4995 308.812 68.0648 311.98 67.4973Z" fill="#401D30"/>
<path d="M360.166 67.2114C363.355 67.6359 366.079 66.9473 366.248 65.6735C366.418 64.3996 363.969 63.023 360.779 62.5985C357.59 62.1741 354.867 62.8627 354.697 64.1365C354.528 65.4103 356.976 66.787 360.166 67.2114Z" fill="#401D30"/>
<path d="M304.059 101.573C307.915 101.573 311.04 99.9064 311.04 97.8503C311.04 95.7942 307.915 94.1274 304.059 94.1274C300.204 94.1274 297.079 95.7942 297.079 97.8503C297.079 99.9064 300.204 101.573 304.059 101.573Z" fill="#FB6A76"/>
<path d="M367.813 101.573C371.668 101.573 374.794 99.9064 374.794 97.8503C374.794 95.7942 371.668 94.1274 367.813 94.1274C363.958 94.1274 360.833 95.7942 360.833 97.8503C360.833 99.9064 363.958 101.573 367.813 101.573Z" fill="#FB6A76"/>
<path d="M311.971 93.6622C317.882 93.6622 322.674 88.8702 322.674 82.959C322.674 77.0478 317.882 72.2559 311.971 72.2559C306.06 72.2559 301.268 77.0478 301.268 82.959C301.268 88.8702 306.06 93.6622 311.971 93.6622Z" fill="#401D30"/>
<path d="M309.238 82.7407C311.628 82.7407 313.565 81.0781 313.565 79.0273C313.565 76.9765 311.628 75.314 309.238 75.314C306.848 75.314 304.911 76.9765 304.911 79.0273C304.911 81.0781 306.848 82.7407 309.238 82.7407Z" fill="#F6F4E9"/>
<path d="M359.437 93.6622C365.348 93.6622 370.14 88.8702 370.14 82.959C370.14 77.0478 365.348 72.2559 359.437 72.2559C353.525 72.2559 348.733 77.0478 348.733 82.959C348.733 88.8702 353.525 93.6622 359.437 93.6622Z" fill="#401D30"/>
<path d="M356.704 82.7407C359.093 82.7407 361.031 81.0781 361.031 79.0273C361.031 76.9765 359.093 75.314 356.704 75.314C354.314 75.314 352.377 76.9765 352.377 79.0273C352.377 81.0781 354.314 82.7407 356.704 82.7407Z" fill="#F6F4E9"/>
<path d="M332.153 153.004C330.254 152.762 325.646 139.751 327.965 129.969C330.013 128.266 331.101 128.807 331.455 130.9C329.659 142.287 331.587 145.608 335.178 151.376C334.611 153.021 334.052 153.247 332.153 153.004Z" fill="#6A1E23"/>
<path d="M377.349 120.68C377.564 118.575 373.395 116.651 373.626 120.68C373.857 124.709 369.771 138.626 368.275 140.69C366.778 142.755 369.205 144.414 371.532 142.784C373.859 141.155 377.134 122.785 377.349 120.68Z" fill="#7A2826"/>
<path d="M299.406 128.777C299.924 126.328 301.966 125.985 302.664 128.079C303.362 130.173 305.253 136.066 308.713 141.574C311.971 145.297 313.941 145.728 317.322 147.624C317.89 148.738 317.09 150.184 316.159 150.416C315.228 150.649 311.273 148.787 308.481 145.995C306.549 143.763 305.454 142.696 303.594 139.248C301.609 135.424 300.574 133.22 299.406 128.777Z" fill="#6A1E23"/>
<path d="M329.729 84.9039L329.687 84.8676C329.282 84.5245 328.57 84.5613 328.076 84.7586C327.87 84.8412 327.693 84.9832 327.567 85.1668L327.545 85.1991C327.403 85.4067 327.327 85.6526 327.327 85.9045V86.2161C327.327 86.8308 327.445 87.44 327.673 88.0108L327.793 88.31L328.01 88.6901C328.482 89.5171 329.096 90.2705 329.808 90.9034C330.471 91.4921 331.23 91.9835 332.04 92.3436C332.619 92.6009 333.225 92.7938 333.847 92.9181L334.323 93.0132C334.932 93.1351 335.551 93.1964 336.172 93.1964H336.207C336.954 93.1964 337.699 93.1046 338.424 92.9234C338.936 92.7953 339.436 92.6231 339.919 92.4086L340.408 92.1915C340.991 91.932 341.534 91.5891 342.019 91.1735C342.613 90.6646 343.111 90.0544 343.491 89.3711L343.736 88.9299C343.964 88.5185 344.138 88.0789 344.252 87.6222L344.392 87.061C344.493 86.6579 344.503 86.2373 344.422 85.8297L344.366 85.5511C344.331 85.3756 344.262 85.2087 344.162 85.0598C343.961 84.7572 343.647 84.5472 343.29 84.4759L343.202 84.458C342.866 84.3911 342.518 84.4376 342.212 84.5906L342.137 84.6282C341.888 84.7527 341.686 84.9545 341.561 85.2036C341.534 85.258 341.511 85.3142 341.492 85.372L341.413 85.6067C341.33 85.8562 341.288 86.1173 341.288 86.3802C341.288 86.5802 341.263 86.7795 341.215 86.9735L341.198 87.0391C341.104 87.4173 340.935 87.7727 340.701 88.0845C340.474 88.387 340.19 88.6428 339.866 88.8374L339.612 88.9901C339.334 89.1568 339.039 89.2925 338.731 89.3948L338.283 89.5444C337.96 89.6522 337.629 89.7343 337.293 89.7901C336.702 89.8889 336.099 89.9052 335.503 89.8389L335.029 89.7863C334.55 89.7332 334.079 89.6206 333.627 89.451L333.452 89.3854C332.789 89.1368 332.187 88.749 331.686 88.2482C331.266 87.8276 330.924 87.3347 330.678 86.793L329.976 85.249C329.917 85.1191 329.836 84.9984 329.729 84.9039Z" fill="#401E2B"/>
<path d="M461.314 69.8379C467.402 69.8379 472.594 70.8958 476.891 73.0117V87.9531L476.793 88.0508C474.97 85.2513 471.129 83.3958 465.27 82.4844C463.544 82.1914 461.363 82.0449 458.727 82.0449C456.09 82.0449 453.502 82.5495 450.963 83.5586C448.424 84.5352 446.34 85.9349 444.713 87.7578C441.555 91.306 439.977 96.3678 439.977 102.943C439.977 110.593 441.979 116.29 445.982 120.033C449.303 123.158 453.697 124.721 459.166 124.721C465.351 124.721 470.364 123.402 474.205 120.766C475.605 119.822 476.793 118.65 477.77 117.25L477.916 117.348V131.02C472.936 135.154 466.23 137.221 457.799 137.221C447.87 137.221 440.09 134.063 434.459 127.748C429.055 121.726 426.354 113.751 426.354 103.822C426.354 93.3079 429.316 85.0234 435.24 78.9688C441.23 72.8815 449.921 69.8379 461.314 69.8379ZM485.289 110.756C485.289 107.175 485.891 103.757 487.096 100.502C488.333 97.2142 490.09 94.3496 492.369 91.9082C497.35 86.6348 503.811 83.998 511.754 83.998C519.664 83.998 525.947 86.4883 530.602 91.4688C535.061 96.2214 537.291 102.39 537.291 109.975C537.291 117.559 534.996 123.842 530.406 128.822C525.556 134.096 519.127 136.732 511.119 136.732C502.851 136.732 496.373 134.145 491.686 128.969C487.421 124.249 485.289 118.178 485.289 110.756ZM497.154 110.463C497.154 112.514 497.496 114.499 498.18 116.42C498.863 118.34 499.84 119.984 501.109 121.352C503.811 124.314 507.359 125.795 511.754 125.795C515.823 125.795 519.029 124.346 521.373 121.449C523.652 118.65 524.791 115.004 524.791 110.512C524.791 105.954 523.619 102.276 521.275 99.4766C518.769 96.4818 515.335 94.9844 510.973 94.9844C506.546 94.9844 503.079 96.5794 500.572 99.7695C498.294 102.699 497.154 106.264 497.154 110.463ZM587.389 131.264C583.743 134.91 578.03 136.732 570.25 136.732C562.698 136.732 556.529 134.438 551.744 129.848C546.894 125.193 544.469 119.008 544.469 111.293C544.469 103.448 546.861 97.0026 551.646 91.957C556.725 86.651 563.512 83.998 572.008 83.998C578.03 83.998 583.076 85.3164 587.145 87.9531L585.191 100.453L584.85 100.404C583.287 98.5163 581.643 97.2793 579.918 96.6934C577.118 95.7168 574.319 95.2285 571.52 95.2285C568.72 95.2285 566.523 95.5866 564.928 96.3027C563.333 97.0189 561.965 98.0117 560.826 99.2812C558.548 101.885 557.408 105.336 557.408 109.633C557.408 117.25 560.045 122.23 565.318 124.574C567.141 125.355 569.062 125.746 571.08 125.746C573.131 125.746 574.905 125.567 576.402 125.209C577.932 124.851 579.316 124.363 580.553 123.744C583.189 122.442 584.98 120.928 585.924 119.203L586.266 119.35L587.389 131.264ZM593.883 110.756C593.883 107.175 594.485 103.757 595.689 100.502C596.926 97.2142 598.684 94.3496 600.963 91.9082C605.943 86.6348 612.405 83.998 620.348 83.998C628.258 83.998 634.54 86.4883 639.195 91.4688C643.655 96.2214 645.885 102.39 645.885 109.975C645.885 117.559 643.59 123.842 639 128.822C634.15 134.096 627.721 136.732 619.713 136.732C611.445 136.732 604.967 134.145 600.279 128.969C596.015 124.249 593.883 118.178 593.883 110.756ZM605.748 110.463C605.748 112.514 606.09 114.499 606.773 116.42C607.457 118.34 608.434 119.984 609.703 121.352C612.405 124.314 615.953 125.795 620.348 125.795C624.417 125.795 627.623 124.346 629.967 121.449C632.245 118.65 633.385 115.004 633.385 110.512C633.385 105.954 632.213 102.276 629.869 99.4766C627.363 96.4818 623.928 94.9844 619.566 94.9844C615.139 94.9844 611.673 96.5794 609.166 99.7695C606.887 102.699 605.748 106.264 605.748 110.463ZM658.824 70.8633C662.079 70.9935 664.049 71.0586 664.732 71.0586H668.248C669.973 71.0586 671.357 70.9284 672.398 70.668L672.35 136H658.824V70.8633ZM702.33 129.75C702.33 132.615 702.46 134.698 702.721 136H690.465V84.9746H702.33V89.3203C706.627 85.7721 711.217 83.998 716.1 83.998C721.438 83.998 725.702 85.821 728.893 89.4668C732.083 93.0801 733.678 97.849 733.678 103.773V123.207C733.678 128.708 733.759 132.012 733.922 133.119C734.085 134.226 734.296 134.942 734.557 135.268C734.85 135.593 735.094 135.886 735.289 136.146L735.191 136.342C732.555 136.114 730.634 136 729.43 136H726.012C724.97 136 723.57 136.049 721.812 136.146V109.535C721.812 99.9974 718.915 95.2285 713.121 95.2285C708.824 95.2285 705.227 97.4421 702.33 101.869V129.75ZM782.994 133.266C778.86 135.577 774.726 136.732 770.592 136.732C766.458 136.732 762.844 136.081 759.752 134.779C756.66 133.477 754.023 131.687 751.842 129.408C747.35 124.721 745.104 118.633 745.104 111.146C745.104 103.399 747.708 96.9538 752.916 91.8105C758.157 86.6022 764.863 83.998 773.033 83.998C775.54 83.998 777.997 84.3236 780.406 84.9746V63.2461H792.369V115.443C792.369 119.773 792.564 122.605 792.955 123.939C793.378 125.274 793.834 126.251 794.322 126.869C794.843 127.488 795.494 128.074 796.275 128.627L787.096 136.732C785.403 135.821 784.036 134.665 782.994 133.266ZM772.887 125.502C775.621 125.502 778.128 124.981 780.406 123.939V96.8887C778.128 95.9447 775.654 95.4727 772.984 95.4727C770.315 95.4727 768.02 95.8307 766.1 96.5469C764.212 97.263 762.584 98.2559 761.217 99.5254C758.352 102.195 756.92 105.661 756.92 109.926C756.92 114.581 758.222 118.292 760.826 121.059C763.626 124.021 767.646 125.502 772.887 125.502ZM804.039 110.902C804.039 107.094 804.69 103.562 805.992 100.307C807.294 97.0514 809.133 94.2031 811.51 91.7617C816.588 86.5859 823.229 83.998 831.432 83.998C838.365 83.998 843.932 86.293 848.131 90.8828C852.265 95.3099 854.332 100.876 854.332 107.582C854.332 110.154 854.137 111.911 853.746 112.855C850.491 113.767 843.867 114.223 833.873 114.223H816.686C817.532 117.706 819.501 120.424 822.594 122.377C825.686 124.298 829.706 125.258 834.654 125.258C839.83 125.258 844.273 124.33 847.984 122.475C848.961 121.986 849.693 121.531 850.182 121.107C850.117 122.475 850.035 123.874 849.938 125.307L849.4 132.924C846.926 134.617 842.923 135.788 837.389 136.439C835.761 136.635 834.199 136.732 832.701 136.732C824.433 136.732 817.597 134.324 812.193 129.506C806.757 124.656 804.039 118.454 804.039 110.902ZM841.344 104.75C840.009 97.7513 836.201 94.252 829.918 94.252C824.97 94.252 821.21 96.3841 818.639 100.648C817.857 101.951 817.255 103.383 816.832 104.945C817.613 104.978 818.574 105.01 819.713 105.043H823.326C824.531 105.076 825.686 105.092 826.793 105.092H829.576C831.236 105.092 832.864 105.076 834.459 105.043L838.463 104.896C839.537 104.864 840.497 104.815 841.344 104.75ZM876.061 109.975L858.775 84.9746H874.059L883.092 100.551L892.857 84.9746H907.066C907.034 84.9746 906.676 85.4466 905.992 86.3906L890.074 109.096L908.141 136H893.004L883.238 119.447L873.57 136H858.287L876.061 109.975Z" fill="#BE5133"/>
</svg>
