<svg xmlns="http://www.w3.org/2000/svg" viewBox="0 0 1400 600" role="img" aria-label="Python-native transformation: source connectors on the left flow into the incremental engine, then out to target stores on the right. Top lane shows a cache hit (skipped). Bottom lane shows a delta detected and re-embedded.">
  <defs>
    <marker id="hw-soft" viewBox="0 0 10 10" refX="9" refY="5" markerWidth="6" markerHeight="6" orient="auto">
      <path d="M0,0 L10,5 L0,10 z" fill="#FCF3D8" opacity="0.6"/>
    </marker>
    <marker id="hw-coral" viewBox="0 0 10 10" refX="9" refY="5" markerWidth="6" markerHeight="6" orient="auto">
      <path d="M0,0 L10,5 L0,10 z" fill="#FF6B5A"/>
    </marker>
    <marker id="hw-mint" viewBox="0 0 10 10" refX="9" refY="5" markerWidth="6" markerHeight="6" orient="auto">
      <path d="M0,0 L10,5 L0,10 z" fill="#3DEE7E"/>
    </marker>
    <style>
      .live { animation: liv 1.6s ease-in-out infinite; }
      @keyframes liv { 0%,100% { opacity: 1 } 50% { opacity: 0.45 } }
      .breath { animation: br 3.5s ease-in-out infinite; transform-origin: center; transform-box: fill-box; }
      @keyframes br { 0%,100% { transform: scale(1) } 50% { transform: scale(1.1) } }
    </style>
  </defs>

  <text x="700" y="44" text-anchor="middle"
        font-family="Inter, -apple-system, system-ui, sans-serif"
        font-size="28" font-weight="600" letter-spacing="-0.4" fill="#FCF3D8">
    Python-native <tspan fill="#F5B07F" font-style="italic">transformation</tspan>
  </text>
  <text x="700" y="74" text-anchor="middle"
        font-family="JetBrains Mono, ui-monospace, monospace"
        font-size="11" letter-spacing="0.22em" fill="rgba(252,243,216,0.6)">
    ANY SOURCE · @coco.fn · ANY TARGET
  </text>

  <!-- SOURCES -->
  <text x="80" y="116" text-anchor="middle" font-family="JetBrains Mono, ui-monospace, monospace" font-size="11" letter-spacing="0.18em" fill="rgba(252,243,216,0.6)" font-weight="600">SOURCES</text>
  <g stroke-width="2" fill="none" stroke-linecap="round" stroke-linejoin="round">
    <g transform="translate(60,140)">
      <path d="M14 4l-8 12 8 12M26 4l8 12-8 12" stroke="#FCF3D8"/>
      <path d="M24 2l-8 28" stroke="#F5B07F"/>
    </g>
    <g transform="translate(60,196)">
      <rect x="4" y="4" width="32" height="32" rx="3" stroke="#FCF3D8"/>
      <path d="M10 14h20M10 22h20" stroke="#FCF3D8"/>
      <path d="M10 30h12" stroke="#F5B07F"/>
    </g>
    <g transform="translate(60,252)">
      <circle cx="20" cy="20" r="16" stroke="#FCF3D8"/>
      <path d="M4 20h32M20 4c5 5 5 27 0 32M20 4c-5 5-5 27 0 32" stroke="#FCF3D8"/>
      <circle cx="28" cy="12" r="2.6" fill="#F5B07F" stroke="none"/>
    </g>
    <g transform="translate(60,308)">
      <path d="M2 8a3 3 0 013-3h7l2.6 2.6h20a3 3 0 013 3v19a3 3 0 01-3 3H5a3 3 0 01-3-3V8z" stroke="#FCF3D8"/>
      <circle cx="5" cy="22" r="2.4" fill="#F5B07F" stroke="none"/>
    </g>
    <g transform="translate(60,364)">
      <ellipse cx="20" cy="6" rx="16" ry="4" stroke="#F5B07F"/>
      <path d="M4 6v24c0 2.2 7 4 16 4s16-1.8 16-4V6" stroke="#FCF3D8"/>
      <path d="M4 18c0 2.2 7 4 16 4s16-1.8 16-4" stroke="#FCF3D8"/>
    </g>
    <g transform="translate(60,420)">
      <rect x="2" y="10" width="36" height="20" rx="3.5" stroke="#FCF3D8"/>
      <g stroke-width="0">
        <rect x="6" y="16" width="5" height="8" rx="1" fill="#FCF3D8"/>
        <rect x="14" y="16" width="5" height="8" rx="1" fill="#FCF3D8"/>
        <rect x="22" y="16" width="5" height="8" rx="1" fill="#FCF3D8"/>
        <rect x="30" y="16" width="5" height="8" rx="1" fill="#F5B07F"/>
      </g>
    </g>
    <g transform="translate(60,476)">
      <rect x="2" y="6" width="36" height="28" rx="2.5" stroke="#FCF3D8"/>
      <circle cx="12" cy="16" r="3" fill="#F5B07F" stroke="none"/>
      <path d="M38 32l-12-12-14 14" stroke="#FCF3D8"/>
    </g>
    <g transform="translate(60,540)" stroke-width="2.8" fill="none" stroke-linecap="round">
      <line x1="4" y1="20" x2="4" y2="22" stroke="#FCF3D8"/>
      <line x1="12" y1="14" x2="12" y2="28" stroke="#FCF3D8"/>
      <line x1="20" y1="4" x2="20" y2="38" stroke="#F5B07F"/>
      <line x1="28" y1="14" x2="28" y2="28" stroke="#FCF3D8"/>
      <line x1="36" y1="20" x2="36" y2="22" stroke="#FCF3D8"/>
    </g>
  </g>

  <!-- arrows in -->
  <g fill="none" stroke="#FCF3D8" stroke-width="1.2" stroke-opacity="0.32" marker-end="url(#hw-soft)">
    <path d="M120,160 C 200,160 240,330 320,330"/>
    <path d="M120,216 C 200,216 240,330 320,330"/>
    <path d="M120,272 C 200,272 240,330 320,330"/>
    <path d="M120,328 L 320,330"/>
    <path d="M120,384 L 320,330"/>
    <path d="M120,440 C 200,440 240,330 320,330"/>
    <path d="M120,496 C 200,496 240,330 320,330"/>
    <path d="M120,560 C 200,560 240,330 320,330"/>
  </g>

  <!-- ENGINE -->
  <g>
    <rect x="320" y="100" width="760" height="460" rx="16" fill="rgba(245,176,127,0.05)" stroke="#FF6B5A" stroke-width="1.8"/>
    <text x="700" y="130" text-anchor="middle" font-family="JetBrains Mono, ui-monospace, monospace" font-size="11" letter-spacing="0.24em" fill="#FF6B5A" font-weight="700">INCREMENTAL ENGINE</text>
    <g transform="translate(340,118)">
      <circle class="live" cx="0" cy="0" r="5" fill="#3DEE7E"/>
      <text x="12" y="4" font-family="JetBrains Mono, ui-monospace, monospace" font-size="11" letter-spacing="0.18em" fill="rgba(252,243,216,0.75)">LIVE</text>
    </g>

    <!-- code snippet -->
    <g transform="translate(360,158)">
      <rect x="0" y="0" width="680" height="100" rx="10" fill="#1A0A12" stroke="rgba(252,243,216,0.18)"/>
      <text x="16" y="24" font-family="JetBrains Mono, ui-monospace, monospace" font-size="11" letter-spacing="0.18em" fill="rgba(252,243,216,0.65)">@coco.fn · YOUR TRANSFORMATION</text>
      <g font-family="JetBrains Mono, ui-monospace, monospace" font-size="14" fill="#FCF3D8">
        <text x="16" y="50"><tspan fill="#F5B07F">@coco.fn</tspan>(<tspan fill="#FF8FA3">memo</tspan>=<tspan fill="#3DEE7E">True</tspan>)</text>
        <text x="16" y="72"><tspan fill="#F5B07F">async def</tspan> <tspan fill="#FF8FA3">process</tspan>(file):</text>
        <text x="48" y="94">chunks = <tspan fill="#FF8FA3">split</tspan>(file); <tspan fill="#F5B07F">yield</tspan> <tspan fill="#FF8FA3">embed</tspan>(chunks)</text>
      </g>
    </g>

    <!-- CACHE HIT LANE -->
    <g transform="translate(360,288)">
      <rect x="0" y="0" width="680" height="110" rx="10" fill="rgba(61,238,126,0.08)" stroke="#3DEE7E" stroke-opacity="0.55"/>
      <text x="14" y="24" font-family="JetBrains Mono, ui-monospace, monospace" font-size="10" letter-spacing="0.22em" fill="#3DEE7E" font-weight="700">CACHE HIT · SKIPPED</text>

      <g transform="translate(30,64)">
        <rect x="0" y="-16" width="36" height="36" rx="4" fill="#532638"/>
        <path d="M5 -16 L5 -3 L10 -7 L15 -3 L15 -16 Z" fill="#F5B07F"/>
        <path d="M40,2 L130,2" stroke="#3DEE7E" stroke-opacity="0.7" stroke-width="1.6" fill="none" marker-end="url(#hw-mint)"/>
        <ellipse cx="170" cy="2" rx="38" ry="22" fill="rgba(252,243,216,0.08)" stroke="#FCF3D8" stroke-opacity="0.55"/>
        <text x="170" y="6" text-anchor="middle" font-family="JetBrains Mono, ui-monospace, monospace" font-size="12" fill="#FCF3D8">split()</text>
        <path d="M210,2 L 300,2" stroke="#3DEE7E" stroke-opacity="0.7" stroke-width="1.6" fill="none" marker-end="url(#hw-mint)"/>
        <ellipse class="breath" cx="340" cy="2" rx="40" ry="22" fill="rgba(61,238,126,0.18)" stroke="#3DEE7E" stroke-opacity="0.85"/>
        <text x="340" y="6" text-anchor="middle" font-family="JetBrains Mono, ui-monospace, monospace" font-size="12" fill="#3DEE7E" font-weight="700">embed ✓</text>
        <path d="M382,2 L 470,2" stroke="#3DEE7E" stroke-opacity="0.7" stroke-width="1.6" fill="none" marker-end="url(#hw-mint)"/>
        <rect x="480" y="-16" width="64" height="36" rx="6" fill="#532638"/>
        <text x="512" y="6" text-anchor="middle" font-family="JetBrains Mono, ui-monospace, monospace" font-size="11" fill="#FCF3D8">sink</text>
        <path d="M552,2 L 620,2" stroke="#3DEE7E" stroke-opacity="0.55" stroke-width="1.4" stroke-dasharray="3 4" fill="none" marker-end="url(#hw-mint)"/>
        <text x="624" y="6" font-family="JetBrains Mono, ui-monospace, monospace" font-size="11" fill="#3DEE7E">noop</text>
      </g>
    </g>

    <!-- DELTA LANE -->
    <g transform="translate(360,418)">
      <rect x="0" y="0" width="680" height="130" rx="10" fill="rgba(255,107,90,0.10)" stroke="#FF6B5A" stroke-opacity="0.7"/>
      <text x="14" y="24" font-family="JetBrains Mono, ui-monospace, monospace" font-size="10" letter-spacing="0.22em" fill="#FF6B5A" font-weight="700">Δ DETECTED · RE-EMBED</text>

      <g transform="translate(30,76)">
        <rect class="breath" x="0" y="-16" width="36" height="36" rx="4" fill="#F5B07F"/>
        <path d="M5 -16 L5 -3 L10 -7 L15 -3 L15 -16 Z" fill="#532638"/>
        <text x="18" y="36" text-anchor="middle" font-family="JetBrains Mono, ui-monospace, monospace" font-size="9" fill="#FF6B5A" font-weight="700">file Δ</text>
        <path d="M40,2 L130,2" stroke="#FF6B5A" stroke-width="1.8" fill="none" marker-end="url(#hw-coral)"/>
        <ellipse cx="170" cy="2" rx="38" ry="22" fill="rgba(255,107,90,0.18)" stroke="#FF6B5A" stroke-opacity="0.85"/>
        <text x="170" y="6" text-anchor="middle" font-family="JetBrains Mono, ui-monospace, monospace" font-size="12" fill="#FF6B5A">split()</text>
        <path d="M210,2 L 300,2" stroke="#FF6B5A" stroke-width="1.8" fill="none" marker-end="url(#hw-coral)"/>
        <ellipse class="breath" cx="340" cy="2" rx="40" ry="22" fill="#FF6B5A"/>
        <text x="340" y="6" text-anchor="middle" font-family="JetBrains Mono, ui-monospace, monospace" font-size="12" fill="#FCF3D8" font-weight="700">embed Δ</text>
        <path d="M382,2 L 470,2" stroke="#FF6B5A" stroke-width="1.8" fill="none" marker-end="url(#hw-coral)"/>
        <rect x="480" y="-16" width="64" height="36" rx="6" fill="#FF6B5A"/>
        <text x="512" y="6" text-anchor="middle" font-family="JetBrains Mono, ui-monospace, monospace" font-size="11" fill="#FCF3D8">sink</text>
        <path d="M552,2 L 620,2" stroke="#FF6B5A" stroke-width="1.6" stroke-dasharray="3 4" fill="none" marker-end="url(#hw-coral)"/>
        <text x="624" y="6" font-family="JetBrains Mono, ui-monospace, monospace" font-size="11" fill="#FF6B5A" font-weight="700">upsert</text>
      </g>
    </g>
  </g>

  <!-- arrows out -->
  <g fill="none" stroke="#FCF3D8" stroke-width="1.2" stroke-opacity="0.32" marker-end="url(#hw-soft)">
    <path d="M1080,330 C 1200,330 1240,156 1300,156"/>
    <path d="M1080,330 C 1200,330 1240,236 1300,236"/>
    <path d="M1080,330 L 1300,316"/>
    <path d="M1080,330 L 1300,396"/>
    <path d="M1080,330 C 1200,330 1240,476 1300,476"/>
    <path d="M1080,330 C 1200,330 1240,556 1300,556"/>
  </g>

  <!-- TARGETS -->
  <text x="1320" y="116" text-anchor="middle" font-family="JetBrains Mono, ui-monospace, monospace" font-size="11" letter-spacing="0.18em" fill="rgba(252,243,216,0.6)" font-weight="600">TARGETS</text>
  <g stroke-width="2" fill="none" stroke-linecap="round" stroke-linejoin="round">
    <g transform="translate(1300,140)">
      <ellipse cx="20" cy="6" rx="16" ry="4" stroke="#F5B07F"/>
      <path d="M4 6v24c0 2.2 7 4 16 4s16-1.8 16-4V6" stroke="#FCF3D8"/>
      <path d="M4 18c0 2.2 7 4 16 4s16-1.8 16-4" stroke="#FCF3D8"/>
    </g>
    <g transform="translate(1300,220)">
      <rect x="2" y="2" width="36" height="14" rx="2" stroke="#FCF3D8"/>
      <rect x="2" y="22" width="36" height="14" rx="2" stroke="#FCF3D8"/>
      <circle cx="7" cy="8" r="1.5" fill="#F5B07F" stroke="none"/>
      <circle cx="7" cy="28" r="1.5" fill="#FCF3D8" stroke="none"/>
    </g>
    <g transform="translate(1300,300)">
      <circle cx="20" cy="20" r="5" fill="#F5B07F" stroke="#F5B07F"/>
      <circle cx="5" cy="5" r="3" stroke="#FCF3D8"/>
      <circle cx="35" cy="5" r="3" stroke="#FCF3D8"/>
      <circle cx="5" cy="35" r="3" stroke="#FCF3D8"/>
      <circle cx="35" cy="35" r="3" stroke="#FCF3D8"/>
      <path d="M8 8l8 8M32 8l-8 8M8 32l8-8M32 32l-8-8" stroke="#FCF3D8"/>
    </g>
    <g transform="translate(1300,380)">
      <circle cx="6" cy="6" r="3.5" stroke="#FCF3D8"/>
      <circle cx="34" cy="6" r="3.5" stroke="#FCF3D8"/>
      <circle cx="20" cy="34" r="3.5" fill="#F5B07F" stroke="#F5B07F"/>
      <path d="M10 8h20M8 10l10 18M32 10l-10 18" stroke="#FCF3D8"/>
    </g>
    <g transform="translate(1300,460)">
      <rect x="2" y="10" width="36" height="20" rx="3.5" stroke="#FCF3D8"/>
      <g stroke-width="0">
        <rect x="6" y="16" width="5" height="8" rx="1" fill="#FCF3D8"/>
        <rect x="14" y="16" width="5" height="8" rx="1" fill="#FCF3D8"/>
        <rect x="22" y="16" width="5" height="8" rx="1" fill="#FCF3D8"/>
        <rect x="30" y="16" width="5" height="8" rx="1" fill="#F5B07F"/>
      </g>
    </g>
    <g transform="translate(1300,540)">
      <path d="M4 32V12l16-8 16 8v20z" stroke="#FCF3D8"/>
      <path d="M12 32v-12h16v12" stroke="#F5B07F"/>
    </g>
  </g>
</svg>
