<svg xmlns="http://www.w3.org/2000/svg" xmlns:xlink="http://www.w3.org/1999/xlink" width="464" zoomAndPan="magnify" viewBox="0 0 348 207.75" height="277" preserveAspectRatio="xMidYMid meet" version="1.2"><defs><clipPath id="7ef97b685d"><path d="M 0.214844 0 L 347.664062 0 L 347.664062 207.347656 L 0.214844 207.347656 Z M 0.214844 0 "/></clipPath><clipPath id="e918b071e5"><path d="M 7.703125 0 L 339.957031 0 C 341.941406 0 343.847656 0.789062 345.253906 2.195312 C 346.65625 3.597656 347.445312 5.503906 347.445312 7.492188 L 347.445312 199.695312 C 347.445312 201.679688 346.65625 203.585938 345.253906 204.992188 C 343.847656 206.394531 341.941406 207.183594 339.957031 207.183594 L 7.703125 207.183594 C 5.71875 207.183594 3.8125 206.394531 2.40625 204.992188 C 1.003906 203.585938 0.214844 201.679688 0.214844 199.695312 L 0.214844 7.492188 C 0.214844 5.503906 1.003906 3.597656 2.40625 2.195312 C 3.8125 0.789062 5.71875 0 7.703125 0 Z M 7.703125 0 "/></clipPath><clipPath id="124fab78df"><path d="M 0.210938 46 L 347.789062 46 L 347.789062 48 L 0.210938 48 Z M 0.210938 46 "/></clipPath><clipPath id="b2a66f54fb"><path d="M 0.210938 105 L 347.789062 105 L 347.789062 107 L 0.210938 107 Z M 0.210938 105 "/></clipPath><clipPath id="2809b225c9"><path d="M 41.824219 62.96875 L 68.414062 62.96875 L 68.414062 89.558594 L 41.824219 89.558594 Z M 41.824219 62.96875 "/></clipPath><clipPath id="1d5e39aca0"><path d="M 55.117188 62.96875 C 47.777344 62.96875 41.824219 68.921875 41.824219 76.261719 C 41.824219 83.605469 47.777344 89.558594 55.117188 89.558594 C 62.460938 89.558594 68.414062 83.605469 68.414062 76.261719 C 68.414062 68.921875 62.460938 62.96875 55.117188 62.96875 Z M 55.117188 62.96875 "/></clipPath><clipPath id="10bdff4745"><path d="M 42.921875 140.570312 L 68.414062 140.570312 L 68.414062 166.0625 L 42.921875 166.0625 Z M 42.921875 140.570312 "/></clipPath><clipPath id="d5d8fcd618"><path d="M 55.667969 140.570312 C 48.628906 140.570312 42.921875 146.277344 42.921875 153.316406 C 42.921875 160.355469 48.628906 166.0625 55.667969 166.0625 C 62.707031 166.0625 68.414062 160.355469 68.414062 153.316406 C 68.414062 146.277344 62.707031 140.570312 55.667969 140.570312 Z M 55.667969 140.570312 "/></clipPath><clipPath id="abe6c0b028"><path d="M 146.765625 62.96875 L 173.355469 62.96875 L 173.355469 89.558594 L 146.765625 89.558594 Z M 146.765625 62.96875 "/></clipPath><clipPath id="f33cac1c60"><path d="M 160.058594 62.96875 C 152.714844 62.96875 146.765625 68.921875 146.765625 76.261719 C 146.765625 83.605469 152.714844 89.558594 160.058594 89.558594 C 167.402344 89.558594 173.355469 83.605469 173.355469 76.261719 C 173.355469 68.921875 167.402344 62.96875 160.058594 62.96875 Z M 160.058594 62.96875 "/></clipPath><clipPath id="7b501b19bc"><path d="M 256.90625 62.96875 L 283.496094 62.96875 L 283.496094 89.558594 L 256.90625 89.558594 Z M 256.90625 62.96875 "/></clipPath><clipPath id="a15eee4c6e"><path d="M 270.199219 62.96875 C 262.859375 62.96875 256.90625 68.921875 256.90625 76.261719 C 256.90625 83.605469 262.859375 89.558594 270.199219 89.558594 C 277.542969 89.558594 283.496094 83.605469 283.496094 76.261719 C 283.496094 68.921875 277.542969 62.96875 270.199219 62.96875 Z M 270.199219 62.96875 "/></clipPath><clipPath id="6f3c875eb7"><path d="M 55.667969 140.570312 L 68.402344 140.570312 L 68.402344 166.039062 L 55.667969 166.039062 Z M 55.667969 140.570312 "/></clipPath><clipPath id="8145db678f"><path d="M 57.070312 149.761719 L 65 149.761719 L 65 156.503906 L 57.070312 156.503906 Z M 57.070312 149.761719 "/></clipPath><clipPath id="3b2f567a2f"><path d="M 146.976562 161.691406 L 173.566406 161.691406 L 173.566406 188.28125 L 146.976562 188.28125 Z M 146.976562 161.691406 "/></clipPath><clipPath id="42ff6fb8cf"><path d="M 160.273438 161.691406 C 152.929688 161.691406 146.976562 167.644531 146.976562 174.988281 C 146.976562 182.328125 152.929688 188.28125 160.273438 188.28125 C 167.613281 188.28125 173.566406 182.328125 173.566406 174.988281 C 173.566406 167.644531 167.613281 161.691406 160.273438 161.691406 Z M 160.273438 161.691406 "/></clipPath><clipPath id="7b10aa6b8f"><path d="M 156.738281 171.433594 L 164.980469 171.433594 L 164.980469 178.171875 L 156.738281 178.171875 Z M 156.738281 171.433594 "/></clipPath><clipPath id="eac20fcb90"><path d="M 256.359375 161.691406 L 282.949219 161.691406 L 282.949219 188.28125 L 256.359375 188.28125 Z M 256.359375 161.691406 "/></clipPath><clipPath id="4ab5f7043c"><path d="M 269.652344 161.691406 C 262.3125 161.691406 256.359375 167.644531 256.359375 174.988281 C 256.359375 182.328125 262.3125 188.28125 269.652344 188.28125 C 276.996094 188.28125 282.949219 182.328125 282.949219 174.988281 C 282.949219 167.644531 276.996094 161.691406 269.652344 161.691406 Z M 269.652344 161.691406 "/></clipPath><clipPath id="f648da3870"><path d="M 266.367188 171.433594 L 274.605469 171.433594 L 274.605469 178.171875 L 266.367188 178.171875 Z M 266.367188 171.433594 "/></clipPath><clipPath id="7642465a56"><path d="M 147.160156 125.949219 L 173.75 125.949219 L 173.75 152.539062 L 147.160156 152.539062 Z M 147.160156 125.949219 "/></clipPath><clipPath id="011e99fda7"><path d="M 160.457031 125.949219 C 153.113281 125.949219 147.160156 131.898438 147.160156 139.242188 C 147.160156 146.585938 153.113281 152.539062 160.457031 152.539062 C 167.796875 152.539062 173.75 146.585938 173.75 139.242188 C 173.75 131.898438 167.796875 125.949219 160.457031 125.949219 Z M 160.457031 125.949219 "/></clipPath><clipPath id="ca04fa6349"><path d="M 256.542969 125.949219 L 283.132812 125.949219 L 283.132812 152.539062 L 256.542969 152.539062 Z M 256.542969 125.949219 "/></clipPath><clipPath id="c50f3d12ec"><path d="M 269.835938 125.949219 C 262.496094 125.949219 256.542969 131.898438 256.542969 139.242188 C 256.542969 146.585938 262.496094 152.539062 269.835938 152.539062 C 277.179688 152.539062 283.132812 146.585938 283.132812 139.242188 C 283.132812 131.898438 277.179688 125.949219 269.835938 125.949219 Z M 269.835938 125.949219 "/></clipPath></defs><g id="ae388dbb4d"><g clip-rule="nonzero" clip-path="url(#7ef97b685d)"><g clip-rule="nonzero" clip-path="url(#e918b071e5)"><path style="fill:none;stroke-width:2;stroke-linecap:butt;stroke-linejoin:miter;stroke:#d9d9d9;stroke-opacity:1;stroke-miterlimit:4;" d="M 9.998274 -0.0000133333 L 453.53667 -0.0000133333 C 456.185687 -0.0000133333 458.730413 1.053336 460.60767 2.930593 C 462.479712 4.802635 463.533061 7.347361 463.533061 10.001593 L 463.533061 266.580866 C 463.533061 269.229884 462.479712 271.77461 460.60767 273.651866 C 458.730413 275.523908 456.185687 276.577258 453.53667 276.577258 L 9.998274 276.577258 C 7.349256 276.577258 4.80453 275.523908 2.927274 273.651866 C 1.055232 271.77461 0.00188203 269.229884 0.00188203 266.580866 L 0.00188203 10.001593 C 0.00188203 7.347361 1.055232 4.802635 2.927274 2.930593 C 4.80453 1.053336 7.349256 -0.0000133333 9.998274 -0.0000133333 Z M 9.998274 -0.0000133333 " transform="matrix(0.749098,0,0,0.749098,0.213434,0.00000998798)"/></g></g><g clip-rule="nonzero" clip-path="url(#124fab78df)"><path style="fill:none;stroke-width:1;stroke-linecap:butt;stroke-linejoin:miter;stroke:#d8dade;stroke-opacity:1;stroke-miterlimit:4;" d="M 0.00240982 0.497937 L 463.496447 0.497937 " transform="matrix(0.748316,0,0,0.748316,0.209134,46.404729)"/></g><g clip-rule="nonzero" clip-path="url(#b2a66f54fb)"><path style="fill:none;stroke-width:1;stroke-linecap:butt;stroke-linejoin:miter;stroke:#d8dade;stroke-opacity:1;stroke-miterlimit:4;" d="M 0.000405335 0.500801 L 463.494443 0.500801 " transform="matrix(0.748316,0,0,0.748316,0.249697,105.289306)"/></g><g clip-rule="nonzero" clip-path="url(#2809b225c9)"><g clip-rule="nonzero" clip-path="url(#1d5e39aca0)"><path style=" stroke:none;fill-rule:nonzero;fill:#d8dade;fill-opacity:1;" d="M 41.824219 62.96875 L 68.414062 62.96875 L 68.414062 89.558594 L 41.824219 89.558594 Z M 41.824219 62.96875 "/></g></g><g clip-rule="nonzero" clip-path="url(#10bdff4745)"><g clip-rule="nonzero" clip-path="url(#d5d8fcd618)"><path style=" stroke:none;fill-rule:nonzero;fill:#d8dade;fill-opacity:1;" d="M 42.921875 140.570312 L 68.414062 140.570312 L 68.414062 166.0625 L 42.921875 166.0625 Z M 42.921875 140.570312 "/></g></g><g clip-rule="nonzero" clip-path="url(#abe6c0b028)"><g clip-rule="nonzero" clip-path="url(#f33cac1c60)"><path style=" stroke:none;fill-rule:nonzero;fill:#d8dade;fill-opacity:1;" d="M 146.765625 62.96875 L 173.355469 62.96875 L 173.355469 89.558594 L 146.765625 89.558594 Z M 146.765625 62.96875 "/></g></g><g clip-rule="nonzero" clip-path="url(#7b501b19bc)"><g clip-rule="nonzero" clip-path="url(#a15eee4c6e)"><path style=" stroke:none;fill-rule:nonzero;fill:#d8dade;fill-opacity:1;" d="M 256.90625 62.96875 L 283.496094 62.96875 L 283.496094 89.558594 L 256.90625 89.558594 Z M 256.90625 62.96875 "/></g></g><g clip-rule="nonzero" clip-path="url(#6f3c875eb7)"><path style=" stroke:none;fill-rule:nonzero;fill:#ffde59;fill-opacity:1;" d="M 55.671875 166.035156 L 55.671875 140.574219 C 62.703125 140.574219 68.402344 146.273438 68.402344 153.304688 C 68.402344 160.335938 62.703125 166.035156 55.671875 166.035156 Z M 55.671875 166.035156 "/></g><g clip-rule="nonzero" clip-path="url(#8145db678f)"><path style=" stroke:none;fill-rule:nonzero;fill:#292f33;fill-opacity:1;" d="M 64.835938 152.140625 L 63.6875 152.140625 C 63.535156 151.644531 63.273438 151.207031 62.933594 150.839844 C 62.90625 150.8125 62.890625 150.792969 62.863281 150.765625 C 62.738281 150.640625 62.601562 150.523438 62.457031 150.417969 C 62.367188 150.351562 62.277344 150.289062 62.1875 150.238281 C 62.125 150.199219 62.0625 150.164062 62 150.128906 C 61.972656 150.109375 61.945312 150.101562 61.910156 150.082031 C 61.902344 150.082031 61.902344 150.074219 61.890625 150.074219 C 61.867188 150.058594 61.828125 150.046875 61.804688 150.03125 C 61.777344 150.019531 61.75 150.003906 61.722656 149.996094 C 61.703125 149.984375 61.675781 149.976562 61.660156 149.96875 C 61.632812 149.957031 61.605469 149.949219 61.578125 149.941406 C 61.550781 149.929688 61.523438 149.921875 61.496094 149.914062 C 61.460938 149.90625 61.425781 149.894531 61.390625 149.878906 C 61.355469 149.867188 61.316406 149.859375 61.28125 149.851562 C 61.238281 149.839844 61.191406 149.832031 61.148438 149.824219 C 61.101562 149.816406 61.058594 149.804688 61.011719 149.796875 C 60.96875 149.789062 60.933594 149.789062 60.886719 149.777344 C 60.878906 149.777344 60.878906 149.777344 60.871094 149.777344 C 60.824219 149.769531 60.78125 149.769531 60.734375 149.769531 C 60.726562 149.769531 60.726562 149.769531 60.714844 149.769531 C 60.671875 149.769531 60.636719 149.761719 60.601562 149.761719 C 60.554688 149.761719 60.511719 149.761719 60.464844 149.761719 L 60.457031 149.761719 C 60.429688 149.761719 60.394531 149.761719 60.367188 149.761719 C 60.339844 149.761719 60.320312 149.761719 60.292969 149.761719 C 60.269531 149.761719 60.242188 149.761719 60.203125 149.769531 C 60.113281 149.777344 60.035156 149.789062 59.953125 149.796875 C 59.898438 149.804688 59.847656 149.816406 59.792969 149.824219 C 59.746094 149.832031 59.691406 149.839844 59.648438 149.859375 C 59.59375 149.867188 59.550781 149.886719 59.503906 149.90625 C 59.476562 149.914062 59.460938 149.921875 59.433594 149.929688 C 59.414062 149.941406 59.398438 149.941406 59.386719 149.949219 C 59.34375 149.96875 59.289062 149.984375 59.246094 150.003906 C 59.21875 150.011719 59.191406 150.019531 59.164062 150.03125 C 59.109375 150.046875 59.066406 150.074219 59.011719 150.09375 C 58.964844 150.121094 58.914062 150.136719 58.867188 150.164062 C 58.722656 150.246094 58.589844 150.328125 58.453125 150.425781 C 58.375 150.488281 58.300781 150.542969 58.230469 150.613281 C 58.230469 150.613281 58.230469 150.613281 58.222656 150.621094 C 58.167969 150.675781 58.113281 150.722656 58.058594 150.773438 C 58.03125 150.800781 58.003906 150.828125 57.976562 150.855469 C 57.953125 150.882812 57.925781 150.910156 57.898438 150.945312 C 57.878906 150.964844 57.863281 150.992188 57.84375 151.007812 C 57.84375 151.007812 57.835938 151.015625 57.835938 151.015625 C 57.808594 151.054688 57.78125 151.082031 57.753906 151.117188 C 57.726562 151.152344 57.710938 151.179688 57.683594 151.214844 C 57.664062 151.242188 57.644531 151.269531 57.628906 151.296875 C 57.378906 151.691406 57.207031 152.140625 57.132812 152.632812 C 57.109375 152.796875 57.097656 152.957031 57.097656 153.128906 C 57.097656 153.738281 57.261719 154.3125 57.546875 154.816406 C 57.628906 154.949219 57.710938 155.074219 57.800781 155.191406 C 57.824219 155.21875 57.84375 155.246094 57.871094 155.28125 C 57.914062 155.335938 57.96875 155.398438 58.023438 155.453125 C 58.050781 155.480469 58.078125 155.507812 58.105469 155.53125 C 58.132812 155.558594 58.15625 155.585938 58.183594 155.613281 C 58.210938 155.640625 58.238281 155.660156 58.265625 155.6875 C 58.273438 155.695312 58.273438 155.695312 58.285156 155.695312 C 58.300781 155.710938 58.320312 155.722656 58.335938 155.738281 C 58.363281 155.757812 58.382812 155.777344 58.410156 155.792969 C 58.480469 155.847656 58.5625 155.902344 58.632812 155.953125 C 58.660156 155.972656 58.6875 155.992188 58.722656 156.007812 C 58.734375 156.019531 58.742188 156.019531 58.75 156.027344 C 58.777344 156.042969 58.8125 156.0625 58.839844 156.082031 C 58.875 156.097656 58.902344 156.117188 58.9375 156.132812 C 58.984375 156.160156 59.039062 156.179688 59.082031 156.207031 C 59.15625 156.242188 59.234375 156.269531 59.308594 156.296875 C 59.308594 156.296875 59.308594 156.296875 59.316406 156.296875 C 59.34375 156.304688 59.371094 156.3125 59.386719 156.324219 C 59.414062 156.332031 59.449219 156.339844 59.476562 156.351562 C 59.503906 156.359375 59.523438 156.359375 59.550781 156.367188 C 59.601562 156.386719 59.65625 156.394531 59.710938 156.414062 C 59.765625 156.421875 59.820312 156.441406 59.871094 156.449219 C 59.890625 156.449219 59.917969 156.457031 59.933594 156.457031 C 59.980469 156.464844 60.023438 156.476562 60.078125 156.476562 C 60.105469 156.476562 60.132812 156.484375 60.160156 156.484375 C 60.179688 156.484375 60.195312 156.484375 60.214844 156.492188 C 60.257812 156.492188 60.292969 156.503906 60.339844 156.503906 C 60.382812 156.503906 60.421875 156.503906 60.464844 156.503906 L 60.472656 156.503906 C 60.511719 156.503906 60.546875 156.503906 60.582031 156.503906 C 60.652344 156.503906 60.726562 156.492188 60.804688 156.484375 C 60.832031 156.484375 60.859375 156.476562 60.886719 156.476562 C 60.96875 156.464844 61.058594 156.449219 61.136719 156.441406 C 61.164062 156.429688 61.203125 156.429688 61.226562 156.421875 C 61.238281 156.421875 61.238281 156.421875 61.246094 156.421875 C 61.273438 156.414062 61.308594 156.402344 61.335938 156.402344 C 61.371094 156.394531 61.40625 156.386719 61.433594 156.375 C 61.460938 156.367188 61.496094 156.359375 61.535156 156.351562 C 61.585938 156.332031 61.632812 156.3125 61.675781 156.296875 C 61.722656 156.277344 61.777344 156.261719 61.820312 156.234375 C 61.945312 156.179688 62.070312 156.117188 62.1875 156.042969 C 62.234375 156.019531 62.277344 155.992188 62.324219 155.953125 C 62.386719 155.910156 62.449219 155.875 62.503906 155.828125 C 62.53125 155.8125 62.558594 155.792969 62.574219 155.765625 C 62.601562 155.75 62.628906 155.722656 62.648438 155.703125 C 62.671875 155.6875 62.691406 155.660156 62.71875 155.640625 C 62.746094 155.613281 62.773438 155.597656 62.800781 155.570312 C 62.828125 155.542969 62.851562 155.515625 62.878906 155.496094 C 63.03125 155.34375 63.167969 155.175781 63.285156 154.996094 C 63.328125 154.929688 63.320312 154.84375 63.265625 154.789062 L 62.925781 154.445312 C 62.863281 154.382812 62.753906 154.382812 62.691406 154.457031 C 62.242188 155.210938 61.417969 155.722656 60.472656 155.722656 C 60.160156 155.722656 59.863281 155.667969 59.585938 155.558594 C 59.566406 155.550781 59.558594 155.550781 59.539062 155.542969 C 59.53125 155.542969 59.53125 155.542969 59.523438 155.53125 C 59.523438 155.53125 59.511719 155.53125 59.511719 155.53125 C 59.496094 155.523438 59.476562 155.515625 59.449219 155.507812 C 59.441406 155.496094 59.425781 155.496094 59.414062 155.488281 C 59.40625 155.488281 59.40625 155.480469 59.398438 155.480469 C 59.386719 155.480469 59.386719 155.46875 59.378906 155.46875 C 59.378906 155.46875 59.371094 155.46875 59.371094 155.460938 C 59.351562 155.453125 59.34375 155.441406 59.324219 155.441406 C 59.316406 155.441406 59.316406 155.433594 59.308594 155.433594 C 59.289062 155.425781 59.269531 155.417969 59.246094 155.40625 C 59.191406 155.378906 59.144531 155.34375 59.089844 155.316406 C 59.039062 155.28125 58.984375 155.246094 58.9375 155.210938 C 58.9375 155.210938 58.9375 155.210938 58.929688 155.210938 C 58.902344 155.191406 58.886719 155.175781 58.859375 155.15625 C 58.804688 155.101562 58.757812 155.058594 58.714844 155.011719 C 58.667969 154.96875 58.625 154.929688 58.578125 154.878906 C 58.535156 154.832031 58.5 154.789062 58.453125 154.734375 C 58.4375 154.707031 58.417969 154.6875 58.402344 154.664062 C 58.402344 154.664062 58.402344 154.664062 58.402344 154.652344 C 58.363281 154.597656 58.328125 154.554688 58.292969 154.5 C 58.285156 154.484375 58.265625 154.464844 58.257812 154.445312 C 58.246094 154.429688 58.238281 154.417969 58.230469 154.402344 C 58.183594 154.332031 58.148438 154.257812 58.113281 154.175781 C 58.105469 154.160156 58.09375 154.140625 58.085938 154.125 C 58.078125 154.105469 58.078125 154.097656 58.066406 154.078125 C 57.953125 153.78125 57.878906 153.460938 57.878906 153.117188 C 57.878906 152.875 57.914062 152.640625 57.976562 152.417969 C 58.042969 152.183594 58.140625 151.96875 58.265625 151.773438 C 58.285156 151.746094 58.292969 151.726562 58.3125 151.699219 C 58.320312 151.683594 58.328125 151.671875 58.335938 151.65625 C 58.417969 151.539062 58.507812 151.421875 58.617188 151.324219 C 58.632812 151.304688 58.652344 151.285156 58.667969 151.269531 C 58.707031 151.234375 58.75 151.195312 58.785156 151.160156 C 58.804688 151.144531 58.832031 151.125 58.847656 151.105469 C 58.859375 151.097656 58.867188 151.097656 58.875 151.089844 C 58.929688 151.042969 58.984375 151.007812 59.046875 150.964844 C 59.101562 150.929688 59.164062 150.890625 59.226562 150.855469 C 59.246094 150.847656 59.269531 150.828125 59.289062 150.820312 C 59.289062 150.820312 59.296875 150.820312 59.296875 150.8125 C 59.316406 150.800781 59.335938 150.792969 59.351562 150.785156 C 59.351562 150.785156 59.359375 150.785156 59.359375 150.773438 C 59.371094 150.773438 59.378906 150.765625 59.386719 150.765625 C 59.398438 150.757812 59.414062 150.757812 59.425781 150.75 C 59.433594 150.75 59.433594 150.738281 59.441406 150.738281 C 59.441406 150.738281 59.441406 150.738281 59.449219 150.738281 C 59.488281 150.722656 59.511719 150.710938 59.550781 150.695312 C 59.53125 150.703125 59.523438 150.703125 59.503906 150.710938 C 59.53125 150.703125 59.566406 150.683594 59.59375 150.675781 C 59.601562 150.675781 59.601562 150.675781 59.613281 150.667969 C 59.640625 150.660156 59.667969 150.648438 59.703125 150.640625 C 59.738281 150.632812 59.773438 150.621094 59.800781 150.613281 C 59.835938 150.605469 59.871094 150.59375 59.898438 150.585938 C 59.910156 150.585938 59.917969 150.585938 59.925781 150.578125 C 60.050781 150.550781 60.179688 150.53125 60.304688 150.53125 C 60.3125 150.53125 60.332031 150.53125 60.347656 150.53125 C 60.382812 150.53125 60.410156 150.53125 60.445312 150.53125 C 61.515625 150.53125 62.441406 151.1875 62.828125 152.121094 L 61.722656 152.121094 C 61.578125 152.121094 61.496094 152.292969 61.597656 152.390625 L 62.953125 153.78125 L 63.148438 153.988281 C 63.210938 154.0625 63.328125 154.0625 63.390625 153.988281 L 63.785156 153.574219 L 64.953125 152.410156 C 65.050781 152.300781 64.980469 152.140625 64.835938 152.140625 Z M 59.691406 150.667969 C 59.773438 150.640625 59.855469 150.621094 59.933594 150.605469 C 59.863281 150.621094 59.773438 150.640625 59.691406 150.667969 Z M 59.691406 150.667969 "/></g><g clip-rule="nonzero" clip-path="url(#3b2f567a2f)"><g clip-rule="nonzero" clip-path="url(#42ff6fb8cf)"><path style=" stroke:none;fill-rule:nonzero;fill:#ffde59;fill-opacity:1;" d="M 146.976562 161.691406 L 173.566406 161.691406 L 173.566406 188.28125 L 146.976562 188.28125 Z M 146.976562 161.691406 "/></g></g><g clip-rule="nonzero" clip-path="url(#7b10aa6b8f)"><path style=" stroke:none;fill-rule:nonzero;fill:#292f33;fill-opacity:1;" d="M 164.503906 173.8125 L 163.355469 173.8125 C 163.203125 173.316406 162.941406 172.878906 162.601562 172.507812 C 162.574219 172.480469 162.554688 172.464844 162.527344 172.4375 C 162.402344 172.3125 162.269531 172.195312 162.125 172.085938 C 162.035156 172.023438 161.945312 171.960938 161.855469 171.90625 C 161.792969 171.871094 161.730469 171.835938 161.667969 171.800781 C 161.640625 171.78125 161.613281 171.773438 161.578125 171.753906 C 161.570312 171.753906 161.570312 171.746094 161.558594 171.746094 C 161.53125 171.726562 161.496094 171.71875 161.46875 171.699219 C 161.441406 171.691406 161.417969 171.675781 161.390625 171.664062 C 161.371094 171.65625 161.34375 171.648438 161.328125 171.636719 C 161.300781 171.628906 161.273438 171.621094 161.246094 171.613281 C 161.21875 171.601562 161.191406 171.59375 161.164062 171.585938 C 161.128906 171.574219 161.09375 171.566406 161.058594 171.546875 C 161.019531 171.539062 160.984375 171.53125 160.949219 171.523438 C 160.90625 171.511719 160.859375 171.503906 160.816406 171.496094 C 160.769531 171.484375 160.726562 171.476562 160.679688 171.46875 C 160.636719 171.457031 160.597656 171.457031 160.554688 171.449219 C 160.546875 171.449219 160.546875 171.449219 160.535156 171.449219 C 160.492188 171.441406 160.445312 171.441406 160.402344 171.441406 C 160.394531 171.441406 160.394531 171.441406 160.382812 171.441406 C 160.339844 171.441406 160.304688 171.433594 160.265625 171.433594 C 160.222656 171.433594 160.175781 171.433594 160.132812 171.433594 L 160.125 171.433594 C 160.097656 171.433594 160.058594 171.433594 160.035156 171.433594 C 160.007812 171.433594 159.988281 171.433594 159.960938 171.433594 C 159.933594 171.433594 159.90625 171.433594 159.871094 171.441406 C 159.78125 171.449219 159.703125 171.457031 159.621094 171.46875 C 159.566406 171.476562 159.511719 171.484375 159.460938 171.496094 C 159.414062 171.503906 159.359375 171.511719 159.316406 171.53125 C 159.261719 171.539062 159.214844 171.558594 159.171875 171.574219 C 159.144531 171.585938 159.125 171.59375 159.101562 171.601562 C 159.082031 171.613281 159.0625 171.613281 159.054688 171.621094 C 159.011719 171.636719 158.957031 171.65625 158.910156 171.675781 C 158.882812 171.683594 158.859375 171.691406 158.832031 171.699219 C 158.777344 171.71875 158.730469 171.746094 158.679688 171.765625 C 158.632812 171.789062 158.578125 171.808594 158.535156 171.835938 C 158.390625 171.917969 158.257812 171.996094 158.121094 172.097656 C 158.039062 172.160156 157.96875 172.210938 157.898438 172.285156 C 157.898438 172.285156 157.898438 172.285156 157.886719 172.292969 C 157.835938 172.347656 157.78125 172.390625 157.726562 172.445312 C 157.699219 172.472656 157.671875 172.5 157.644531 172.527344 C 157.617188 172.554688 157.59375 172.582031 157.566406 172.617188 C 157.546875 172.632812 157.527344 172.660156 157.511719 172.679688 C 157.511719 172.679688 157.503906 172.6875 157.503906 172.6875 C 157.476562 172.722656 157.449219 172.75 157.421875 172.789062 C 157.394531 172.824219 157.375 172.851562 157.347656 172.886719 C 157.332031 172.914062 157.3125 172.941406 157.296875 172.96875 C 157.042969 173.363281 156.875 173.8125 156.800781 174.304688 C 156.773438 174.464844 156.765625 174.628906 156.765625 174.796875 C 156.765625 175.410156 156.925781 175.984375 157.214844 176.484375 C 157.296875 176.621094 157.375 176.746094 157.464844 176.863281 C 157.492188 176.890625 157.511719 176.917969 157.539062 176.953125 C 157.582031 177.007812 157.636719 177.070312 157.691406 177.125 C 157.71875 177.148438 157.746094 177.175781 157.769531 177.203125 C 157.796875 177.230469 157.824219 177.257812 157.851562 177.285156 C 157.878906 177.3125 157.90625 177.328125 157.933594 177.355469 C 157.941406 177.367188 157.941406 177.367188 157.949219 177.367188 C 157.96875 177.382812 157.988281 177.394531 158.003906 177.410156 C 158.03125 177.429688 158.050781 177.445312 158.078125 177.464844 C 158.148438 177.519531 158.230469 177.570312 158.300781 177.625 C 158.328125 177.644531 158.355469 177.660156 158.390625 177.679688 C 158.398438 177.6875 158.410156 177.6875 158.417969 177.699219 C 158.445312 177.714844 158.480469 177.734375 158.507812 177.75 C 158.542969 177.769531 158.570312 177.789062 158.605469 177.804688 C 158.652344 177.832031 158.703125 177.851562 158.75 177.878906 C 158.820312 177.914062 158.902344 177.941406 158.972656 177.96875 C 158.972656 177.96875 158.972656 177.96875 158.984375 177.96875 C 159.011719 177.976562 159.039062 177.984375 159.054688 177.996094 C 159.082031 178.003906 159.117188 178.011719 159.144531 178.019531 C 159.171875 178.03125 159.191406 178.03125 159.214844 178.039062 C 159.269531 178.058594 159.324219 178.066406 159.378906 178.082031 C 159.433594 178.09375 159.484375 178.109375 159.539062 178.121094 C 159.558594 178.121094 159.585938 178.128906 159.601562 178.128906 C 159.648438 178.136719 159.691406 178.148438 159.746094 178.148438 C 159.773438 178.148438 159.800781 178.15625 159.828125 178.15625 C 159.84375 178.15625 159.863281 178.15625 159.882812 178.164062 C 159.925781 178.164062 159.960938 178.171875 160.007812 178.171875 C 160.050781 178.171875 160.085938 178.171875 160.132812 178.171875 L 160.140625 178.171875 C 160.175781 178.171875 160.214844 178.171875 160.25 178.171875 C 160.320312 178.171875 160.394531 178.164062 160.472656 178.15625 C 160.5 178.15625 160.527344 178.148438 160.554688 178.148438 C 160.636719 178.136719 160.726562 178.121094 160.804688 178.109375 C 160.832031 178.101562 160.867188 178.101562 160.894531 178.09375 C 160.90625 178.09375 160.90625 178.09375 160.914062 178.09375 C 160.941406 178.082031 160.976562 178.074219 161.003906 178.074219 C 161.039062 178.066406 161.074219 178.058594 161.101562 178.046875 C 161.128906 178.039062 161.164062 178.03125 161.199219 178.019531 C 161.253906 178.003906 161.300781 177.984375 161.34375 177.96875 C 161.390625 177.949219 161.441406 177.929688 161.488281 177.90625 C 161.613281 177.851562 161.738281 177.789062 161.855469 177.714844 C 161.902344 177.6875 161.945312 177.660156 161.992188 177.625 C 162.054688 177.582031 162.117188 177.546875 162.171875 177.5 C 162.195312 177.484375 162.222656 177.464844 162.242188 177.4375 C 162.269531 177.417969 162.296875 177.394531 162.3125 177.375 C 162.339844 177.355469 162.359375 177.328125 162.386719 177.3125 C 162.414062 177.285156 162.441406 177.265625 162.464844 177.238281 C 162.492188 177.214844 162.519531 177.1875 162.546875 177.167969 C 162.699219 177.015625 162.835938 176.84375 162.953125 176.664062 C 162.996094 176.601562 162.988281 176.511719 162.933594 176.460938 L 162.59375 176.117188 C 162.527344 176.054688 162.421875 176.054688 162.359375 176.125 C 161.910156 176.882812 161.082031 177.394531 160.140625 177.394531 C 159.828125 177.394531 159.53125 177.339844 159.253906 177.230469 C 159.234375 177.222656 159.226562 177.222656 159.207031 177.214844 C 159.199219 177.214844 159.199219 177.214844 159.191406 177.203125 C 159.191406 177.203125 159.179688 177.203125 159.179688 177.203125 C 159.164062 177.195312 159.144531 177.1875 159.117188 177.175781 C 159.109375 177.167969 159.089844 177.167969 159.082031 177.160156 C 159.074219 177.160156 159.074219 177.148438 159.0625 177.148438 C 159.054688 177.148438 159.054688 177.140625 159.046875 177.140625 C 159.046875 177.140625 159.039062 177.140625 159.039062 177.132812 C 159.019531 177.125 159.011719 177.113281 158.992188 177.113281 C 158.984375 177.113281 158.984375 177.105469 158.972656 177.105469 C 158.957031 177.097656 158.9375 177.085938 158.910156 177.078125 C 158.859375 177.050781 158.8125 177.015625 158.757812 176.988281 C 158.703125 176.953125 158.652344 176.917969 158.605469 176.882812 C 158.605469 176.882812 158.605469 176.882812 158.597656 176.882812 C 158.570312 176.863281 158.550781 176.84375 158.527344 176.828125 C 158.472656 176.773438 158.425781 176.726562 158.382812 176.683594 C 158.335938 176.636719 158.292969 176.601562 158.246094 176.546875 C 158.203125 176.503906 158.167969 176.460938 158.121094 176.40625 C 158.101562 176.378906 158.085938 176.359375 158.066406 176.332031 C 158.066406 176.332031 158.066406 176.332031 158.066406 176.324219 C 158.03125 176.269531 157.996094 176.226562 157.960938 176.171875 C 157.949219 176.152344 157.933594 176.136719 157.925781 176.117188 C 157.914062 176.101562 157.90625 176.089844 157.898438 176.074219 C 157.851562 176 157.816406 175.929688 157.78125 175.847656 C 157.769531 175.832031 157.761719 175.8125 157.753906 175.792969 C 157.746094 175.777344 157.746094 175.769531 157.734375 175.75 C 157.617188 175.453125 157.546875 175.128906 157.546875 174.789062 C 157.546875 174.546875 157.582031 174.3125 157.644531 174.089844 C 157.707031 173.855469 157.808594 173.640625 157.933594 173.441406 C 157.949219 173.414062 157.960938 173.398438 157.976562 173.371094 C 157.988281 173.351562 157.996094 173.34375 158.003906 173.324219 C 158.085938 173.210938 158.175781 173.09375 158.28125 172.992188 C 158.300781 172.976562 158.320312 172.957031 158.335938 172.941406 C 158.371094 172.902344 158.417969 172.867188 158.453125 172.832031 C 158.472656 172.8125 158.5 172.796875 158.515625 172.777344 C 158.527344 172.769531 158.535156 172.769531 158.542969 172.761719 C 158.597656 172.714844 158.652344 172.679688 158.714844 172.632812 C 158.769531 172.597656 158.832031 172.5625 158.894531 172.527344 C 158.910156 172.519531 158.9375 172.5 158.957031 172.492188 C 158.957031 172.492188 158.964844 172.492188 158.964844 172.480469 C 158.984375 172.472656 159 172.464844 159.019531 172.457031 C 159.019531 172.457031 159.027344 172.457031 159.027344 172.445312 C 159.039062 172.445312 159.046875 172.4375 159.054688 172.4375 C 159.0625 172.429688 159.082031 172.429688 159.089844 172.417969 C 159.101562 172.417969 159.101562 172.410156 159.109375 172.410156 C 159.109375 172.410156 159.109375 172.410156 159.117188 172.410156 C 159.152344 172.390625 159.179688 172.382812 159.214844 172.367188 C 159.199219 172.375 159.191406 172.375 159.171875 172.382812 C 159.199219 172.375 159.234375 172.355469 159.261719 172.347656 C 159.269531 172.347656 159.269531 172.347656 159.28125 172.339844 C 159.304688 172.328125 159.332031 172.320312 159.371094 172.3125 C 159.40625 172.300781 159.441406 172.292969 159.46875 172.285156 C 159.503906 172.277344 159.539062 172.265625 159.566406 172.257812 C 159.574219 172.257812 159.585938 172.257812 159.59375 172.25 C 159.71875 172.222656 159.84375 172.203125 159.972656 172.203125 C 159.980469 172.203125 159.996094 172.203125 160.015625 172.203125 C 160.050781 172.203125 160.078125 172.203125 160.113281 172.203125 C 161.183594 172.203125 162.105469 172.859375 162.492188 173.792969 L 161.390625 173.792969 C 161.246094 173.792969 161.164062 173.964844 161.261719 174.0625 L 162.617188 175.453125 L 162.816406 175.660156 C 162.878906 175.730469 162.996094 175.730469 163.058594 175.660156 L 163.453125 175.246094 L 164.621094 174.082031 C 164.71875 173.972656 164.648438 173.8125 164.503906 173.8125 Z M 159.359375 172.339844 C 159.441406 172.3125 159.523438 172.292969 159.601562 172.277344 C 159.53125 172.292969 159.441406 172.3125 159.359375 172.339844 Z M 159.359375 172.339844 "/></g><g clip-rule="nonzero" clip-path="url(#eac20fcb90)"><g clip-rule="nonzero" clip-path="url(#4ab5f7043c)"><path style=" stroke:none;fill-rule:nonzero;fill:#ffde59;fill-opacity:1;" d="M 256.359375 161.691406 L 282.949219 161.691406 L 282.949219 188.28125 L 256.359375 188.28125 Z M 256.359375 161.691406 "/></g></g><g clip-rule="nonzero" clip-path="url(#f648da3870)"><path style=" stroke:none;fill-rule:nonzero;fill:#292f33;fill-opacity:1;" d="M 274.132812 173.8125 L 272.984375 173.8125 C 272.832031 173.316406 272.570312 172.878906 272.230469 172.507812 C 272.203125 172.480469 272.183594 172.464844 272.15625 172.4375 C 272.03125 172.3125 271.898438 172.195312 271.753906 172.085938 C 271.664062 172.023438 271.574219 171.960938 271.484375 171.90625 C 271.421875 171.871094 271.359375 171.835938 271.296875 171.800781 C 271.269531 171.78125 271.242188 171.773438 271.207031 171.753906 C 271.195312 171.753906 271.195312 171.746094 271.1875 171.746094 C 271.160156 171.726562 271.125 171.71875 271.097656 171.699219 C 271.070312 171.691406 271.042969 171.675781 271.015625 171.664062 C 271 171.65625 270.972656 171.648438 270.953125 171.636719 C 270.925781 171.628906 270.898438 171.621094 270.875 171.613281 C 270.847656 171.601562 270.820312 171.59375 270.792969 171.585938 C 270.757812 171.574219 270.71875 171.566406 270.683594 171.546875 C 270.648438 171.539062 270.613281 171.53125 270.578125 171.523438 C 270.53125 171.511719 270.488281 171.503906 270.441406 171.496094 C 270.398438 171.484375 270.351562 171.476562 270.308594 171.46875 C 270.261719 171.457031 270.226562 171.457031 270.183594 171.449219 C 270.171875 171.449219 270.171875 171.449219 270.164062 171.449219 C 270.117188 171.441406 270.074219 171.441406 270.027344 171.441406 C 270.019531 171.441406 270.019531 171.441406 270.011719 171.441406 C 269.964844 171.441406 269.929688 171.433594 269.894531 171.433594 C 269.851562 171.433594 269.804688 171.433594 269.761719 171.433594 L 269.75 171.433594 C 269.722656 171.433594 269.6875 171.433594 269.660156 171.433594 C 269.632812 171.433594 269.617188 171.433594 269.589844 171.433594 C 269.5625 171.433594 269.535156 171.433594 269.5 171.441406 C 269.410156 171.449219 269.328125 171.457031 269.25 171.46875 C 269.195312 171.476562 269.140625 171.484375 269.085938 171.496094 C 269.042969 171.503906 268.988281 171.511719 268.941406 171.53125 C 268.890625 171.539062 268.84375 171.558594 268.800781 171.574219 C 268.773438 171.585938 268.753906 171.59375 268.726562 171.601562 C 268.710938 171.613281 268.691406 171.613281 268.683594 171.621094 C 268.636719 171.636719 268.582031 171.65625 268.539062 171.675781 C 268.511719 171.683594 268.484375 171.691406 268.457031 171.699219 C 268.40625 171.71875 268.359375 171.746094 268.304688 171.765625 C 268.261719 171.789062 268.207031 171.808594 268.160156 171.835938 C 268.019531 171.917969 267.882812 171.996094 267.75 172.097656 C 267.667969 172.160156 267.597656 172.210938 267.523438 172.285156 C 267.523438 172.285156 267.523438 172.285156 267.515625 172.292969 C 267.460938 172.347656 267.40625 172.390625 267.355469 172.445312 C 267.328125 172.472656 267.300781 172.5 267.273438 172.527344 C 267.246094 172.554688 267.21875 172.582031 267.191406 172.617188 C 267.175781 172.632812 267.15625 172.660156 267.136719 172.679688 C 267.136719 172.679688 267.128906 172.6875 267.128906 172.6875 C 267.101562 172.722656 267.074219 172.75 267.046875 172.789062 C 267.023438 172.824219 267.003906 172.851562 266.976562 172.886719 C 266.960938 172.914062 266.941406 172.941406 266.921875 172.96875 C 266.671875 173.363281 266.5 173.8125 266.429688 174.304688 C 266.402344 174.464844 266.394531 174.628906 266.394531 174.796875 C 266.394531 175.410156 266.554688 175.984375 266.84375 176.484375 C 266.921875 176.621094 267.003906 176.746094 267.09375 176.863281 C 267.121094 176.890625 267.136719 176.917969 267.164062 176.953125 C 267.210938 177.007812 267.265625 177.070312 267.316406 177.125 C 267.34375 177.148438 267.371094 177.175781 267.398438 177.203125 C 267.425781 177.230469 267.453125 177.257812 267.480469 177.285156 C 267.507812 177.3125 267.535156 177.328125 267.558594 177.355469 C 267.570312 177.367188 267.570312 177.367188 267.578125 177.367188 C 267.597656 177.382812 267.613281 177.394531 267.632812 177.410156 C 267.660156 177.429688 267.675781 177.445312 267.703125 177.464844 C 267.777344 177.519531 267.855469 177.570312 267.929688 177.625 C 267.957031 177.644531 267.984375 177.660156 268.019531 177.679688 C 268.027344 177.6875 268.035156 177.6875 268.046875 177.699219 C 268.070312 177.714844 268.109375 177.734375 268.136719 177.75 C 268.171875 177.769531 268.199219 177.789062 268.234375 177.804688 C 268.277344 177.832031 268.332031 177.851562 268.378906 177.878906 C 268.449219 177.914062 268.53125 177.941406 268.601562 177.96875 C 268.601562 177.96875 268.601562 177.96875 268.609375 177.96875 C 268.636719 177.976562 268.664062 177.984375 268.683594 177.996094 C 268.710938 178.003906 268.746094 178.011719 268.773438 178.019531 C 268.800781 178.03125 268.816406 178.03125 268.84375 178.039062 C 268.898438 178.058594 268.953125 178.066406 269.003906 178.082031 C 269.058594 178.09375 269.113281 178.109375 269.167969 178.121094 C 269.183594 178.121094 269.210938 178.128906 269.230469 178.128906 C 269.273438 178.136719 269.320312 178.148438 269.375 178.148438 C 269.402344 178.148438 269.429688 178.15625 269.453125 178.15625 C 269.472656 178.15625 269.492188 178.15625 269.507812 178.164062 C 269.554688 178.164062 269.589844 178.171875 269.632812 178.171875 C 269.679688 178.171875 269.714844 178.171875 269.761719 178.171875 L 269.769531 178.171875 C 269.804688 178.171875 269.839844 178.171875 269.875 178.171875 C 269.949219 178.171875 270.019531 178.164062 270.101562 178.15625 C 270.128906 178.15625 270.15625 178.148438 270.183594 178.148438 C 270.261719 178.136719 270.351562 178.121094 270.433594 178.109375 C 270.460938 178.101562 270.496094 178.101562 270.523438 178.09375 C 270.53125 178.09375 270.53125 178.09375 270.539062 178.09375 C 270.566406 178.082031 270.605469 178.074219 270.628906 178.074219 C 270.667969 178.066406 270.703125 178.058594 270.730469 178.046875 C 270.757812 178.039062 270.792969 178.03125 270.828125 178.019531 C 270.882812 178.003906 270.925781 177.984375 270.972656 177.96875 C 271.015625 177.949219 271.070312 177.929688 271.117188 177.90625 C 271.242188 177.851562 271.367188 177.789062 271.484375 177.714844 C 271.527344 177.6875 271.574219 177.660156 271.617188 177.625 C 271.679688 177.582031 271.742188 177.546875 271.796875 177.5 C 271.824219 177.484375 271.851562 177.464844 271.871094 177.4375 C 271.898438 177.417969 271.921875 177.394531 271.941406 177.375 C 271.96875 177.355469 271.984375 177.328125 272.011719 177.3125 C 272.039062 177.285156 272.066406 177.265625 272.09375 177.238281 C 272.121094 177.214844 272.148438 177.1875 272.175781 177.167969 C 272.328125 177.015625 272.460938 176.84375 272.578125 176.664062 C 272.625 176.601562 272.613281 176.511719 272.5625 176.460938 L 272.21875 176.117188 C 272.15625 176.054688 272.050781 176.054688 271.984375 176.125 C 271.539062 176.882812 270.710938 177.394531 269.769531 177.394531 C 269.453125 177.394531 269.160156 177.339844 268.878906 177.230469 C 268.863281 177.222656 268.851562 177.222656 268.835938 177.214844 C 268.828125 177.214844 268.828125 177.214844 268.816406 177.203125 C 268.816406 177.203125 268.808594 177.203125 268.808594 177.203125 C 268.789062 177.195312 268.773438 177.1875 268.746094 177.175781 C 268.738281 177.167969 268.71875 177.167969 268.710938 177.160156 C 268.699219 177.160156 268.699219 177.148438 268.691406 177.148438 C 268.683594 177.148438 268.683594 177.140625 268.671875 177.140625 C 268.671875 177.140625 268.664062 177.140625 268.664062 177.132812 C 268.648438 177.125 268.636719 177.113281 268.621094 177.113281 C 268.609375 177.113281 268.609375 177.105469 268.601562 177.105469 C 268.582031 177.097656 268.566406 177.085938 268.539062 177.078125 C 268.484375 177.050781 268.441406 177.015625 268.386719 176.988281 C 268.332031 176.953125 268.277344 176.917969 268.234375 176.882812 C 268.234375 176.882812 268.234375 176.882812 268.226562 176.882812 C 268.199219 176.863281 268.179688 176.84375 268.152344 176.828125 C 268.097656 176.773438 268.054688 176.726562 268.007812 176.683594 C 267.964844 176.636719 267.917969 176.601562 267.875 176.546875 C 267.828125 176.503906 267.792969 176.460938 267.75 176.40625 C 267.730469 176.378906 267.714844 176.359375 267.695312 176.332031 C 267.695312 176.332031 267.695312 176.332031 267.695312 176.324219 C 267.660156 176.269531 267.625 176.226562 267.585938 176.171875 C 267.578125 176.152344 267.558594 176.136719 267.550781 176.117188 C 267.542969 176.101562 267.535156 176.089844 267.523438 176.074219 C 267.480469 176 267.445312 175.929688 267.40625 175.847656 C 267.398438 175.832031 267.390625 175.8125 267.382812 175.792969 C 267.371094 175.777344 267.371094 175.769531 267.363281 175.75 C 267.246094 175.453125 267.175781 175.128906 267.175781 174.789062 C 267.175781 174.546875 267.210938 174.3125 267.273438 174.089844 C 267.335938 173.855469 267.433594 173.640625 267.558594 173.441406 C 267.578125 173.414062 267.585938 173.398438 267.605469 173.371094 C 267.613281 173.351562 267.625 173.34375 267.632812 173.324219 C 267.714844 173.210938 267.804688 173.09375 267.910156 172.992188 C 267.929688 172.976562 267.945312 172.957031 267.964844 172.941406 C 268 172.902344 268.046875 172.867188 268.082031 172.832031 C 268.097656 172.8125 268.125 172.796875 268.144531 172.777344 C 268.152344 172.769531 268.160156 172.769531 268.171875 172.761719 C 268.226562 172.714844 268.277344 172.679688 268.339844 172.632812 C 268.394531 172.597656 268.457031 172.5625 268.519531 172.527344 C 268.539062 172.519531 268.566406 172.5 268.582031 172.492188 C 268.582031 172.492188 268.59375 172.492188 268.59375 172.480469 C 268.609375 172.472656 268.628906 172.464844 268.648438 172.457031 C 268.648438 172.457031 268.65625 172.457031 268.65625 172.445312 C 268.664062 172.445312 268.671875 172.4375 268.683594 172.4375 C 268.691406 172.429688 268.710938 172.429688 268.71875 172.417969 C 268.726562 172.417969 268.726562 172.410156 268.738281 172.410156 C 268.738281 172.410156 268.738281 172.410156 268.746094 172.410156 C 268.78125 172.390625 268.808594 172.382812 268.84375 172.367188 C 268.828125 172.375 268.816406 172.375 268.800781 172.382812 C 268.828125 172.375 268.863281 172.355469 268.890625 172.347656 C 268.898438 172.347656 268.898438 172.347656 268.90625 172.339844 C 268.933594 172.328125 268.960938 172.320312 268.996094 172.3125 C 269.03125 172.300781 269.070312 172.292969 269.09375 172.285156 C 269.132812 172.277344 269.167969 172.265625 269.195312 172.257812 C 269.203125 172.257812 269.210938 172.257812 269.222656 172.25 C 269.347656 172.222656 269.472656 172.203125 269.597656 172.203125 C 269.605469 172.203125 269.625 172.203125 269.644531 172.203125 C 269.679688 172.203125 269.707031 172.203125 269.742188 172.203125 C 270.808594 172.203125 271.734375 172.859375 272.121094 173.792969 L 271.015625 173.792969 C 270.875 173.792969 270.792969 173.964844 270.890625 174.0625 L 272.246094 175.453125 L 272.445312 175.660156 C 272.507812 175.730469 272.625 175.730469 272.6875 175.660156 L 273.082031 175.246094 L 274.25 174.082031 C 274.347656 173.972656 274.277344 173.8125 274.132812 173.8125 Z M 268.988281 172.339844 C 269.070312 172.3125 269.148438 172.292969 269.230469 172.277344 C 269.160156 172.292969 269.070312 172.3125 268.988281 172.339844 Z M 268.988281 172.339844 "/></g><g clip-rule="nonzero" clip-path="url(#7642465a56)"><g clip-rule="nonzero" clip-path="url(#011e99fda7)"><path style=" stroke:none;fill-rule:nonzero;fill:#d8dade;fill-opacity:1;" d="M 147.160156 125.949219 L 173.75 125.949219 L 173.75 152.539062 L 147.160156 152.539062 Z M 147.160156 125.949219 "/></g></g><g clip-rule="nonzero" clip-path="url(#ca04fa6349)"><g clip-rule="nonzero" clip-path="url(#c50f3d12ec)"><path style=" stroke:none;fill-rule:nonzero;fill:#d8dade;fill-opacity:1;" d="M 256.542969 125.949219 L 283.132812 125.949219 L 283.132812 152.539062 L 256.542969 152.539062 Z M 256.542969 125.949219 "/></g></g><g style="fill:#000000;fill-opacity:1;"><g transform="translate(261.026426, 31.084876)"><path style="stroke:none" d="M 5.546875 -2.421875 C 5.546875 -2.003906 5.472656 -1.632812 5.328125 -1.3125 C 5.191406 -1 5.007812 -0.734375 4.78125 -0.515625 C 4.5625 -0.304688 4.300781 -0.144531 4 -0.03125 C 3.695312 0.0820312 3.382812 0.140625 3.0625 0.140625 C 2.726562 0.140625 2.410156 0.0820312 2.109375 -0.03125 C 1.804688 -0.144531 1.539062 -0.304688 1.3125 -0.515625 C 1.09375 -0.734375 0.910156 -1 0.765625 -1.3125 C 0.628906 -1.632812 0.5625 -2.003906 0.5625 -2.421875 L 0.5625 -2.53125 C 0.5625 -2.9375 0.628906 -3.296875 0.765625 -3.609375 C 0.910156 -3.929688 1.097656 -4.203125 1.328125 -4.421875 C 1.554688 -4.640625 1.816406 -4.804688 2.109375 -4.921875 C 2.410156 -5.035156 2.726562 -5.09375 3.0625 -5.09375 C 3.382812 -5.09375 3.691406 -5.035156 3.984375 -4.921875 C 4.285156 -4.804688 4.550781 -4.640625 4.78125 -4.421875 C 5.007812 -4.203125 5.191406 -3.929688 5.328125 -3.609375 C 5.472656 -3.296875 5.546875 -2.9375 5.546875 -2.53125 Z M 3.0625 -0.59375 C 3.300781 -0.59375 3.519531 -0.632812 3.71875 -0.71875 C 3.925781 -0.800781 4.101562 -0.921875 4.25 -1.078125 C 4.40625 -1.242188 4.523438 -1.4375 4.609375 -1.65625 C 4.703125 -1.882812 4.75 -2.140625 4.75 -2.421875 L 4.75 -2.53125 C 4.75 -2.800781 4.703125 -3.046875 4.609375 -3.265625 C 4.523438 -3.492188 4.40625 -3.6875 4.25 -3.84375 C 4.101562 -4 3.925781 -4.125 3.71875 -4.21875 C 3.507812 -4.3125 3.289062 -4.359375 3.0625 -4.359375 C 2.820312 -4.359375 2.597656 -4.3125 2.390625 -4.21875 C 2.191406 -4.125 2.015625 -4 1.859375 -3.84375 C 1.703125 -3.6875 1.582031 -3.492188 1.5 -3.265625 C 1.414062 -3.046875 1.375 -2.800781 1.375 -2.53125 L 1.375 -2.421875 C 1.375 -2.140625 1.414062 -1.882812 1.5 -1.65625 C 1.582031 -1.4375 1.703125 -1.242188 1.859375 -1.078125 C 2.015625 -0.921875 2.191406 -0.800781 2.390625 -0.71875 C 2.597656 -0.632812 2.820312 -0.59375 3.0625 -0.59375 Z M 3.0625 -0.59375 "/></g></g><g style="fill:#000000;fill-opacity:1;"><g transform="translate(267.136661, 31.084876)"><path style="stroke:none" d="M 4.40625 -4.953125 L 5.1875 -4.953125 L 5.1875 0 L 4.40625 0 L 4.40625 -0.90625 L 4.28125 -0.90625 C 4.125 -0.582031 3.914062 -0.328125 3.65625 -0.140625 C 3.394531 0.046875 3.066406 0.140625 2.671875 0.140625 C 2.390625 0.140625 2.132812 0.09375 1.90625 0 C 1.675781 -0.0820312 1.476562 -0.210938 1.3125 -0.390625 C 1.15625 -0.578125 1.03125 -0.800781 0.9375 -1.0625 C 0.851562 -1.332031 0.8125 -1.644531 0.8125 -2 L 0.8125 -4.953125 L 1.59375 -4.953125 L 1.59375 -2.09375 C 1.59375 -1.570312 1.695312 -1.191406 1.90625 -0.953125 C 2.113281 -0.710938 2.441406 -0.59375 2.890625 -0.59375 C 3.359375 -0.59375 3.726562 -0.753906 4 -1.078125 C 4.269531 -1.398438 4.40625 -1.832031 4.40625 -2.375 Z M 4.40625 -4.953125 "/></g></g><g style="fill:#000000;fill-opacity:1;"><g transform="translate(273.246896, 31.084876)"><path style="stroke:none" d="M 0.703125 -4.953125 L 2.25 -4.953125 L 2.25 -6.984375 L 3.03125 -6.984375 L 3.03125 -4.953125 L 4.953125 -4.953125 L 4.953125 -4.234375 L 3.03125 -4.234375 L 3.03125 -1.015625 C 3.03125 -0.816406 3.125 -0.71875 3.3125 -0.71875 L 4.71875 -0.71875 L 4.71875 0 L 3.03125 0 C 2.800781 0 2.613281 -0.0703125 2.46875 -0.21875 C 2.320312 -0.363281 2.25 -0.550781 2.25 -0.78125 L 2.25 -4.234375 L 0.703125 -4.234375 Z M 0.703125 -4.953125 "/></g></g><g style="fill:#000000;fill-opacity:1;"><g transform="translate(38.647304, 31.084876)"><path style="stroke:none" d="M 5.5 -1.75 C 5.445312 -1.476562 5.351562 -1.226562 5.21875 -1 C 5.09375 -0.769531 4.929688 -0.566406 4.734375 -0.390625 C 4.535156 -0.222656 4.300781 -0.09375 4.03125 0 C 3.769531 0.09375 3.472656 0.140625 3.140625 0.140625 C 2.796875 0.140625 2.46875 0.0820312 2.15625 -0.03125 C 1.851562 -0.144531 1.582031 -0.304688 1.34375 -0.515625 C 1.113281 -0.734375 0.929688 -1 0.796875 -1.3125 C 0.660156 -1.625 0.59375 -1.984375 0.59375 -2.390625 L 0.59375 -2.515625 C 0.59375 -2.910156 0.660156 -3.269531 0.796875 -3.59375 C 0.929688 -3.914062 1.113281 -4.1875 1.34375 -4.40625 C 1.582031 -4.625 1.851562 -4.789062 2.15625 -4.90625 C 2.46875 -5.03125 2.796875 -5.09375 3.140625 -5.09375 C 3.453125 -5.09375 3.738281 -5.046875 4 -4.953125 C 4.269531 -4.859375 4.503906 -4.722656 4.703125 -4.546875 C 4.910156 -4.378906 5.078125 -4.179688 5.203125 -3.953125 C 5.335938 -3.722656 5.429688 -3.46875 5.484375 -3.1875 L 4.703125 -3.015625 C 4.679688 -3.191406 4.628906 -3.359375 4.546875 -3.515625 C 4.472656 -3.679688 4.367188 -3.828125 4.234375 -3.953125 C 4.109375 -4.078125 3.953125 -4.175781 3.765625 -4.25 C 3.585938 -4.320312 3.375 -4.359375 3.125 -4.359375 C 2.882812 -4.359375 2.660156 -4.3125 2.453125 -4.21875 C 2.242188 -4.125 2.054688 -3.992188 1.890625 -3.828125 C 1.734375 -3.671875 1.609375 -3.476562 1.515625 -3.25 C 1.429688 -3.03125 1.390625 -2.785156 1.390625 -2.515625 L 1.390625 -2.390625 C 1.390625 -2.117188 1.429688 -1.867188 1.515625 -1.640625 C 1.609375 -1.421875 1.734375 -1.234375 1.890625 -1.078125 C 2.054688 -0.921875 2.242188 -0.800781 2.453125 -0.71875 C 2.671875 -0.632812 2.898438 -0.59375 3.140625 -0.59375 C 3.390625 -0.59375 3.601562 -0.628906 3.78125 -0.703125 C 3.96875 -0.785156 4.125 -0.890625 4.25 -1.015625 C 4.382812 -1.140625 4.488281 -1.28125 4.5625 -1.4375 C 4.644531 -1.59375 4.695312 -1.757812 4.71875 -1.9375 Z M 5.5 -1.75 "/></g></g><g style="fill:#000000;fill-opacity:1;"><g transform="translate(44.757539, 31.084876)"><path style="stroke:none" d="M 5.546875 -2.421875 C 5.546875 -2.003906 5.472656 -1.632812 5.328125 -1.3125 C 5.191406 -1 5.007812 -0.734375 4.78125 -0.515625 C 4.5625 -0.304688 4.300781 -0.144531 4 -0.03125 C 3.695312 0.0820312 3.382812 0.140625 3.0625 0.140625 C 2.726562 0.140625 2.410156 0.0820312 2.109375 -0.03125 C 1.804688 -0.144531 1.539062 -0.304688 1.3125 -0.515625 C 1.09375 -0.734375 0.910156 -1 0.765625 -1.3125 C 0.628906 -1.632812 0.5625 -2.003906 0.5625 -2.421875 L 0.5625 -2.53125 C 0.5625 -2.9375 0.628906 -3.296875 0.765625 -3.609375 C 0.910156 -3.929688 1.097656 -4.203125 1.328125 -4.421875 C 1.554688 -4.640625 1.816406 -4.804688 2.109375 -4.921875 C 2.410156 -5.035156 2.726562 -5.09375 3.0625 -5.09375 C 3.382812 -5.09375 3.691406 -5.035156 3.984375 -4.921875 C 4.285156 -4.804688 4.550781 -4.640625 4.78125 -4.421875 C 5.007812 -4.203125 5.191406 -3.929688 5.328125 -3.609375 C 5.472656 -3.296875 5.546875 -2.9375 5.546875 -2.53125 Z M 3.0625 -0.59375 C 3.300781 -0.59375 3.519531 -0.632812 3.71875 -0.71875 C 3.925781 -0.800781 4.101562 -0.921875 4.25 -1.078125 C 4.40625 -1.242188 4.523438 -1.4375 4.609375 -1.65625 C 4.703125 -1.882812 4.75 -2.140625 4.75 -2.421875 L 4.75 -2.53125 C 4.75 -2.800781 4.703125 -3.046875 4.609375 -3.265625 C 4.523438 -3.492188 4.40625 -3.6875 4.25 -3.84375 C 4.101562 -4 3.925781 -4.125 3.71875 -4.21875 C 3.507812 -4.3125 3.289062 -4.359375 3.0625 -4.359375 C 2.820312 -4.359375 2.597656 -4.3125 2.390625 -4.21875 C 2.191406 -4.125 2.015625 -4 1.859375 -3.84375 C 1.703125 -3.6875 1.582031 -3.492188 1.5 -3.265625 C 1.414062 -3.046875 1.375 -2.800781 1.375 -2.53125 L 1.375 -2.421875 C 1.375 -2.140625 1.414062 -1.882812 1.5 -1.65625 C 1.582031 -1.4375 1.703125 -1.242188 1.859375 -1.078125 C 2.015625 -0.921875 2.191406 -0.800781 2.390625 -0.71875 C 2.597656 -0.632812 2.820312 -0.59375 3.0625 -0.59375 Z M 3.0625 -0.59375 "/></g></g><g style="fill:#000000;fill-opacity:1;"><g transform="translate(50.867774, 31.084876)"><path style="stroke:none" d="M 1.640625 0 L 0.875 0 L 0.875 -4.953125 L 1.640625 -4.953125 L 1.640625 -4.109375 L 1.765625 -4.109375 C 2.066406 -4.765625 2.597656 -5.09375 3.359375 -5.09375 C 3.929688 -5.09375 4.382812 -4.914062 4.71875 -4.5625 C 5.0625 -4.207031 5.234375 -3.671875 5.234375 -2.953125 L 5.234375 0 L 4.46875 0 L 4.46875 -2.796875 C 4.46875 -3.316406 4.347656 -3.707031 4.109375 -3.96875 C 3.878906 -4.226562 3.566406 -4.359375 3.171875 -4.359375 C 2.691406 -4.359375 2.316406 -4.195312 2.046875 -3.875 C 1.773438 -3.550781 1.640625 -3.117188 1.640625 -2.578125 Z M 1.640625 0 "/></g></g><g style="fill:#000000;fill-opacity:1;"><g transform="translate(56.978009, 31.084876)"><path style="stroke:none" d="M 0.703125 -4.953125 L 2.25 -4.953125 L 2.25 -6.984375 L 3.03125 -6.984375 L 3.03125 -4.953125 L 4.953125 -4.953125 L 4.953125 -4.234375 L 3.03125 -4.234375 L 3.03125 -1.015625 C 3.03125 -0.816406 3.125 -0.71875 3.3125 -0.71875 L 4.71875 -0.71875 L 4.71875 0 L 3.03125 0 C 2.800781 0 2.613281 -0.0703125 2.46875 -0.21875 C 2.320312 -0.363281 2.25 -0.550781 2.25 -0.78125 L 2.25 -4.234375 L 0.703125 -4.234375 Z M 0.703125 -4.953125 "/></g></g><g style="fill:#000000;fill-opacity:1;"><g transform="translate(63.088244, 31.084876)"><path style="stroke:none" d="M 1.4375 -2.234375 C 1.457031 -1.742188 1.609375 -1.347656 1.890625 -1.046875 C 2.179688 -0.742188 2.582031 -0.59375 3.09375 -0.59375 C 3.320312 -0.59375 3.523438 -0.617188 3.703125 -0.671875 C 3.878906 -0.734375 4.023438 -0.804688 4.140625 -0.890625 C 4.265625 -0.984375 4.363281 -1.09375 4.4375 -1.21875 C 4.519531 -1.34375 4.582031 -1.476562 4.625 -1.625 L 5.375 -1.421875 C 5.226562 -0.960938 4.96875 -0.585938 4.59375 -0.296875 C 4.21875 -0.00390625 3.710938 0.140625 3.078125 0.140625 C 2.722656 0.140625 2.394531 0.078125 2.09375 -0.046875 C 1.800781 -0.171875 1.546875 -0.34375 1.328125 -0.5625 C 1.117188 -0.789062 0.953125 -1.0625 0.828125 -1.375 C 0.710938 -1.6875 0.65625 -2.035156 0.65625 -2.421875 L 0.65625 -2.65625 C 0.65625 -3 0.71875 -3.320312 0.84375 -3.625 C 0.96875 -3.925781 1.140625 -4.179688 1.359375 -4.390625 C 1.578125 -4.609375 1.832031 -4.78125 2.125 -4.90625 C 2.425781 -5.03125 2.75 -5.09375 3.09375 -5.09375 C 3.5 -5.09375 3.847656 -5.015625 4.140625 -4.859375 C 4.441406 -4.710938 4.6875 -4.53125 4.875 -4.3125 C 5.0625 -4.09375 5.203125 -3.851562 5.296875 -3.59375 C 5.390625 -3.332031 5.4375 -3.09375 5.4375 -2.875 L 5.4375 -2.234375 Z M 3.09375 -4.359375 C 2.875 -4.359375 2.671875 -4.320312 2.484375 -4.25 C 2.296875 -4.175781 2.128906 -4.078125 1.984375 -3.953125 C 1.835938 -3.828125 1.71875 -3.675781 1.625 -3.5 C 1.539062 -3.332031 1.484375 -3.148438 1.453125 -2.953125 L 4.65625 -2.953125 C 4.632812 -3.171875 4.578125 -3.363281 4.484375 -3.53125 C 4.398438 -3.707031 4.285156 -3.851562 4.140625 -3.96875 C 4.003906 -4.09375 3.84375 -4.1875 3.65625 -4.25 C 3.476562 -4.320312 3.289062 -4.359375 3.09375 -4.359375 Z M 3.09375 -4.359375 "/></g></g><g style="fill:#000000;fill-opacity:1;"><g transform="translate(69.198478, 31.084876)"><path style="stroke:none" d="M 1.640625 0 L 0.875 0 L 0.875 -4.953125 L 1.640625 -4.953125 L 1.640625 -4.109375 L 1.765625 -4.109375 C 2.066406 -4.765625 2.597656 -5.09375 3.359375 -5.09375 C 3.929688 -5.09375 4.382812 -4.914062 4.71875 -4.5625 C 5.0625 -4.207031 5.234375 -3.671875 5.234375 -2.953125 L 5.234375 0 L 4.46875 0 L 4.46875 -2.796875 C 4.46875 -3.316406 4.347656 -3.707031 4.109375 -3.96875 C 3.878906 -4.226562 3.566406 -4.359375 3.171875 -4.359375 C 2.691406 -4.359375 2.316406 -4.195312 2.046875 -3.875 C 1.773438 -3.550781 1.640625 -3.117188 1.640625 -2.578125 Z M 1.640625 0 "/></g></g><g style="fill:#000000;fill-opacity:1;"><g transform="translate(75.308713, 31.084876)"><path style="stroke:none" d="M 0.703125 -4.953125 L 2.25 -4.953125 L 2.25 -6.984375 L 3.03125 -6.984375 L 3.03125 -4.953125 L 4.953125 -4.953125 L 4.953125 -4.234375 L 3.03125 -4.234375 L 3.03125 -1.015625 C 3.03125 -0.816406 3.125 -0.71875 3.3125 -0.71875 L 4.71875 -0.71875 L 4.71875 0 L 3.03125 0 C 2.800781 0 2.613281 -0.0703125 2.46875 -0.21875 C 2.320312 -0.363281 2.25 -0.550781 2.25 -0.78125 L 2.25 -4.234375 L 0.703125 -4.234375 Z M 0.703125 -4.953125 "/></g></g><g style="fill:#000000;fill-opacity:1;"><g transform="translate(124.288131, 31.084876)"><path style="stroke:none" d="M 2.40625 -6.4375 C 2.40625 -6.625 2.472656 -6.785156 2.609375 -6.921875 C 2.742188 -7.054688 2.910156 -7.125 3.109375 -7.125 C 3.296875 -7.125 3.457031 -7.054688 3.59375 -6.921875 C 3.726562 -6.785156 3.796875 -6.625 3.796875 -6.4375 C 3.796875 -6.238281 3.726562 -6.070312 3.59375 -5.9375 C 3.457031 -5.800781 3.296875 -5.734375 3.109375 -5.734375 C 2.910156 -5.734375 2.742188 -5.800781 2.609375 -5.9375 C 2.472656 -6.070312 2.40625 -6.238281 2.40625 -6.4375 Z M 0.984375 -0.71875 L 2.71875 -0.71875 L 2.71875 -4.234375 L 1.171875 -4.234375 L 1.171875 -4.953125 L 3.5 -4.953125 L 3.5 -0.71875 L 5.125 -0.71875 L 5.125 0 L 0.984375 0 Z M 0.984375 -0.71875 "/></g></g><g style="fill:#000000;fill-opacity:1;"><g transform="translate(130.398366, 31.084876)"><path style="stroke:none" d="M 1.640625 0 L 0.875 0 L 0.875 -4.953125 L 1.640625 -4.953125 L 1.640625 -4.109375 L 1.765625 -4.109375 C 2.066406 -4.765625 2.597656 -5.09375 3.359375 -5.09375 C 3.929688 -5.09375 4.382812 -4.914062 4.71875 -4.5625 C 5.0625 -4.207031 5.234375 -3.671875 5.234375 -2.953125 L 5.234375 0 L 4.46875 0 L 4.46875 -2.796875 C 4.46875 -3.316406 4.347656 -3.707031 4.109375 -3.96875 C 3.878906 -4.226562 3.566406 -4.359375 3.171875 -4.359375 C 2.691406 -4.359375 2.316406 -4.195312 2.046875 -3.875 C 1.773438 -3.550781 1.640625 -3.117188 1.640625 -2.578125 Z M 1.640625 0 "/></g></g><g style="fill:#000000;fill-opacity:1;"><g transform="translate(136.508601, 31.084876)"><path style="stroke:none" d="M 0.703125 -4.953125 L 2.25 -4.953125 L 2.25 -6.984375 L 3.03125 -6.984375 L 3.03125 -4.953125 L 4.953125 -4.953125 L 4.953125 -4.234375 L 3.03125 -4.234375 L 3.03125 -1.015625 C 3.03125 -0.816406 3.125 -0.71875 3.3125 -0.71875 L 4.71875 -0.71875 L 4.71875 0 L 3.03125 0 C 2.800781 0 2.613281 -0.0703125 2.46875 -0.21875 C 2.320312 -0.363281 2.25 -0.550781 2.25 -0.78125 L 2.25 -4.234375 L 0.703125 -4.234375 Z M 0.703125 -4.953125 "/></g></g><g style="fill:#000000;fill-opacity:1;"><g transform="translate(142.618836, 31.084876)"><path style="stroke:none" d="M 1.4375 -2.234375 C 1.457031 -1.742188 1.609375 -1.347656 1.890625 -1.046875 C 2.179688 -0.742188 2.582031 -0.59375 3.09375 -0.59375 C 3.320312 -0.59375 3.523438 -0.617188 3.703125 -0.671875 C 3.878906 -0.734375 4.023438 -0.804688 4.140625 -0.890625 C 4.265625 -0.984375 4.363281 -1.09375 4.4375 -1.21875 C 4.519531 -1.34375 4.582031 -1.476562 4.625 -1.625 L 5.375 -1.421875 C 5.226562 -0.960938 4.96875 -0.585938 4.59375 -0.296875 C 4.21875 -0.00390625 3.710938 0.140625 3.078125 0.140625 C 2.722656 0.140625 2.394531 0.078125 2.09375 -0.046875 C 1.800781 -0.171875 1.546875 -0.34375 1.328125 -0.5625 C 1.117188 -0.789062 0.953125 -1.0625 0.828125 -1.375 C 0.710938 -1.6875 0.65625 -2.035156 0.65625 -2.421875 L 0.65625 -2.65625 C 0.65625 -3 0.71875 -3.320312 0.84375 -3.625 C 0.96875 -3.925781 1.140625 -4.179688 1.359375 -4.390625 C 1.578125 -4.609375 1.832031 -4.78125 2.125 -4.90625 C 2.425781 -5.03125 2.75 -5.09375 3.09375 -5.09375 C 3.5 -5.09375 3.847656 -5.015625 4.140625 -4.859375 C 4.441406 -4.710938 4.6875 -4.53125 4.875 -4.3125 C 5.0625 -4.09375 5.203125 -3.851562 5.296875 -3.59375 C 5.390625 -3.332031 5.4375 -3.09375 5.4375 -2.875 L 5.4375 -2.234375 Z M 3.09375 -4.359375 C 2.875 -4.359375 2.671875 -4.320312 2.484375 -4.25 C 2.296875 -4.175781 2.128906 -4.078125 1.984375 -3.953125 C 1.835938 -3.828125 1.71875 -3.675781 1.625 -3.5 C 1.539062 -3.332031 1.484375 -3.148438 1.453125 -2.953125 L 4.65625 -2.953125 C 4.632812 -3.171875 4.578125 -3.363281 4.484375 -3.53125 C 4.398438 -3.707031 4.285156 -3.851562 4.140625 -3.96875 C 4.003906 -4.09375 3.84375 -4.1875 3.65625 -4.25 C 3.476562 -4.320312 3.289062 -4.359375 3.09375 -4.359375 Z M 3.09375 -4.359375 "/></g></g><g style="fill:#000000;fill-opacity:1;"><g transform="translate(148.729071, 31.084876)"><path style="stroke:none" d="M 0.59375 -4.953125 L 2.390625 -4.953125 L 2.390625 -4.296875 L 2.5 -4.296875 C 2.632812 -4.566406 2.816406 -4.765625 3.046875 -4.890625 C 3.273438 -5.023438 3.539062 -5.09375 3.84375 -5.09375 C 4.34375 -5.09375 4.742188 -4.925781 5.046875 -4.59375 C 5.359375 -4.269531 5.523438 -3.796875 5.546875 -3.171875 L 4.71875 -3.0625 C 4.71875 -3.519531 4.609375 -3.847656 4.390625 -4.046875 C 4.171875 -4.253906 3.898438 -4.359375 3.578125 -4.359375 C 3.378906 -4.359375 3.203125 -4.316406 3.046875 -4.234375 C 2.898438 -4.148438 2.773438 -4.035156 2.671875 -3.890625 C 2.578125 -3.753906 2.503906 -3.59375 2.453125 -3.40625 C 2.410156 -3.226562 2.390625 -3.03125 2.390625 -2.8125 L 2.390625 -0.71875 L 3.640625 -0.71875 L 3.640625 0 L 0.46875 0 L 0.46875 -0.71875 L 1.609375 -0.71875 L 1.609375 -4.234375 L 0.59375 -4.234375 Z M 0.59375 -4.953125 "/></g></g><g style="fill:#000000;fill-opacity:1;"><g transform="translate(154.839306, 31.084876)"><path style="stroke:none" d="M 5.625 0 L 4.859375 0 L 4.859375 -3.546875 C 4.859375 -3.785156 4.800781 -3.976562 4.6875 -4.125 C 4.582031 -4.28125 4.414062 -4.359375 4.1875 -4.359375 C 3.96875 -4.359375 3.785156 -4.273438 3.640625 -4.109375 C 3.503906 -3.941406 3.4375 -3.691406 3.4375 -3.359375 L 3.4375 0 L 2.671875 0 L 2.671875 -3.59375 C 2.671875 -3.8125 2.609375 -3.992188 2.484375 -4.140625 C 2.367188 -4.285156 2.207031 -4.359375 2 -4.359375 C 1.757812 -4.359375 1.578125 -4.269531 1.453125 -4.09375 C 1.328125 -3.914062 1.265625 -3.691406 1.265625 -3.421875 L 1.265625 0 L 0.484375 0 L 0.484375 -4.953125 L 1.265625 -4.953125 L 1.265625 -4.40625 L 1.375 -4.40625 C 1.457031 -4.644531 1.582031 -4.816406 1.75 -4.921875 C 1.914062 -5.035156 2.113281 -5.09375 2.34375 -5.09375 C 2.582031 -5.09375 2.78125 -5.03125 2.9375 -4.90625 C 3.09375 -4.78125 3.203125 -4.613281 3.265625 -4.40625 L 3.390625 -4.40625 C 3.609375 -4.863281 3.96875 -5.09375 4.46875 -5.09375 C 4.832031 -5.09375 5.113281 -4.972656 5.3125 -4.734375 C 5.519531 -4.503906 5.625 -4.195312 5.625 -3.8125 Z M 5.625 0 "/></g></g><g style="fill:#000000;fill-opacity:1;"><g transform="translate(160.949541, 31.084876)"><path style="stroke:none" d="M 1.4375 -2.234375 C 1.457031 -1.742188 1.609375 -1.347656 1.890625 -1.046875 C 2.179688 -0.742188 2.582031 -0.59375 3.09375 -0.59375 C 3.320312 -0.59375 3.523438 -0.617188 3.703125 -0.671875 C 3.878906 -0.734375 4.023438 -0.804688 4.140625 -0.890625 C 4.265625 -0.984375 4.363281 -1.09375 4.4375 -1.21875 C 4.519531 -1.34375 4.582031 -1.476562 4.625 -1.625 L 5.375 -1.421875 C 5.226562 -0.960938 4.96875 -0.585938 4.59375 -0.296875 C 4.21875 -0.00390625 3.710938 0.140625 3.078125 0.140625 C 2.722656 0.140625 2.394531 0.078125 2.09375 -0.046875 C 1.800781 -0.171875 1.546875 -0.34375 1.328125 -0.5625 C 1.117188 -0.789062 0.953125 -1.0625 0.828125 -1.375 C 0.710938 -1.6875 0.65625 -2.035156 0.65625 -2.421875 L 0.65625 -2.65625 C 0.65625 -3 0.71875 -3.320312 0.84375 -3.625 C 0.96875 -3.925781 1.140625 -4.179688 1.359375 -4.390625 C 1.578125 -4.609375 1.832031 -4.78125 2.125 -4.90625 C 2.425781 -5.03125 2.75 -5.09375 3.09375 -5.09375 C 3.5 -5.09375 3.847656 -5.015625 4.140625 -4.859375 C 4.441406 -4.710938 4.6875 -4.53125 4.875 -4.3125 C 5.0625 -4.09375 5.203125 -3.851562 5.296875 -3.59375 C 5.390625 -3.332031 5.4375 -3.09375 5.4375 -2.875 L 5.4375 -2.234375 Z M 3.09375 -4.359375 C 2.875 -4.359375 2.671875 -4.320312 2.484375 -4.25 C 2.296875 -4.175781 2.128906 -4.078125 1.984375 -3.953125 C 1.835938 -3.828125 1.71875 -3.675781 1.625 -3.5 C 1.539062 -3.332031 1.484375 -3.148438 1.453125 -2.953125 L 4.65625 -2.953125 C 4.632812 -3.171875 4.578125 -3.363281 4.484375 -3.53125 C 4.398438 -3.707031 4.285156 -3.851562 4.140625 -3.96875 C 4.003906 -4.09375 3.84375 -4.1875 3.65625 -4.25 C 3.476562 -4.320312 3.289062 -4.359375 3.09375 -4.359375 Z M 3.09375 -4.359375 "/></g></g><g style="fill:#000000;fill-opacity:1;"><g transform="translate(167.059776, 31.084876)"><path style="stroke:none" d="M 4.703125 -0.765625 L 4.578125 -0.765625 C 4.503906 -0.609375 4.40625 -0.472656 4.28125 -0.359375 C 4.15625 -0.242188 4.019531 -0.148438 3.875 -0.078125 C 3.738281 -0.00390625 3.585938 0.046875 3.421875 0.078125 C 3.265625 0.117188 3.113281 0.140625 2.96875 0.140625 C 2.632812 0.140625 2.320312 0.0820312 2.03125 -0.03125 C 1.75 -0.144531 1.5 -0.304688 1.28125 -0.515625 C 1.0625 -0.734375 0.890625 -1 0.765625 -1.3125 C 0.648438 -1.625 0.59375 -1.984375 0.59375 -2.390625 L 0.59375 -2.5625 C 0.59375 -2.957031 0.65625 -3.3125 0.78125 -3.625 C 0.90625 -3.945312 1.070312 -4.210938 1.28125 -4.421875 C 1.5 -4.640625 1.75 -4.804688 2.03125 -4.921875 C 2.320312 -5.035156 2.628906 -5.09375 2.953125 -5.09375 C 3.285156 -5.09375 3.597656 -5.015625 3.890625 -4.859375 C 4.191406 -4.710938 4.421875 -4.484375 4.578125 -4.171875 L 4.703125 -4.171875 L 4.703125 -6.984375 L 5.484375 -6.984375 L 5.484375 0 L 4.703125 0 Z M 3.046875 -0.59375 C 3.273438 -0.59375 3.488281 -0.632812 3.6875 -0.71875 C 3.894531 -0.8125 4.070312 -0.9375 4.21875 -1.09375 C 4.363281 -1.257812 4.476562 -1.453125 4.5625 -1.671875 C 4.65625 -1.890625 4.703125 -2.140625 4.703125 -2.421875 L 4.703125 -2.53125 C 4.703125 -2.800781 4.65625 -3.046875 4.5625 -3.265625 C 4.476562 -3.492188 4.363281 -3.6875 4.21875 -3.84375 C 4.070312 -4 3.894531 -4.125 3.6875 -4.21875 C 3.488281 -4.3125 3.273438 -4.359375 3.046875 -4.359375 C 2.816406 -4.359375 2.597656 -4.3125 2.390625 -4.21875 C 2.191406 -4.132812 2.015625 -4.007812 1.859375 -3.84375 C 1.710938 -3.6875 1.597656 -3.5 1.515625 -3.28125 C 1.429688 -3.0625 1.390625 -2.820312 1.390625 -2.5625 L 1.390625 -2.390625 C 1.390625 -2.117188 1.429688 -1.867188 1.515625 -1.640625 C 1.597656 -1.421875 1.710938 -1.234375 1.859375 -1.078125 C 2.015625 -0.921875 2.191406 -0.800781 2.390625 -0.71875 C 2.585938 -0.632812 2.804688 -0.59375 3.046875 -0.59375 Z M 3.046875 -0.59375 "/></g></g><g style="fill:#000000;fill-opacity:1;"><g transform="translate(173.170011, 31.084876)"><path style="stroke:none" d="M 2.40625 -6.4375 C 2.40625 -6.625 2.472656 -6.785156 2.609375 -6.921875 C 2.742188 -7.054688 2.910156 -7.125 3.109375 -7.125 C 3.296875 -7.125 3.457031 -7.054688 3.59375 -6.921875 C 3.726562 -6.785156 3.796875 -6.625 3.796875 -6.4375 C 3.796875 -6.238281 3.726562 -6.070312 3.59375 -5.9375 C 3.457031 -5.800781 3.296875 -5.734375 3.109375 -5.734375 C 2.910156 -5.734375 2.742188 -5.800781 2.609375 -5.9375 C 2.472656 -6.070312 2.40625 -6.238281 2.40625 -6.4375 Z M 0.984375 -0.71875 L 2.71875 -0.71875 L 2.71875 -4.234375 L 1.171875 -4.234375 L 1.171875 -4.953125 L 3.5 -4.953125 L 3.5 -0.71875 L 5.125 -0.71875 L 5.125 0 L 0.984375 0 Z M 0.984375 -0.71875 "/></g></g><g style="fill:#000000;fill-opacity:1;"><g transform="translate(179.280246, 31.084876)"><path style="stroke:none" d="M 4.46875 -0.84375 L 4.34375 -0.84375 C 4.1875 -0.507812 3.960938 -0.257812 3.671875 -0.09375 C 3.390625 0.0625 3.09375 0.140625 2.78125 0.140625 C 2.457031 0.140625 2.15625 0.0859375 1.875 -0.015625 C 1.59375 -0.128906 1.347656 -0.296875 1.140625 -0.515625 C 0.929688 -0.734375 0.765625 -1 0.640625 -1.3125 C 0.523438 -1.625 0.46875 -1.984375 0.46875 -2.390625 L 0.46875 -2.5625 C 0.46875 -2.96875 0.523438 -3.328125 0.640625 -3.640625 C 0.765625 -3.953125 0.929688 -4.210938 1.140625 -4.421875 C 1.347656 -4.640625 1.59375 -4.804688 1.875 -4.921875 C 2.15625 -5.035156 2.453125 -5.09375 2.765625 -5.09375 C 3.109375 -5.09375 3.414062 -5.015625 3.6875 -4.859375 C 3.96875 -4.710938 4.1875 -4.484375 4.34375 -4.171875 L 4.46875 -4.171875 L 4.46875 -4.953125 L 5.234375 -4.953125 L 5.234375 -1.015625 C 5.234375 -0.816406 5.328125 -0.71875 5.515625 -0.71875 L 5.765625 -0.71875 L 5.765625 0 L 5.234375 0 C 5.003906 0 4.816406 -0.0703125 4.671875 -0.21875 C 4.535156 -0.363281 4.46875 -0.550781 4.46875 -0.78125 Z M 2.859375 -0.59375 C 3.097656 -0.59375 3.3125 -0.632812 3.5 -0.71875 C 3.695312 -0.8125 3.863281 -0.9375 4 -1.09375 C 4.144531 -1.257812 4.257812 -1.453125 4.34375 -1.671875 C 4.425781 -1.890625 4.46875 -2.140625 4.46875 -2.421875 L 4.46875 -2.53125 C 4.46875 -2.800781 4.425781 -3.046875 4.34375 -3.265625 C 4.257812 -3.492188 4.144531 -3.6875 4 -3.84375 C 3.863281 -4 3.695312 -4.125 3.5 -4.21875 C 3.300781 -4.3125 3.085938 -4.359375 2.859375 -4.359375 C 2.628906 -4.359375 2.414062 -4.3125 2.21875 -4.21875 C 2.03125 -4.132812 1.863281 -4.015625 1.71875 -3.859375 C 1.570312 -3.703125 1.457031 -3.507812 1.375 -3.28125 C 1.300781 -3.0625 1.265625 -2.820312 1.265625 -2.5625 L 1.265625 -2.390625 C 1.265625 -1.828125 1.410156 -1.382812 1.703125 -1.0625 C 2.003906 -0.75 2.390625 -0.59375 2.859375 -0.59375 Z M 2.859375 -0.59375 "/></g></g><g style="fill:#000000;fill-opacity:1;"><g transform="translate(185.390481, 31.084876)"><path style="stroke:none" d="M 0.703125 -4.953125 L 2.25 -4.953125 L 2.25 -6.984375 L 3.03125 -6.984375 L 3.03125 -4.953125 L 4.953125 -4.953125 L 4.953125 -4.234375 L 3.03125 -4.234375 L 3.03125 -1.015625 C 3.03125 -0.816406 3.125 -0.71875 3.3125 -0.71875 L 4.71875 -0.71875 L 4.71875 0 L 3.03125 0 C 2.800781 0 2.613281 -0.0703125 2.46875 -0.21875 C 2.320312 -0.363281 2.25 -0.550781 2.25 -0.78125 L 2.25 -4.234375 L 0.703125 -4.234375 Z M 0.703125 -4.953125 "/></g></g><g style="fill:#000000;fill-opacity:1;"><g transform="translate(191.500716, 31.084876)"><path style="stroke:none" d="M 1.4375 -2.234375 C 1.457031 -1.742188 1.609375 -1.347656 1.890625 -1.046875 C 2.179688 -0.742188 2.582031 -0.59375 3.09375 -0.59375 C 3.320312 -0.59375 3.523438 -0.617188 3.703125 -0.671875 C 3.878906 -0.734375 4.023438 -0.804688 4.140625 -0.890625 C 4.265625 -0.984375 4.363281 -1.09375 4.4375 -1.21875 C 4.519531 -1.34375 4.582031 -1.476562 4.625 -1.625 L 5.375 -1.421875 C 5.226562 -0.960938 4.96875 -0.585938 4.59375 -0.296875 C 4.21875 -0.00390625 3.710938 0.140625 3.078125 0.140625 C 2.722656 0.140625 2.394531 0.078125 2.09375 -0.046875 C 1.800781 -0.171875 1.546875 -0.34375 1.328125 -0.5625 C 1.117188 -0.789062 0.953125 -1.0625 0.828125 -1.375 C 0.710938 -1.6875 0.65625 -2.035156 0.65625 -2.421875 L 0.65625 -2.65625 C 0.65625 -3 0.71875 -3.320312 0.84375 -3.625 C 0.96875 -3.925781 1.140625 -4.179688 1.359375 -4.390625 C 1.578125 -4.609375 1.832031 -4.78125 2.125 -4.90625 C 2.425781 -5.03125 2.75 -5.09375 3.09375 -5.09375 C 3.5 -5.09375 3.847656 -5.015625 4.140625 -4.859375 C 4.441406 -4.710938 4.6875 -4.53125 4.875 -4.3125 C 5.0625 -4.09375 5.203125 -3.851562 5.296875 -3.59375 C 5.390625 -3.332031 5.4375 -3.09375 5.4375 -2.875 L 5.4375 -2.234375 Z M 3.09375 -4.359375 C 2.875 -4.359375 2.671875 -4.320312 2.484375 -4.25 C 2.296875 -4.175781 2.128906 -4.078125 1.984375 -3.953125 C 1.835938 -3.828125 1.71875 -3.675781 1.625 -3.5 C 1.539062 -3.332031 1.484375 -3.148438 1.453125 -2.953125 L 4.65625 -2.953125 C 4.632812 -3.171875 4.578125 -3.363281 4.484375 -3.53125 C 4.398438 -3.707031 4.285156 -3.851562 4.140625 -3.96875 C 4.003906 -4.09375 3.84375 -4.1875 3.65625 -4.25 C 3.476562 -4.320312 3.289062 -4.359375 3.09375 -4.359375 Z M 3.09375 -4.359375 "/></g></g></g></svg>