<svg xmlns="http://www.w3.org/2000/svg" viewBox="0 160 1200 840" role="img" aria-label="Incremental engine for long-horizon agents — Data transformation for any engineer, designed for AI workloads, with a smart incremental engine for always-fresh, explainable data. Python-native transformation flows connect 8 source categories (codebases, meeting notes, web APIs, file system and blob stores, databases, message queues, images and video, voice and transcripts) through a shared pipeline (FileLike → split() → chunks → embed(chunk) → vec) out to 6 target stores (relational DB, data warehouse, vector DB, graph DB, message queue, feature store). Only the Δ is reprocessed — unchanged inputs hit the cache, changed inputs re-run split() and re-embed. CocoInsight gives live lineage (src → sink) and observability over the whole pipeline. The persistent data-pipeline control plane runs eight always-on subsystems: live caching (reuse what hasn't changed — only the delta runs), pipeline catalog (every flow registered — find, fork, reuse), version tracking (code, schema, data — all versioned end-to-end), continuously learning (the engine adapts as your data and code evolve), lineage (every byte in the target traces back to a source), task scheduling (parallel by default — low-latency, low-cost), metrics collection (throughput, freshness, cost — all observable), and failure management (retries, back-off, dead letters — no data loss). Keywords: data pipeline, ETL, source connectors, vector database, graph database, incremental engine, streaming ingestion, caching, lineage, versioning, scheduling, metrics, retries, CocoInsight, observability, Python, React for data engineering.">
  <title>Incremental engine for long-horizon agents — CocoIndex control plane</title>
  <desc>One wide illustration. Top: title + tagline + Learn-the-concept pill. Middle pipeline: SOURCES column on the left (8 coloured category chips) converging through the Python-native transformation in the centre (code block lifted by the coco mascot, with cache-hit / split-re-runs / Δ-re-embed annotations and a CocoInsight lineage pill) and diverging to TARGETS column on the right (6 coloured store chips). Bottom: 'Persistent Data Pipeline · Control Plane' section with 8 subsystem tiles in a 4×2 grid, each in a distinct brand colour.</desc>

  <defs>
    <linearGradient id="ie-title" x1="0" y1="0" x2="1" y2="0">
      <stop offset="0%"   stop-color="#FFD94A"/>
      <stop offset="50%"  stop-color="#FF8A9B"/>
      <stop offset="100%" stop-color="#F5B07F"/>
    </linearGradient>
    <radialGradient id="ie-glow" cx="50%" cy="50%" r="55%">
      <stop offset="0%"   stop-color="#6DFFB0" stop-opacity="0.3"/>
      <stop offset="65%"  stop-color="#6DFFB0" stop-opacity="0.04"/>
      <stop offset="100%" stop-color="#6DFFB0" stop-opacity="0"/>
    </radialGradient>
    <marker id="ie-arr-m" viewBox="0 0 10 10" refX="9" refY="5" markerWidth="6" markerHeight="6" orient="auto">
      <path d="M0 0 L10 5 L0 10 z" fill="#6DFFB0"/>
    </marker>
    <marker id="ie-arr-c" viewBox="0 0 10 10" refX="9" refY="5" markerWidth="6" markerHeight="6" orient="auto">
      <path d="M0 0 L10 5 L0 10 z" fill="#FF8A9B"/>
    </marker>
    <marker id="ie-arr-y" viewBox="0 0 10 10" refX="9" refY="5" markerWidth="7" markerHeight="7" orient="auto">
      <path d="M0 0 L10 5 L0 10 z" fill="#FFD94A"/>
    </marker>
    <pattern id="ie-cp-dots" width="12" height="12" patternUnits="userSpaceOnUse">
      <circle cx="1.5" cy="1.5" r="0.9" fill="#FCF3D8" fill-opacity="0.12"/>
    </pattern>
    <style>
      .flow  { stroke-dasharray: 4 6; animation: mv 1.4s linear infinite; }
      @keyframes mv { from { stroke-dashoffset: 0 } to { stroke-dashoffset: -20 } }
      .pulse { animation: p 2.4s ease-in-out infinite; transform-origin: center; transform-box: fill-box; }
      @keyframes p { 0%,100% { opacity: 1; transform: scale(1) } 50% { opacity: 0.55; transform: scale(1.2) } }
      .coco-eye { transform-box: fill-box; transform-origin: center; animation: blink 4.5s ease-in-out infinite; }
      @keyframes blink { 0%,40%,44%,100% { transform: scaleY(1) } 42% { transform: scaleY(0.08) } }
      /* rotating Δ ring around the coconut (matches cocoindex-code-hero / enterprise-hero) */
      .ie-spin { animation: ieSp 10s linear infinite; transform-origin: 600px 392px; }
      @keyframes ieSp { to { transform: rotate(360deg) } }
      /* Kafka-style FIFO conveyor: 4 msg tiles translate left→right, staggered delays fill the queue at t=0 */
      .q-msg { transform-box: fill-box; transform-origin: center; animation: qFlow 3.6s linear infinite; }
      .q-msg:nth-of-type(1) { animation-delay:  0s; }
      .q-msg:nth-of-type(2) { animation-delay: -0.9s; }
      .q-msg:nth-of-type(3) { animation-delay: -1.8s; }
      .q-msg:nth-of-type(4) { animation-delay: -2.7s; }
      @keyframes qFlow {
        0%   { transform: translateX(0);    opacity: 0; }
        8%   { opacity: 1; }
        92%  { opacity: 1; }
        100% { transform: translateX(16px); opacity: 0; }
      }
    </style>
  </defs>

  <!-- ================ SOURCES (left) ================ -->
  <g transform="translate(40, 180)">
    <text x="0" y="0" font-family="JetBrains Mono, ui-monospace, monospace" font-size="11" letter-spacing="0.22em" font-weight="800" fill="#7FD8FF">SOURCES</text>
    <circle class="pulse" cx="238" cy="-4" r="4" fill="#6DFFB0"/>
  </g>
  <g font-family="Inter, -apple-system, system-ui, sans-serif" font-size="12" font-weight="700" fill="#FCF3D8">
    <!-- Codebases — </> brackets -->
    <g transform="translate(40, 200)">
      <rect width="254" height="32" rx="9" fill="rgba(127,216,255,0.10)"/>
      <g transform="translate(18, 16)" stroke="#7FD8FF" stroke-width="1.8" fill="none" stroke-linecap="round" stroke-linejoin="round">
        <polyline points="-6,-4 -10,0 -6,4"/>
        <polyline points="6,-4 10,0 6,4"/>
        <line x1="-2" y1="5" x2="2" y2="-5"/>
      </g>
      <text x="40" y="16" dominant-baseline="central" fill="#7FD8FF">Codebases</text>
    </g>
    <!-- Meeting Notes — microphone -->
    <g transform="translate(40, 238)">
      <rect width="254" height="32" rx="9" fill="rgba(245,176,127,0.10)"/>
      <g transform="translate(18, 16)" stroke="#F5B07F" stroke-width="1.8" fill="none" stroke-linecap="round" stroke-linejoin="round">
        <rect x="-3" y="-8" width="6" height="10" rx="3" fill="#F5B07F"/>
        <path d="M-7 0 Q -7 7 0 7 Q 7 7 7 0"/>
        <line x1="0" y1="7" x2="0" y2="10"/>
      </g>
      <text x="40" y="16" dominant-baseline="central" fill="#F5B07F">Meeting Notes</text>
    </g>
    <!-- Web · APIs — globe -->
    <g transform="translate(40, 276)">
      <rect width="254" height="32" rx="9" fill="rgba(255,217,74,0.10)"/>
      <g transform="translate(18, 16)" stroke="#FFD94A" stroke-width="1.6" fill="none" stroke-linecap="round">
        <circle cx="0" cy="0" r="8.5"/>
        <ellipse cx="0" cy="0" rx="4" ry="8.5"/>
        <line x1="-8.5" y1="0" x2="8.5" y2="0"/>
      </g>
      <text x="40" y="16" dominant-baseline="central" fill="#FFD94A">Web · APIs</text>
    </g>
    <!-- File System · Blob Stores — folder -->
    <g transform="translate(40, 314)">
      <rect width="254" height="32" rx="9" fill="rgba(201,179,255,0.10)"/>
      <g transform="translate(18, 16)" stroke="#C9B3FF" stroke-width="1.6" fill="none" stroke-linejoin="round">
        <path d="M-10 -5 L -10 7 L 10 7 L 10 -2 L 0 -2 L -2 -5 Z" fill="rgba(201,179,255,0.22)"/>
      </g>
      <text x="40" y="16" dominant-baseline="central" fill="#C9B3FF">File System · Blob Stores</text>
    </g>
    <!-- Databases — cylinder -->
    <g transform="translate(40, 352)">
      <rect width="254" height="32" rx="9" fill="rgba(255,138,155,0.10)"/>
      <g transform="translate(18, 16)" stroke="#FF8A9B" stroke-width="1.6" fill="none" stroke-linecap="round">
        <ellipse cx="0" cy="-7" rx="8" ry="2.5" fill="rgba(255,138,155,0.25)"/>
        <path d="M-8 -7 L -8 7"/>
        <path d="M8 -7 L 8 7"/>
        <path d="M-8 7 Q 0 9.8, 8 7"/>
        <path d="M-8 -1 Q 0 1.8, 8 -1"/>
      </g>
      <text x="40" y="16" dominant-baseline="central" fill="#FF8A9B">Databases</text>
    </g>
    <!-- Message Queues — Kafka-style FIFO conveyor (track + 4 flowing tiles) -->
    <g transform="translate(40, 390)">
      <rect width="254" height="32" rx="9" fill="rgba(109,255,176,0.10)"/>
      <g transform="translate(18, 16)">
        <rect x="-10" y="-5" width="20" height="10" rx="2" fill="none" stroke="#6DFFB0" stroke-width="1.4"/>
        <g>
          <rect class="q-msg" x="-9" y="-2.5" width="3" height="5" rx="0.8" fill="#6DFFB0" opacity="0.55"/>
          <rect class="q-msg" x="-9" y="-2.5" width="3" height="5" rx="0.8" fill="#6DFFB0" opacity="0.55"/>
          <rect class="q-msg" x="-9" y="-2.5" width="3" height="5" rx="0.8" fill="#6DFFB0" opacity="0.55"/>
          <rect class="q-msg" x="-9" y="-2.5" width="3" height="5" rx="0.8" fill="#FF8A9B"/>
        </g>
      </g>
      <text x="40" y="16" dominant-baseline="central" fill="#6DFFB0">Message Queues</text>
    </g>
    <!-- Images · Video — frame with play -->
    <g transform="translate(40, 428)">
      <rect width="254" height="32" rx="9" fill="rgba(245,176,127,0.10)"/>
      <g transform="translate(18, 16)" stroke="#F5B07F" stroke-width="1.6" fill="none" stroke-linejoin="round">
        <rect x="-10" y="-7" width="20" height="14" rx="1.6"/>
        <circle cx="-4" cy="-2" r="1.6" fill="#F5B07F"/>
        <path d="M-10 4 L -3 -1 L 2 3 L 10 -4" />
        <polygon points="4,-1 4,5 9,2" fill="#F5B07F"/>
      </g>
      <text x="40" y="16" dominant-baseline="central" fill="#F5B07F">Images · Video</text>
    </g>
    <!-- Voice · Transcripts — sound wave -->
    <g transform="translate(40, 466)">
      <rect width="254" height="32" rx="9" fill="rgba(127,216,255,0.10)"/>
      <g transform="translate(18, 16)" stroke="#7FD8FF" stroke-width="1.8" stroke-linecap="round">
        <line x1="-10" y1="-1" x2="-10" y2="1"/>
        <line x1="-7"  y1="-4" x2="-7"  y2="4"/>
        <line x1="-4"  y1="-7" x2="-4"  y2="7"/>
        <line x1="-1"  y1="-5" x2="-1"  y2="5"/>
        <line x1="2"   y1="-8" x2="2"   y2="8"/>
        <line x1="5"   y1="-4" x2="5"   y2="4"/>
        <line x1="8"   y1="-6" x2="8"   y2="6"/>
      </g>
      <text x="40" y="16" dominant-baseline="central" fill="#7FD8FF">Voice · Transcripts</text>
    </g>
  </g>

  <!-- ============== 8 converging flow lines sources→engine (blue · in) ============== -->
  <g stroke="#7FD8FF" stroke-width="1.4" fill="none" stroke-linecap="round" stroke-opacity="0.78">
    <path class="flow" d="M300 216 C 330 216, 340 266, 366 266" style="animation-delay:0.0s"/>
    <path class="flow" d="M300 254 C 330 254, 340 286, 366 286" style="animation-delay:0.1s"/>
    <path class="flow" d="M300 292 C 330 292, 340 306, 366 306" style="animation-delay:0.2s"/>
    <path class="flow" d="M300 330 C 330 330, 340 326, 366 326" style="animation-delay:0.3s"/>
    <path class="flow" d="M300 368 C 330 368, 340 346, 366 346" style="animation-delay:0.4s"/>
    <path class="flow" d="M300 406 C 330 406, 340 366, 366 366" style="animation-delay:0.5s"/>
    <path class="flow" d="M300 444 C 330 444, 340 386, 366 386" style="animation-delay:0.6s"/>
    <path class="flow" d="M300 482 C 330 482, 340 406, 366 406" style="animation-delay:0.7s"/>
  </g>

  <!-- ============== CENTER: PYTHON NATIVE TRANSFORMATION ============== -->
  <circle cx="600" cy="392" r="110" fill="url(#ie-glow)"/>

  <!-- 4 mint dots orbiting the coconut -->
  <g class="ie-spin">
    <circle cx="600" cy="332" r="4.5" fill="#6DFFB0"/>
    <circle cx="660" cy="392" r="4.5" fill="#6DFFB0"/>
    <circle cx="600" cy="452" r="4.5" fill="#6DFFB0"/>
    <circle cx="540" cy="392" r="4.5" fill="#6DFFB0"/>
  </g>

  <g transform="translate(360, 180)">

    <!-- header -->
    <text x="240" y="30" text-anchor="middle" font-family="JetBrains Mono, ui-monospace, monospace" font-size="11" letter-spacing="0.22em" font-weight="800" fill="#6DFFB0">PYTHON NATIVE · TRANSFORMATION</text>

    <!-- mini code block -->
    <g transform="translate(70, 52)">
      <rect width="340" height="110" rx="10" fill="#1E0F18" stroke="rgba(252,243,216,0.18)" stroke-width="1"/>
      <rect x="0" y="0" width="340" height="20" rx="10" fill="rgba(252,243,216,0.05)"/>
      <rect x="0" y="10" width="340" height="10" fill="rgba(252,243,216,0.05)"/>
      <circle cx="12" cy="10" r="3.2" fill="#FF8A9B"/>
      <circle cx="24" cy="10" r="3.2" fill="#FFD94A"/>
      <circle cx="36" cy="10" r="3.2" fill="#6DFFB0"/>
      <text x="170" y="10" text-anchor="middle" dominant-baseline="central" font-family="JetBrains Mono, ui-monospace, monospace" font-size="9" letter-spacing="0.12em" font-weight="700" fill="rgba(252,243,216,0.55)">flow.py</text>
      <g font-family="JetBrains Mono, ui-monospace, monospace" font-size="13" fill="#FCF3D8">
        <text x="16" y="42"><tspan fill="#F5B07F">@coco.fn</tspan></text>
        <text x="16" y="62"><tspan fill="#C9B3FF">def</tspan> <tspan fill="#FFD94A">f</tspan>(src):</text>
        <text x="32" y="82">chunks = <tspan fill="#7FD8FF">split</tspan>(src)</text>
        <text x="32" y="102">target.row(<tspan fill="#6DFFB0">embed</tspan>(chunks))</text>
      </g>
    </g>

    <!-- coco mascot lifting the code block -->
    <g transform="translate(240, 212) scale(0.19) translate(-109.7, -130)">
      <path d="M131.724 10.4843C107.647 25.3444 100.313 35.7303 91 55.5126C91 55.5126 147.54 78.8599 153.514 78.8599C159.488 78.8599 174.255 78.793 186.475 69.5901C198.694 60.3876 209.667 42.2692 219.087 21.2307C199.127 6.2706 192.108 0.365929 166.107 0C152.375 0.688645 142.609 4.31824 131.724 10.4843Z" fill="#3DEE7E"/>
      <path d="M109.714 239.678C170.307 239.678 219.427 190.557 219.427 129.964C219.427 69.371 170.307 20.2506 109.714 20.2506C49.1204 20.2506 0 69.371 0 129.964C0 190.557 49.1204 239.678 109.714 239.678Z" fill="#BE5133"/>
      <path d="M49.538 37.9279C32.6557 49.0716 19.7564 62.2345 11.5196 82.5632C3.28292 102.892 24.6042 132.608 53.1548 147.528C80.6716 159.83 96.0891 161.134 123.58 159.46C147.577 157.279 166.101 151.947 183.818 138.247C201.536 124.547 216.595 97.589 208.179 80.3537C199.764 63.118 190.019 50.7441 170.974 38.3699C151.928 25.9956 130.594 20.2506 108.078 20.2506C84.7874 20.3792 68.9538 25.112 49.538 37.9279Z" fill="#FCF3D8"/>
      <path d="M56.8396 44.5277C42.1144 53.6969 30.8625 64.5268 23.6779 81.2533C16.4937 97.9797 35.0912 122.43 59.9943 134.705C83.9956 144.827 97.4434 145.9 121.423 144.523C142.354 142.728 158.512 138.341 173.965 127.069C189.419 115.797 202.555 93.6161 195.214 79.4351C187.874 65.2541 179.374 55.0727 162.761 44.8913C146.149 34.7103 127.541 29.983 107.901 29.983C87.5856 30.0891 73.7751 33.983 56.8396 44.5277Z" fill="#F5B07F"/>
      <path d="M49.5472 122.886C56.877 122.886 62.819 119.717 62.819 115.808C62.819 111.898 56.877 108.729 49.5472 108.729C42.2174 108.729 36.2754 111.898 36.2754 115.808C36.2754 119.717 42.2174 122.886 49.5472 122.886Z" fill="#FB6A76"/>
      <path d="M170.764 122.886C178.094 122.886 184.036 119.717 184.036 115.808C184.036 111.898 178.094 108.729 170.764 108.729C163.434 108.729 157.492 111.898 157.492 115.808C157.492 119.717 163.434 122.886 170.764 122.886Z" fill="#FB6A76"/>
      <g class="coco-eye">
        <path d="M64.5894 107.844C75.8284 107.844 84.9395 98.7333 84.9395 87.4943C84.9395 76.2552 75.8284 67.1442 64.5894 67.1442C53.3503 67.1442 44.2393 76.2552 44.2393 87.4943C44.2393 98.7333 53.3503 107.844 64.5894 107.844Z" fill="#401D30"/>
        <path d="M59.3937 87.079C63.9371 87.079 67.6203 83.918 67.6203 80.0187C67.6203 76.1195 63.9371 72.9585 59.3937 72.9585C54.8502 72.9585 51.167 76.1195 51.167 80.0187C51.167 83.918 54.8502 87.079 59.3937 87.079Z" fill="#F6F4E9"/>
      </g>
      <g class="coco-eye">
        <path d="M154.836 107.844C166.076 107.844 175.187 98.7333 175.187 87.4943C175.187 76.2552 166.076 67.1442 154.836 67.1442C143.597 67.1442 134.486 76.2552 134.486 87.4943C134.486 98.7333 143.597 107.844 154.836 107.844Z" fill="#401D30"/>
        <path d="M149.642 87.079C154.185 87.079 157.868 83.918 157.868 80.0187C157.868 76.1195 154.185 72.9585 149.642 72.9585C145.098 72.9585 141.415 76.1195 141.415 80.0187C141.415 83.918 145.098 87.079 149.642 87.079Z" fill="#F6F4E9"/>
      </g>
      <path d="M98.3543 91.1931L98.2742 91.1242C97.5031 90.4718 96.1495 90.5417 95.2119 90.9168C94.8193 91.0739 94.4825 91.3439 94.244 91.693L94.2018 91.7543C93.9319 92.1491 93.7871 92.6166 93.7871 93.0956V93.6879C93.7871 94.8568 94.0102 96.0149 94.4446 97.1003L94.6719 97.6692L95.085 98.3918C95.9834 99.9643 97.151 101.397 98.5046 102.6C99.7641 103.719 101.207 104.654 102.747 105.338C103.849 105.828 105.001 106.194 106.183 106.431L107.088 106.612C108.246 106.843 109.423 106.96 110.603 106.96H110.671C112.092 106.96 113.507 106.785 114.885 106.441C115.86 106.197 116.811 105.87 117.728 105.462L118.657 105.049C119.767 104.556 120.799 103.904 121.722 103.114C122.85 102.146 123.797 100.986 124.519 99.6867L124.985 98.8478C125.419 98.0656 125.75 97.2298 125.966 96.3615L126.233 95.2945C126.425 94.528 126.444 93.7284 126.289 92.9534L126.183 92.4237C126.116 92.0899 125.985 91.7727 125.796 91.4895C125.412 90.9142 124.816 90.5148 124.138 90.3794L123.969 90.3454C123.332 90.218 122.669 90.3066 122.088 90.5974L121.945 90.669C121.472 90.9057 121.088 91.2894 120.851 91.7629C120.799 91.8663 120.755 91.9732 120.718 92.0831L120.569 92.5293C120.411 93.0037 120.331 93.5001 120.331 94C120.331 94.3803 120.284 94.7592 120.192 95.128L120.161 95.2528C119.981 95.9719 119.659 96.6477 119.215 97.2404C118.783 97.8157 118.244 98.3019 117.627 98.672L117.144 98.9624C116.616 99.2792 116.055 99.5372 115.47 99.7318L114.617 100.016C114.003 100.221 113.375 100.377 112.736 100.483C111.611 100.671 110.465 100.702 109.332 100.576L108.431 100.476C107.52 100.375 106.625 100.161 105.766 99.8387L105.433 99.7139C104.172 99.2413 103.027 98.5038 102.075 97.5517C101.275 96.752 100.626 95.8148 100.158 94.7848L98.8231 91.8493C98.7111 91.6023 98.5574 91.3728 98.3543 91.1931Z" fill="#401E2B"/>
    </g>

    <!-- cache-hit / re-run annotations (three pills stacked) -->
    <g transform="translate(70, 252)" font-family="JetBrains Mono, ui-monospace, monospace" font-size="10" font-weight="700">
      <g>
        <rect width="340" height="22" rx="11" fill="rgba(109,255,176,0.12)"/>
        <text x="12" y="11" dominant-baseline="central" fill="#6DFFB0">cache hit · no re-run</text>
        <text x="328" y="11" text-anchor="end" dominant-baseline="central" fill="rgba(252,243,216,0.55)">unchanged src</text>
      </g>
      <g transform="translate(0, 28)">
        <rect width="340" height="22" rx="11" fill="rgba(255,217,74,0.12)"/>
        <text x="12" y="11" dominant-baseline="central" fill="#FFD94A">split() re-runs</text>
        <text x="328" y="11" text-anchor="end" dominant-baseline="central" fill="rgba(252,243,216,0.55)">FileLike (Δ)</text>
      </g>
      <g transform="translate(0, 56)">
        <rect width="340" height="22" rx="11" fill="rgba(255,138,155,0.12)"/>
        <text x="12" y="11" dominant-baseline="central" fill="#FF8A9B">Δ → re-embed</text>
        <text x="328" y="11" text-anchor="end" dominant-baseline="central" fill="rgba(252,243,216,0.55)">affected vecs</text>
      </g>
    </g>

  </g>

  <!-- ============== 6 diverging flow lines engine→targets (green · out) ============== -->
  <g stroke="#6DFFB0" stroke-width="1.4" fill="none" stroke-linecap="round" stroke-opacity="0.78">
    <path class="flow" d="M840 266 C 866 266, 876 216, 900 216" style="animation-delay:0.0s"/>
    <path class="flow" d="M840 286 C 866 286, 876 254, 900 254" style="animation-delay:0.1s"/>
    <path class="flow" d="M840 306 C 866 306, 876 292, 900 292" style="animation-delay:0.2s"/>
    <path class="flow" d="M840 326 C 866 326, 876 330, 900 330" style="animation-delay:0.3s"/>
    <path class="flow" d="M840 346 C 866 346, 876 368, 900 368" style="animation-delay:0.4s"/>
    <path class="flow" d="M840 386 C 866 386, 876 406, 900 406" style="animation-delay:0.5s"/>
  </g>

  <!-- ================ TARGETS (right) ================ -->
  <g transform="translate(906, 180)">
    <text x="0" y="0" font-family="JetBrains Mono, ui-monospace, monospace" font-size="11" letter-spacing="0.22em" font-weight="800" fill="#6DFFB0">TARGETS</text>
    <circle class="pulse" cx="238" cy="-4" r="4" fill="#6DFFB0"/>
  </g>
  <g font-family="Inter, -apple-system, system-ui, sans-serif" font-size="12" font-weight="700" fill="#FCF3D8">
    <!-- Relational DB — table -->
    <g transform="translate(906, 200)">
      <rect width="254" height="32" rx="9" fill="rgba(127,216,255,0.10)"/>
      <g transform="translate(18, 16)" stroke="#7FD8FF" stroke-width="1.4" fill="none" stroke-linejoin="round">
        <rect x="-10" y="-7" width="20" height="14" rx="1.6" fill="rgba(127,216,255,0.16)"/>
        <line x1="-10" y1="-2" x2="10" y2="-2"/>
        <line x1="-10" y1="3"  x2="10" y2="3"/>
        <line x1="-3"  y1="-7" x2="-3" y2="7"/>
        <line x1="4"   y1="-7" x2="4"  y2="7"/>
      </g>
      <text x="40" y="16" dominant-baseline="central" fill="#7FD8FF">Relational DB</text>
    </g>
    <!-- Data Warehouse — stacked disks -->
    <g transform="translate(906, 238)">
      <rect width="254" height="32" rx="9" fill="rgba(245,176,127,0.10)"/>
      <g transform="translate(18, 16)" stroke="#F5B07F" stroke-width="1.4" fill="none" stroke-linecap="round">
        <ellipse cx="0" cy="-7" rx="9" ry="2.4" fill="rgba(245,176,127,0.22)"/>
        <path d="M-9 -7 Q 0 -4.6, 9 -7"/>
        <ellipse cx="0" cy="-1.5" rx="9" ry="2.4" fill="rgba(245,176,127,0.18)"/>
        <path d="M-9 -1.5 Q 0 0.9, 9 -1.5"/>
        <ellipse cx="0" cy="4" rx="9" ry="2.4" fill="rgba(245,176,127,0.14)"/>
        <path d="M-9 4 Q 0 6.4, 9 4"/>
      </g>
      <text x="40" y="16" dominant-baseline="central" fill="#F5B07F">Data Warehouse</text>
    </g>
    <!-- Vector DB — dots cloud -->
    <g transform="translate(906, 276)">
      <rect width="254" height="32" rx="9" fill="rgba(255,217,74,0.10)"/>
      <g transform="translate(18, 16)" fill="#FFD94A">
        <circle cx="-8" cy="-4" r="1.5"/>
        <circle cx="-4" cy="3"  r="1.5"/>
        <circle cx="0"  cy="-5" r="1.8"/>
        <circle cx="2"  cy="2"  r="1.5"/>
        <circle cx="5"  cy="-2" r="1.5"/>
        <circle cx="8"  cy="4"  r="1.5"/>
        <circle cx="-6" cy="5"  r="1.2"/>
        <circle cx="9"  cy="-5" r="1.2"/>
      </g>
      <text x="40" y="16" dominant-baseline="central" fill="#FFD94A">Vector DB</text>
    </g>
    <!-- Graph DB — connected nodes -->
    <g transform="translate(906, 314)">
      <rect width="254" height="32" rx="9" fill="rgba(255,138,155,0.10)"/>
      <g transform="translate(18, 16)" stroke="#FF8A9B" stroke-width="1.4" fill="#FF8A9B" stroke-linecap="round">
        <line x1="-8" y1="-4" x2="0" y2="4" stroke="#FF8A9B" fill="none"/>
        <line x1="0"  y1="4"  x2="8" y2="-4" stroke="#FF8A9B" fill="none"/>
        <line x1="-8" y1="-4" x2="8" y2="-4" stroke="#FF8A9B" fill="none"/>
        <circle cx="-8" cy="-4" r="2.4" stroke="none"/>
        <circle cx="8"  cy="-4" r="2.4" stroke="none"/>
        <circle cx="0"  cy="4"  r="2.4" stroke="none"/>
      </g>
      <text x="40" y="16" dominant-baseline="central" fill="#FF8A9B">Graph DB</text>
    </g>
    <!-- Message Queue — Kafka-style FIFO conveyor (track + 4 flowing tiles) -->
    <g transform="translate(906, 352)">
      <rect width="254" height="32" rx="9" fill="rgba(109,255,176,0.10)"/>
      <g transform="translate(18, 16)">
        <rect x="-10" y="-5" width="20" height="10" rx="2" fill="none" stroke="#6DFFB0" stroke-width="1.4"/>
        <g>
          <rect class="q-msg" x="-9" y="-2.5" width="3" height="5" rx="0.8" fill="#6DFFB0" opacity="0.55"/>
          <rect class="q-msg" x="-9" y="-2.5" width="3" height="5" rx="0.8" fill="#6DFFB0" opacity="0.55"/>
          <rect class="q-msg" x="-9" y="-2.5" width="3" height="5" rx="0.8" fill="#6DFFB0" opacity="0.55"/>
          <rect class="q-msg" x="-9" y="-2.5" width="3" height="5" rx="0.8" fill="#FF8A9B"/>
        </g>
      </g>
      <text x="40" y="16" dominant-baseline="central" fill="#6DFFB0">Message Queue</text>
    </g>
    <!-- Feature Store — bar chart on a shelf -->
    <g transform="translate(906, 390)">
      <rect width="254" height="32" rx="9" fill="rgba(201,179,255,0.10)"/>
      <g transform="translate(18, 16)" stroke="#C9B3FF" stroke-width="1.4" fill="#C9B3FF" stroke-linecap="round">
        <line x1="-10" y1="7" x2="10" y2="7"/>
        <rect x="-9"  y="1"  width="4" height="6" stroke="none" fill="#C9B3FF"/>
        <rect x="-3"  y="-3" width="4" height="10" stroke="none" fill="#C9B3FF"/>
        <rect x="3"   y="-6" width="4" height="13" stroke="none" fill="#C9B3FF"/>
      </g>
      <text x="40" y="16" dominant-baseline="central" fill="#C9B3FF">Feature Store</text>
    </g>
  </g>

  <!-- ================ CONTROL PLANE (bottom) ================ -->

  <!-- divider -->
  <line x1="60" y1="594" x2="1140" y2="594" stroke="#FCF3D8" stroke-opacity="0.08" stroke-width="1"/>

  <!-- pulsing green dot, far-left, aligned with the H2 baseline -->
  <circle class="pulse" cx="60" cy="628" r="5" fill="#6DFFB0"/>
  <text x="600" y="634" text-anchor="middle" font-family="Inter, -apple-system, system-ui, sans-serif" font-size="24" font-weight="900" letter-spacing="-0.01em" fill="#FCF3D8">
    Persistent Data Pipeline · <tspan fill="#6DFFB0">Control Plane</tspan>
  </text>
  <text x="600" y="660" text-anchor="middle" dominant-baseline="central" font-family="JetBrains Mono, ui-monospace, monospace" font-size="10" letter-spacing="0.24em" font-weight="700" fill="rgba(252,243,216,0.65)">EIGHT SUBSYSTEMS · ALWAYS ON · AUDITABLE</text>

  <!-- 4×2 grid of subsystem tiles · dotted background · single mint accent · line-drawn icons -->
  <g transform="translate(40, 690)" font-family="Inter, -apple-system, system-ui, sans-serif">

    <!-- Row 1 -->

    <!-- 1 · Live Caching -->
    <g>
      <rect width="270" height="116" rx="14" fill="url(#ie-cp-dots)"/>
      <rect width="270" height="116" rx="14" fill="none" stroke="#FCF3D8" stroke-opacity="0.14" stroke-width="1"/>
      <g transform="translate(32, 32)" stroke="#6DFFB0" stroke-width="1.8" fill="none" stroke-linecap="round" stroke-linejoin="round">
        <rect x="-12" y="-11" width="24" height="6" rx="2"/>
        <rect x="-12" y="-3"  width="24" height="6" rx="2"/>
        <rect x="-12" y="5"   width="24" height="6" rx="2"/>
        <path d="M 3 -9 L -2 1 L 1 1 L -3 10" stroke-width="2.2"/>
      </g>
      <text x="60" y="32" font-size="15" font-weight="800" fill="#FCF3D8">Live Caching</text>
      <text x="20" y="68" font-size="12" font-weight="500" fill="rgba(252,243,216,0.78)">Reuse what hasn't changed —</text>
      <text x="20" y="86" font-size="12" font-weight="500" fill="rgba(252,243,216,0.78)">only the delta runs.</text>
      <text x="20" y="104" font-family="JetBrains Mono, ui-monospace, monospace" font-size="9" letter-spacing="0.18em" font-weight="700" fill="#6DFFB0">99.9% SKIPPED</text>
    </g>

    <!-- 2 · Pipeline Catalog -->
    <g transform="translate(290, 0)">
      <rect width="270" height="116" rx="14" fill="url(#ie-cp-dots)"/>
      <rect width="270" height="116" rx="14" fill="none" stroke="#FCF3D8" stroke-opacity="0.14" stroke-width="1"/>
      <g transform="translate(32, 32)" stroke="#6DFFB0" stroke-width="1.8" fill="none" stroke-linecap="round" stroke-linejoin="round">
        <path d="M -11 -9 L -11 10 C -11 9, -4 8, 0 10 L 0 -8 C -4 -10, -11 -9, -11 -9 Z"/>
        <path d="M  11 -9 L  11 10 C  11 9,  4 8, 0 10 L 0 -8 C  4 -10,  11 -9,  11 -9 Z"/>
        <line x1="-8" y1="-4" x2="-3" y2="-4"/>
        <line x1="-8" y1="0"  x2="-3" y2="0"/>
        <line x1="3"  y1="-4" x2="8"  y2="-4"/>
        <line x1="3"  y1="0"  x2="8"  y2="0"/>
      </g>
      <text x="60" y="32" font-size="15" font-weight="800" fill="#FCF3D8">Pipeline Catalog</text>
      <text x="20" y="68" font-size="12" font-weight="500" fill="rgba(252,243,216,0.78)">Every flow registered —</text>
      <text x="20" y="86" font-size="12" font-weight="500" fill="rgba(252,243,216,0.78)">find, fork, reuse.</text>
      <text x="20" y="104" font-family="JetBrains Mono, ui-monospace, monospace" font-size="9" letter-spacing="0.18em" font-weight="700" fill="#6DFFB0">SEARCHABLE</text>
    </g>

    <!-- 3 · Version Tracking -->
    <g transform="translate(580, 0)">
      <rect width="270" height="116" rx="14" fill="url(#ie-cp-dots)"/>
      <rect width="270" height="116" rx="14" fill="none" stroke="#FCF3D8" stroke-opacity="0.14" stroke-width="1"/>
      <g transform="translate(32, 32)" stroke="#6DFFB0" stroke-width="1.8" fill="none" stroke-linecap="round" stroke-linejoin="round">
        <line x1="-9" y1="-10" x2="-9" y2="10"/>
        <circle cx="-9" cy="-10" r="2.4" fill="#6DFFB0" stroke="none"/>
        <circle cx="-9" cy="10" r="2.4" fill="#6DFFB0" stroke="none"/>
        <circle cx="9"  cy="0"  r="2.4" fill="#6DFFB0" stroke="none"/>
        <path d="M -9 -4 C -2 -4, 9 -5, 9 -2"/>
        <path d="M -9  4 C -2  4, 9  5, 9  2"/>
      </g>
      <text x="60" y="32" font-size="15" font-weight="800" fill="#FCF3D8">Version Tracking</text>
      <text x="20" y="68" font-size="12" font-weight="500" fill="rgba(252,243,216,0.78)">Code, schema, data —</text>
      <text x="20" y="86" font-size="12" font-weight="500" fill="rgba(252,243,216,0.78)">all versioned end-to-end.</text>
      <text x="20" y="104" font-family="JetBrains Mono, ui-monospace, monospace" font-size="9" letter-spacing="0.18em" font-weight="700" fill="#6DFFB0">ALL LAYERS</text>
    </g>

    <!-- 4 · Continuously Learning -->
    <g transform="translate(870, 0)">
      <rect width="270" height="116" rx="14" fill="url(#ie-cp-dots)"/>
      <rect width="270" height="116" rx="14" fill="none" stroke="#FCF3D8" stroke-opacity="0.14" stroke-width="1"/>
      <g transform="translate(32, 32)" stroke="#6DFFB0" stroke-width="1.8" fill="none" stroke-linecap="round" stroke-linejoin="round">
        <path d="M 10 -5 A 11 11 0 1 0 12 5"/>
        <polyline points="12,-9 12,-4 7,-4"/>
        <circle cx="0" cy="0" r="2.4" fill="#6DFFB0" stroke="none"/>
      </g>
      <text x="60" y="32" font-size="15" font-weight="800" fill="#FCF3D8">Continuously Learning</text>
      <text x="20" y="68" font-size="12" font-weight="500" fill="rgba(252,243,216,0.78)">The engine adapts as</text>
      <text x="20" y="86" font-size="12" font-weight="500" fill="rgba(252,243,216,0.78)">your data and code evolve.</text>
      <text x="20" y="104" font-family="JetBrains Mono, ui-monospace, monospace" font-size="9" letter-spacing="0.18em" font-weight="700" fill="#6DFFB0">ADAPTIVE</text>
    </g>

    <!-- Row 2 -->

    <!-- 5 · Lineage -->
    <g transform="translate(0, 136)">
      <rect width="270" height="116" rx="14" fill="url(#ie-cp-dots)"/>
      <rect width="270" height="116" rx="14" fill="none" stroke="#FCF3D8" stroke-opacity="0.14" stroke-width="1"/>
      <g transform="translate(32, 32)" stroke="#6DFFB0" stroke-width="1.8" fill="none" stroke-linecap="round" stroke-linejoin="round">
        <circle cx="0"  cy="-9" r="2.6" fill="#6DFFB0" stroke="none"/>
        <circle cx="-10" cy="9" r="2.6" fill="#6DFFB0" stroke="none"/>
        <circle cx="0"   cy="9" r="2.6" fill="#6DFFB0" stroke="none"/>
        <circle cx="10"  cy="9" r="2.6" fill="#6DFFB0" stroke="none"/>
        <path d="M 0 -6 L -10 6"/>
        <path d="M 0 -6 L 0 6"/>
        <path d="M 0 -6 L 10 6"/>
      </g>
      <text x="60" y="32" font-size="15" font-weight="800" fill="#FCF3D8">Lineage</text>
      <text x="20" y="68" font-size="12" font-weight="500" fill="rgba(252,243,216,0.78)">Every byte in the target</text>
      <text x="20" y="86" font-size="12" font-weight="500" fill="rgba(252,243,216,0.78)">traces back to a source.</text>
      <text x="20" y="104" font-family="JetBrains Mono, ui-monospace, monospace" font-size="9" letter-spacing="0.18em" font-weight="700" fill="#6DFFB0">END-TO-END</text>
    </g>

    <!-- 6 · Task Scheduling -->
    <g transform="translate(290, 136)">
      <rect width="270" height="116" rx="14" fill="url(#ie-cp-dots)"/>
      <rect width="270" height="116" rx="14" fill="none" stroke="#FCF3D8" stroke-opacity="0.14" stroke-width="1"/>
      <g transform="translate(32, 32)" stroke="#6DFFB0" stroke-width="3.2" fill="none" stroke-linecap="round">
        <line x1="-12" y1="-8" x2="4"  y2="-8"/>
        <line x1="-6"  y1="0"  x2="12" y2="0"/>
        <line x1="-12" y1="8"  x2="7"  y2="8"/>
      </g>
      <text x="60" y="32" font-size="15" font-weight="800" fill="#FCF3D8">Task Scheduling</text>
      <text x="20" y="68" font-size="12" font-weight="500" fill="rgba(252,243,216,0.78)">Parallel by default —</text>
      <text x="20" y="86" font-size="12" font-weight="500" fill="rgba(252,243,216,0.78)">low-latency, low-cost.</text>
      <text x="20" y="104" font-family="JetBrains Mono, ui-monospace, monospace" font-size="9" letter-spacing="0.18em" font-weight="700" fill="#6DFFB0">MB → PB</text>
    </g>

    <!-- 7 · Metrics Collection -->
    <g transform="translate(580, 136)">
      <rect width="270" height="116" rx="14" fill="url(#ie-cp-dots)"/>
      <rect width="270" height="116" rx="14" fill="none" stroke="#FCF3D8" stroke-opacity="0.14" stroke-width="1"/>
      <g transform="translate(32, 32)" stroke="#6DFFB0" stroke-width="1.8" fill="none" stroke-linecap="round" stroke-linejoin="round">
        <line x1="-12" y1="11" x2="12" y2="11" stroke-opacity="0.4"/>
        <path d="M -11 7 L -6 -2 L -1 3 L 4 -5 L 11 -9"/>
        <circle cx="11" cy="-9" r="2.2" fill="#6DFFB0" stroke="none"/>
        <circle cx="-6" cy="-2" r="1.6" fill="#6DFFB0" stroke="none"/>
        <circle cx="4"  cy="-5" r="1.6" fill="#6DFFB0" stroke="none"/>
      </g>
      <text x="60" y="32" font-size="15" font-weight="800" fill="#FCF3D8">Metrics Collection</text>
      <text x="20" y="68" font-size="12" font-weight="500" fill="rgba(252,243,216,0.78)">Throughput, freshness,</text>
      <text x="20" y="86" font-size="12" font-weight="500" fill="rgba(252,243,216,0.78)">cost — all observable.</text>
      <text x="20" y="104" font-family="JetBrains Mono, ui-monospace, monospace" font-size="9" letter-spacing="0.18em" font-weight="700" fill="#6DFFB0">LIVE</text>
    </g>

    <!-- 8 · Failure Management -->
    <g transform="translate(870, 136)">
      <rect width="270" height="116" rx="14" fill="url(#ie-cp-dots)"/>
      <rect width="270" height="116" rx="14" fill="none" stroke="#FCF3D8" stroke-opacity="0.14" stroke-width="1"/>
      <g transform="translate(32, 32)" stroke="#6DFFB0" stroke-width="1.8" fill="none" stroke-linecap="round" stroke-linejoin="round">
        <path d="M 0 -11 L 10 -7 L 10 3 C 10 8, 6 10, 0 12 C -6 10, -10 8, -10 3 L -10 -7 Z"/>
        <path d="M -4 0 L -1 3 L 5 -3"/>
      </g>
      <text x="60" y="32" font-size="15" font-weight="800" fill="#FCF3D8">Failure Management</text>
      <text x="20" y="68" font-size="12" font-weight="500" fill="rgba(252,243,216,0.78)">Retries, back-off,</text>
      <text x="20" y="86" font-size="12" font-weight="500" fill="rgba(252,243,216,0.78)">dead letters.</text>
      <text x="20" y="104" font-family="JetBrains Mono, ui-monospace, monospace" font-size="9" letter-spacing="0.18em" font-weight="700" fill="#6DFFB0">NO DATA LOSS</text>
    </g>
  </g>

  <!-- footer tagline -->
  <text x="600" y="986" text-anchor="middle" font-family="Inter, -apple-system, system-ui, sans-serif" font-size="13" font-style="italic" fill="rgba(252,243,216,0.6)">
    Python-native flows · eight subsystems, always-on, auditable · only the Δ is reprocessed.
  </text>
</svg>
