<svg xmlns="http://www.w3.org/2000/svg" viewBox="0 0 700 380" role="img" aria-label="CocoInsight observability panel: source, chunk, embed, sink stages with delta and cached counts">
  <rect width="700" height="380" fill="#2A121B" rx="12"/>

  <!-- top bar -->
  <g font-family="Inter, -apple-system, system-ui, sans-serif" font-size="12" fill="rgba(252,243,216,0.7)">
    <text x="20" y="24">Flow · pdf_ingest</text>
    <text x="680" y="24" text-anchor="end">live · 24 rec/s</text>
  </g>
  <line x1="20" y1="34" x2="680" y2="34" stroke="rgba(252,243,216,0.1)"/>

  <g transform="translate(0, 14)">
    <g font-family="JetBrains Mono, ui-monospace, monospace" font-size="10" fill="rgba(252,243,216,0.55)" letter-spacing="0.14em">
      <text x="20" y="40">SOURCE</text>
      <text x="20" y="110">CHUNK</text>
      <text x="20" y="180">EMBED</text>
      <text x="20" y="250">SINK</text>
    </g>
    <g stroke="rgba(252,243,216,0.1)" stroke-width="1">
      <line x1="120" y1="50" x2="680" y2="50"/>
      <line x1="120" y1="120" x2="680" y2="120"/>
      <line x1="120" y1="190" x2="680" y2="190"/>
      <line x1="120" y1="260" x2="680" y2="260"/>
    </g>
    <g>
      <rect x="130" y="20" width="70" height="22" rx="3" fill="#E59A63"/>
      <text x="165" y="35" text-anchor="middle" font-family="JetBrains Mono, ui-monospace, monospace" font-size="10" fill="#2A121B">rfc-14.pdf</text>
      <rect x="220" y="20" width="70" height="22" rx="3" fill="#FB6A76"/>
      <text x="255" y="35" text-anchor="middle" font-family="JetBrains Mono, ui-monospace, monospace" font-size="10" fill="#2A121B">readme.md</text>
      <rect x="310" y="20" width="70" height="22" rx="3" fill="#E59A63"/>
      <text x="345" y="35" text-anchor="middle" font-family="JetBrains Mono, ui-monospace, monospace" font-size="10" fill="#2A121B">spec.pdf</text>
      <rect x="400" y="20" width="70" height="22" rx="3" fill="#FB6A76" opacity="0.5"/>
      <text x="435" y="35" text-anchor="middle" font-family="JetBrains Mono, ui-monospace, monospace" font-size="10" fill="rgba(42,18,27,0.65)">cached</text>
      <rect x="490" y="20" width="70" height="22" rx="3" fill="#27E62B"/>
      <text x="525" y="35" text-anchor="middle" font-family="JetBrains Mono, ui-monospace, monospace" font-size="10" fill="#2A121B">new.pdf</text>
    </g>
    <g>
      <rect x="130" y="90" width="36" height="22" rx="3" fill="#FCF3D8"/>
      <rect x="170" y="90" width="36" height="22" rx="3" fill="#FCF3D8"/>
      <rect x="220" y="90" width="60" height="22" rx="3" fill="#FCF3D8"/>
      <rect x="310" y="90" width="50" height="22" rx="3" fill="#FCF3D8"/>
      <rect x="370" y="90" width="50" height="22" rx="3" fill="#FCF3D8"/>
      <rect x="490" y="90" width="36" height="22" rx="3" fill="#27E62B"/>
      <rect x="530" y="90" width="36" height="22" rx="3" fill="#27E62B"/>
      <rect x="570" y="90" width="36" height="22" rx="3" fill="#27E62B"/>
    </g>
    <g>
      <rect x="130" y="160" width="440" height="22" rx="3" fill="rgba(252,243,216,0.12)"/>
      <rect x="130" y="160" width="300" height="22" rx="3" fill="#BE5133"/>
      <text x="140" y="176" font-family="JetBrains Mono, ui-monospace, monospace" font-size="10" fill="#FCF3D8">e5-mistral · 1024d · 68%</text>
    </g>
    <g>
      <rect x="260" y="230" width="180" height="22" rx="3" fill="#FCF3D8"/>
      <text x="350" y="246" text-anchor="middle" font-family="JetBrains Mono, ui-monospace, monospace" font-size="10" fill="#2A121B">postgres · table: docs</text>
    </g>
    <g stroke="rgba(252,243,216,0.25)" stroke-width="1" fill="none">
      <line x1="165" y1="42" x2="148" y2="90"/>
      <line x1="255" y1="42" x2="250" y2="90"/>
      <line x1="345" y1="42" x2="335" y2="90"/>
      <line x1="525" y1="42" x2="548" y2="90"/>
      <line x1="148" y1="112" x2="350" y2="160"/>
      <line x1="250" y1="112" x2="350" y2="160"/>
      <line x1="335" y1="112" x2="350" y2="160"/>
      <line x1="548" y1="112" x2="350" y2="160"/>
      <line x1="350" y1="182" x2="350" y2="230"/>
    </g>
    <g font-family="JetBrains Mono, ui-monospace, monospace" font-size="10" fill="rgba(252,243,216,0.55)">
      <text x="640" y="35" text-anchor="end">5 files · 1 new</text>
      <text x="640" y="105" text-anchor="end">142 chunks · Δ 8</text>
      <text x="640" y="175" text-anchor="end">142 vec · Δ 8</text>
      <text x="640" y="245" text-anchor="end">upserted · 8</text>
    </g>
  </g>

  <!-- bottom bar -->
  <line x1="20" y1="346" x2="680" y2="346" stroke="rgba(252,243,216,0.1)"/>
  <g font-family="Inter, -apple-system, system-ui, sans-serif" font-size="12">
    <text x="20" y="368" fill="#27E62B">● running · reused 94%</text>
    <text x="680" y="368" text-anchor="end" fill="rgba(252,243,216,0.6)">cocoinsight.local</text>
  </g>
</svg>
