<svg xmlns="http://www.w3.org/2000/svg" viewBox="0 0 1200 600" role="img" aria-label="React — for data engineering. The CocoIndex mental model: Target = F(Source). A persistent-state-driven dataflow where you declare the desired target state and the engine keeps it in sync with the latest source data and code, forever, with minimum cost. Source files flow through your Python transformation F into the target index; only the Δ (delta) is reprocessed, and every row in the target traces back to its exact source bytes. Four core properties: Python (not a DAG), declare target state, lineage end-to-end, and incremental at any scale. Keywords: React for data engineering, declarative ETL, persistent state, data lineage, dataflow, Δ only, incremental indexing, CocoIndex.">
  <title>React — for data engineering · Target = F(Source) (light theme)</title>
  <desc>Light-theme version of the CocoIndex mental-model hero: at the top a big formula 'Target = F(Source)' in the brand warm gradient, a persistent-state tagline, a middle band animating source files flowing through the coconut engine into a live target index (Δ-only), and a bottom row of four coloured property cards — Python not a DAG (indigo), declare target state (amber), lineage end-to-end (brand coral), incremental at any scale (emerald). Recolored for white GitHub README backgrounds — every token clears WCAG AA on #ffffff.</desc>

  <defs>
    <linearGradient id="r4d-title" x1="0" y1="0" x2="1" y2="0">
      <stop offset="0%"   stop-color="#B45309"/>
      <stop offset="50%"  stop-color="#BE5133"/>
      <stop offset="100%" stop-color="#E59A63"/>
    </linearGradient>

    <radialGradient id="r4d-glow" cx="50%" cy="50%" r="55%">
      <stop offset="0%"   stop-color="#16A534" stop-opacity="0.15"/>
      <stop offset="65%"  stop-color="#16A534" stop-opacity="0.04"/>
      <stop offset="100%" stop-color="#16A534" stop-opacity="0"/>
    </radialGradient>

    <marker id="r4d-arr-y" viewBox="0 0 10 10" refX="9" refY="5" markerWidth="7" markerHeight="7" orient="auto">
      <path d="M0 0 L10 5 L0 10 z" fill="#B45309"/>
    </marker>
    <marker id="r4d-arr-m" viewBox="0 0 10 10" refX="9" refY="5" markerWidth="7" markerHeight="7" orient="auto">
      <path d="M0 0 L10 5 L0 10 z" fill="#16A534"/>
    </marker>

    <pattern id="r4d-dots" width="12" height="12" patternUnits="userSpaceOnUse">
      <circle cx="1.5" cy="1.5" r="0.9" fill="#2A121B" fill-opacity="0.14"/>
    </pattern>
    <style>
      .flow  { stroke-dasharray: 5 7; animation: mv 1.4s linear infinite; }
      @keyframes mv { from { stroke-dashoffset: 0 } to { stroke-dashoffset: -24 } }
      .pulse { animation: p 2.4s ease-in-out infinite; transform-origin: center; transform-box: fill-box; }
      @keyframes p { 0%,100% { opacity: 1; transform: scale(1) } 50% { opacity: 0.55; transform: scale(1.15) } }
      .coco-eye { transform-box: fill-box; transform-origin: center; animation: blink 4.5s ease-in-out infinite; }
      @keyframes blink { 0%,40%,44%,100% { transform: scaleY(1) } 42% { transform: scaleY(0.08) } }
      .r4d-spin { animation: r4dSp 10s linear infinite; transform-origin: 600px 352px; }
      @keyframes r4dSp { to { transform: rotate(360deg) } }
      .row-pop { transform-box: fill-box; transform-origin: left center; animation: rowpop 18s ease-in-out infinite; }
      @keyframes rowpop { 0%,92%,100% { transform: scaleX(1) } 94% { transform: scaleX(1.04) } }
    </style>
  </defs>

  <!-- ===================== BIG FORMULA · brand palette + Source Serif 4 ===================== -->
  <!-- Typography per CocoIndex Brand Guidelines: Source Serif 4 for the hero headline,
       italic F for the mathematical emphasis. Colours: palm-ink green (Target) · brand coral (F) ·
       brand maroon (Source) — the brand's "fresh → transform → grounded" story. -->
  <text x="600" y="72" text-anchor="middle" font-family="'Source Serif 4', ui-serif, Georgia, serif" font-size="60" font-weight="700" letter-spacing="-0.02em">
    <tspan fill="#16A534">Target</tspan><tspan fill="rgba(42,18,27,0.45)" font-weight="500"> = </tspan><tspan fill="#BE5133" font-style="italic">F</tspan><tspan fill="rgba(42,18,27,0.45)" font-weight="500">(</tspan><tspan fill="#532638">Source</tspan><tspan fill="rgba(42,18,27,0.45)" font-weight="500">)</tspan>
  </text>

  <text x="600" y="104" text-anchor="middle" font-family="Inter, -apple-system, system-ui, sans-serif" font-size="16" font-weight="500" fill="rgba(42,18,27,0.72)" letter-spacing="-0.005em">
    Declare the target. The engine keeps it in sync with the latest source &amp; code — forever, for the <tspan fill="#16A534" font-style="italic" font-weight="700">Δ only.</tspan>
  </text>
  <text x="600" y="126" text-anchor="middle" font-family="JetBrains Mono, ui-monospace, monospace" font-size="10" letter-spacing="0.28em" font-weight="700" fill="rgba(42,18,27,0.5)">
    PERSISTENT-STATE · LIKE REACT, FOR DATA
  </text>

  <!-- ===================== FLOW DIAGRAM ===================== -->

  <!-- soft emerald glow behind the center mascot -->
  <circle cx="600" cy="352" r="80" fill="url(#r4d-glow)"/>

  <!-- 4 green dots orbiting the coconut -->
  <g class="r4d-spin">
    <circle cx="600" cy="297" r="4.5" fill="#16A534"/>
    <circle cx="655" cy="352" r="4.5" fill="#16A534"/>
    <circle cx="600" cy="407" r="4.5" fill="#16A534"/>
    <circle cx="545" cy="352" r="4.5" fill="#16A534"/>
  </g>

  <!-- LEFT: SOURCE · dotted card -->
  <g transform="translate(60, 160)">
    <rect width="320" height="200" rx="14" fill="url(#r4d-dots)"/>
    <rect width="320" height="200" rx="14" fill="none" stroke="#2A121B" stroke-opacity="0.12" stroke-width="1"/>
    <text x="20" y="26" font-family="JetBrains Mono, ui-monospace, monospace" font-size="11" letter-spacing="0.22em" font-weight="800" fill="#0EA5E9">SOURCE</text>
    <circle class="pulse" cx="300" cy="20" r="4" fill="#0EA5E9"/>

    <!-- file tiles -->
    <g font-family="JetBrains Mono, ui-monospace, monospace" font-size="13" fill="#2A121B">
      <g transform="translate(20,56)">
        <rect width="14" height="14" rx="2" fill="#0EA5E9"/>
        <text x="4" y="11" font-size="8" font-weight="800" fill="#FCF3D8">py</text>
        <text x="24" y="11">a.py</text>
      </g>
      <g transform="translate(20,84)">
        <rect width="14" height="14" rx="2" fill="#B45309"/>
        <text x="3" y="11" font-size="8" font-weight="800" fill="#FCF3D8">md</text>
        <text x="24" y="11">b.md</text>
      </g>
      <g transform="translate(20,112)">
        <rect width="14" height="14" rx="2" fill="#BE5133"/>
        <text x="2" y="11" font-size="8" font-weight="800" fill="#FCF3D8">pdf</text>
        <text x="24" y="11">c.pdf</text>
      </g>
      <g transform="translate(20,140)">
        <rect width="14" height="14" rx="2" fill="#FB6A76"/>
        <text x="3" y="11" font-size="8" font-weight="800" fill="#FCF3D8">ts</text>
        <text x="24" y="11">d.ts</text>
      </g>
    </g>

    <text x="20" y="182" font-family="JetBrains Mono, ui-monospace, monospace" font-size="9" letter-spacing="0.18em" fill="rgba(42,18,27,0.6)">FILES · LIVE</text>
  </g>

  <!-- ARROW 1 : SOURCE → code-block F  (Δ badge above) -->
  <path class="flow" d="M388 260 L 452 260" stroke="#B45309" stroke-width="2" fill="none" stroke-linecap="round" marker-end="url(#r4d-arr-y)"/>
  <text x="420" y="244" text-anchor="middle" font-family="JetBrains Mono, ui-monospace, monospace" font-size="13" font-weight="800" fill="#B45309">Δ +1</text>

  <!-- CENTER: mini code-block F (your Python) — kept on a dark surface (classic editor look) for syntax-highlight pop -->
  <g transform="translate(456, 208)">
    <!-- window (brand maroon-ink, like a real code editor) -->
    <rect x="0" y="0" width="288" height="104" rx="10" fill="#2A121B" stroke="rgba(42,18,27,0.25)" stroke-width="1"/>
    <!-- title bar -->
    <rect x="0" y="0" width="288" height="20" rx="10" fill="rgba(252,243,216,0.05)"/>
    <rect x="0" y="10" width="288" height="10" fill="rgba(252,243,216,0.05)"/>
    <circle cx="12" cy="10" r="3.2" fill="#FF8A9B"/>
    <circle cx="24" cy="10" r="3.2" fill="#FFD94A"/>
    <circle cx="36" cy="10" r="3.2" fill="#6DFFB0"/>
    <text x="144" y="10" text-anchor="middle" dominant-baseline="central" font-family="JetBrains Mono, ui-monospace, monospace" font-size="9" letter-spacing="0.12em" font-weight="600" fill="rgba(252,243,216,0.55)">F · YOUR PYTHON</text>
    <!-- code (syntax tokens stay neon — they live on the dark editor surface and pop against it) -->
    <g font-family="JetBrains Mono, ui-monospace, monospace" font-size="13" fill="#FCF3D8">
      <text x="16" y="44"><tspan fill="#F5B07F">@coco.fn</tspan></text>
      <text x="16" y="64"><tspan fill="#C9B3FF">async def</tspan> <tspan fill="#FFD94A">f</tspan>(src):</text>
      <text x="32" y="84"><tspan fill="#6DFFB0">target</tspan>.row(src, <tspan fill="#7FD8FF">embed</tspan>())</text>
    </g>
  </g>

  <!-- coco mascot LIFTING the code block, centered at (600, 352) — brand-canonical palette -->
  <g transform="translate(600, 352) scale(0.26) translate(-109.7,-130)">
    <!-- leaf (palm-ink — readable green on white) -->
    <path d="M131.724 10.4843C107.647 25.3444 100.313 35.7303 91 55.5126C91 55.5126 147.54 78.8599 153.514 78.8599C159.488 78.8599 174.255 78.793 186.475 69.5901C198.694 60.3876 209.667 42.2692 219.087 21.2307C199.127 6.2706 192.108 0.365929 166.107 0C152.375 0.688645 142.609 4.31824 131.724 10.4843Z" fill="#16A534"/>
    <!-- coconut -->
    <path d="M109.714 239.678C170.307 239.678 219.427 190.557 219.427 129.964C219.427 69.371 170.307 20.2506 109.714 20.2506C49.1204 20.2506 0 69.371 0 129.964C0 190.557 49.1204 239.678 109.714 239.678Z" fill="#BE5133"/>
    <path d="M49.538 37.9279C32.6557 49.0716 19.7564 62.2345 11.5196 82.5632C3.28292 102.892 24.6042 132.608 53.1548 147.528C80.6716 159.83 96.0891 161.134 123.58 159.46C147.577 157.279 166.101 151.947 183.818 138.247C201.536 124.547 216.595 97.589 208.179 80.3537C199.764 63.118 190.019 50.7441 170.974 38.3699C151.928 25.9956 130.594 20.2506 108.078 20.2506C84.7874 20.3792 68.9538 25.112 49.538 37.9279Z" fill="#FCF3D8"/>
    <path d="M56.8396 44.5277C42.1144 53.6969 30.8625 64.5268 23.6779 81.2533C16.4937 97.9797 35.0912 122.43 59.9943 134.705C83.9956 144.827 97.4434 145.9 121.423 144.523C142.354 142.728 158.512 138.341 173.965 127.069C189.419 115.797 202.555 93.6161 195.214 79.4351C187.874 65.2541 179.374 55.0727 162.761 44.8913C146.149 34.7103 127.541 29.983 107.901 29.983C87.5856 30.0891 73.7751 33.983 56.8396 44.5277Z" fill="#E59A63"/>
    <path d="M49.5472 122.886C56.877 122.886 62.819 119.717 62.819 115.808C62.819 111.898 56.877 108.729 49.5472 108.729C42.2174 108.729 36.2754 111.898 36.2754 115.808C36.2754 119.717 42.2174 122.886 49.5472 122.886Z" fill="#FB6A76"/>
    <path d="M170.764 122.886C178.094 122.886 184.036 119.717 184.036 115.808C184.036 111.898 178.094 108.729 170.764 108.729C163.434 108.729 157.492 111.898 157.492 115.808C157.492 119.717 163.434 122.886 170.764 122.886Z" fill="#FB6A76"/>
    <g class="coco-eye">
      <path d="M64.5894 107.844C75.8284 107.844 84.9395 98.7333 84.9395 87.4943C84.9395 76.2552 75.8284 67.1442 64.5894 67.1442C53.3503 67.1442 44.2393 76.2552 44.2393 87.4943C44.2393 98.7333 53.3503 107.844 64.5894 107.844Z" fill="#401D30"/>
      <path d="M59.3937 87.079C63.9371 87.079 67.6203 83.918 67.6203 80.0187C67.6203 76.1195 63.9371 72.9585 59.3937 72.9585C54.8502 72.9585 51.167 76.1195 51.167 80.0187C51.167 83.918 54.8502 87.079 59.3937 87.079Z" fill="#F6F4E9"/>
    </g>
    <g class="coco-eye">
      <path d="M154.836 107.844C166.076 107.844 175.187 98.7333 175.187 87.4943C175.187 76.2552 166.076 67.1442 154.836 67.1442C143.597 67.1442 134.486 76.2552 134.486 87.4943C134.486 98.7333 143.597 107.844 154.836 107.844Z" fill="#401D30"/>
      <path d="M149.642 87.079C154.185 87.079 157.868 83.918 157.868 80.0187C157.868 76.1195 154.185 72.9585 149.642 72.9585C145.098 72.9585 141.415 76.1195 141.415 80.0187C141.415 83.918 145.098 87.079 149.642 87.079Z" fill="#F6F4E9"/>
    </g>
    <path d="M98.3543 91.1931L98.2742 91.1242C97.5031 90.4718 96.1495 90.5417 95.2119 90.9168C94.8193 91.0739 94.4825 91.3439 94.244 91.693L94.2018 91.7543C93.9319 92.1491 93.7871 92.6166 93.7871 93.0956V93.6879C93.7871 94.8568 94.0102 96.0149 94.4446 97.1003L94.6719 97.6692L95.085 98.3918C95.9834 99.9643 97.151 101.397 98.5046 102.6C99.7641 103.719 101.207 104.654 102.747 105.338C103.849 105.828 105.001 106.194 106.183 106.431L107.088 106.612C108.246 106.843 109.423 106.96 110.603 106.96H110.671C112.092 106.96 113.507 106.785 114.885 106.441C115.86 106.197 116.811 105.87 117.728 105.462L118.657 105.049C119.767 104.556 120.799 103.904 121.722 103.114C122.85 102.146 123.797 100.986 124.519 99.6867L124.985 98.8478C125.419 98.0656 125.75 97.2298 125.966 96.3615L126.233 95.2945C126.425 94.528 126.444 93.7284 126.289 92.9534L126.183 92.4237C126.116 92.0899 125.985 91.7727 125.796 91.4895C125.412 90.9142 124.816 90.5148 124.138 90.3794L123.969 90.3454C123.332 90.218 122.669 90.3066 122.088 90.5974L121.945 90.669C121.472 90.9057 121.088 91.2894 120.851 91.7629C120.799 91.8663 120.755 91.9732 120.718 92.0831L120.569 92.5293C120.411 93.0037 120.331 93.5001 120.331 94C120.331 94.3803 120.284 94.7592 120.192 95.128L120.161 95.2528C119.981 95.9719 119.659 96.6477 119.215 97.2404C118.783 97.8157 118.244 98.3019 117.627 98.672L117.144 98.9624C116.616 99.2792 116.055 99.5372 115.47 99.7318L114.617 100.016C114.003 100.221 113.375 100.377 112.736 100.483C111.611 100.671 110.465 100.702 109.332 100.576L108.431 100.476C107.52 100.375 106.625 100.161 105.766 99.8387L105.433 99.7139C104.172 99.2413 103.027 98.5038 102.075 97.5517C101.275 96.752 100.626 95.8148 100.158 94.7848L98.8231 91.8493C98.7111 91.6023 98.5574 91.3728 98.3543 91.1931Z" fill="#401E2B"/>
  </g>

  <!-- ARROW 2 : F → TARGET (emerald) -->
  <path class="flow" d="M748 260 L 812 260" stroke="#16A534" stroke-width="2" fill="none" stroke-linecap="round" marker-end="url(#r4d-arr-m)" style="animation-delay:0.4s"/>
  <text x="780" y="244" text-anchor="middle" font-family="JetBrains Mono, ui-monospace, monospace" font-size="13" font-weight="800" fill="#16A534">row</text>

  <!-- RIGHT: TARGET (emerald) -->
  <g transform="translate(820, 160)">
    <rect width="320" height="200" rx="14" fill="rgba(22,165,52,0.06)"/>
    <text x="20" y="26" font-family="JetBrains Mono, ui-monospace, monospace" font-size="11" letter-spacing="0.22em" font-weight="800" fill="#16A534">TARGET · INDEX</text>
    <circle class="pulse" cx="300" cy="20" r="4" fill="#16A534"/>

    <!-- dots matrix — each dot = a target row; colour = source-origin (lineage) -->
    <g>
      <!-- row 0 -->
      <circle cx="40"  cy="56" r="5" fill="#0EA5E9"/>
      <circle cx="80"  cy="56" r="5" fill="#0EA5E9"/>
      <circle cx="120" cy="56" r="5" fill="#B45309"/>
      <circle cx="160" cy="56" r="5" fill="#BE5133"/>
      <circle cx="200" cy="56" r="5" fill="#FB6A76"/>
      <circle cx="240" cy="56" r="5" fill="#0EA5E9"/>
      <circle cx="280" cy="56" r="5" fill="#B45309"/>
      <!-- row 1 -->
      <circle cx="40"  cy="80" r="5" fill="#B45309"/>
      <circle cx="80"  cy="80" r="5" fill="#BE5133"/>
      <circle cx="120" cy="80" r="5" fill="#FB6A76"/>
      <circle cx="160" cy="80" r="5" fill="#0EA5E9"/>
      <circle cx="200" cy="80" r="5" fill="#B45309"/>
      <circle cx="240" cy="80" r="5" fill="#0EA5E9"/>
      <circle cx="280" cy="80" r="5" fill="#BE5133"/>
      <!-- row 2 — includes a fresh emerald pulse -->
      <circle cx="40"  cy="104" r="5" fill="#0EA5E9"/>
      <circle cx="80"  cy="104" r="5" fill="#B45309"/>
      <circle cx="120" cy="104" r="5" fill="#BE5133"/>
      <circle class="pulse" cx="160" cy="104" r="6" fill="#16A534"/>
      <circle cx="200" cy="104" r="5" fill="#FB6A76"/>
      <circle cx="240" cy="104" r="5" fill="#B45309"/>
      <circle cx="280" cy="104" r="5" fill="#0EA5E9"/>
      <!-- row 3 -->
      <circle cx="40"  cy="128" r="5" fill="#B45309"/>
      <circle cx="80"  cy="128" r="5" fill="#0EA5E9"/>
      <circle cx="120" cy="128" r="5" fill="#0EA5E9"/>
      <circle cx="160" cy="128" r="5" fill="#FB6A76"/>
      <circle class="pulse" cx="200" cy="128" r="6" fill="#16A534"/>
      <circle cx="240" cy="128" r="5" fill="#BE5133"/>
      <circle cx="280" cy="128" r="5" fill="#B45309"/>
      <!-- row 4 -->
      <circle cx="40"  cy="152" r="5" fill="#0EA5E9"/>
      <circle cx="80"  cy="152" r="5" fill="#B45309"/>
      <circle cx="120" cy="152" r="5" fill="#FB6A76"/>
      <circle cx="160" cy="152" r="5" fill="#0EA5E9"/>
      <circle cx="200" cy="152" r="5" fill="#B45309"/>
      <circle cx="240" cy="152" r="5" fill="#BE5133"/>
      <circle cx="280" cy="152" r="5" fill="#FB6A76"/>
    </g>

    <text x="20" y="182" font-family="JetBrains Mono, ui-monospace, monospace" font-size="9" letter-spacing="0.18em" fill="rgba(42,18,27,0.6)">✓ IN SYNC · EVERY DOT → SOURCE BYTE</text>
  </g>

  <!-- ===================== 4 PROPERTY CARDS ===================== -->

  <g transform="translate(60, 420)" font-family="Inter, -apple-system, system-ui, sans-serif">
    <!-- Icons follow cocoindex.io `cf-svg` pattern — no circle backdrops,
         structural maroon at low opacity + coral accent + palm-green tick. -->

    <!-- Card 1: Python, not a DAG — code block with an active 'def' row -->
    <g>
      <rect x="-4" y="-8" width="275" height="82" rx="12" fill="url(#r4d-dots)"/>
      <g transform="translate(6, 6)">
        <rect x="6" y="10" width="36" height="28" rx="3" fill="rgba(83,38,56,0.05)" stroke="#532638" stroke-opacity="0.3" stroke-width="1"/>
        <rect x="11" y="17" width="20" height="2.2" rx="1" fill="#532638" opacity="0.35"/>
        <rect x="11" y="21" width="14" height="2.2" rx="1" fill="#532638" opacity="0.35"/>
        <rect class="pulse" x="11" y="26" width="26" height="3.4" rx="1" fill="rgba(190,81,51,0.32)" stroke="#BE5133" stroke-width="1.2"/>
        <rect x="11" y="32" width="10" height="2.2" rx="1" fill="#532638" opacity="0.35"/>
        <text x="37" y="24" text-anchor="end" font-family="JetBrains Mono, ui-monospace, monospace" font-size="5" font-weight="700" fill="#BE5133" letter-spacing="0.05em">def</text>
      </g>
      <text x="68" y="24" font-size="17" font-weight="800" fill="#532638"><tspan fill="#BE5133">Python,</tspan> not a DAG</text>
      <text x="68" y="48" font-size="12" font-weight="500" fill="rgba(42,18,27,0.7)">Ordinary Python — the engine</text>
      <text x="68" y="64" font-size="12" font-weight="500" fill="rgba(42,18,27,0.7)">infers the dependency graph.</text>
    </g>

    <!-- Card 2: Declare target state — card with a big coral checkmark -->
    <g transform="translate(285, 0)">
      <rect x="-4" y="-8" width="275" height="82" rx="12" fill="url(#r4d-dots)"/>
      <g transform="translate(6, 6)">
        <rect x="7" y="8" width="34" height="32" rx="4" fill="rgba(83,38,56,0.05)" stroke="#532638" stroke-opacity="0.3" stroke-width="1"/>
        <rect x="13" y="13" width="16" height="2.4" rx="1" fill="#532638" opacity="0.45"/>
        <rect x="13" y="18" width="10" height="2.4" rx="1" fill="#532638" opacity="0.3"/>
        <path d="M15 28 l5 5 l11 -12" stroke="#BE5133" stroke-width="2.6" fill="none" stroke-linecap="round" stroke-linejoin="round"/>
      </g>
      <text x="68" y="24" font-size="17" font-weight="800" fill="#532638"><tspan fill="#BE5133">Declare</tspan> target state</text>
      <text x="68" y="48" font-size="12" font-weight="500" fill="rgba(42,18,27,0.7)">You say what the index contains.</text>
      <text x="68" y="64" font-size="12" font-weight="500" fill="rgba(42,18,27,0.7)">CocoIndex keeps it there forever.</text>
    </g>

    <!-- Card 3: Lineage end-to-end — dashed thread, coral endpoints, maroon mids -->
    <g transform="translate(570, 0)">
      <rect x="-4" y="-8" width="275" height="82" rx="12" fill="url(#r4d-dots)"/>
      <g transform="translate(6, 6)">
        <path d="M8 40 C 16 34, 24 24, 32 18 C 36 15, 40 12, 42 10" stroke="#BE5133" stroke-opacity="0.45" stroke-width="1.4" fill="none" stroke-dasharray="3 3"/>
        <circle cx="8" cy="40" r="3.2" fill="#BE5133"/>
        <circle cx="16" cy="34" r="2.4" fill="#532638" opacity="0.7"/>
        <circle cx="24" cy="26" r="2.4" fill="#532638" opacity="0.7"/>
        <circle cx="32" cy="18" r="2.4" fill="#532638" opacity="0.7"/>
        <circle cx="42" cy="10" r="3.2" fill="#BE5133"/>
      </g>
      <text x="68" y="24" font-size="17" font-weight="800" fill="#532638"><tspan fill="#BE5133">Lineage</tspan> end-to-end</text>
      <text x="68" y="48" font-size="12" font-weight="500" fill="rgba(42,18,27,0.7)">Every row traces back to its</text>
      <text x="68" y="64" font-size="12" font-weight="500" fill="rgba(42,18,27,0.7)">exact source byte. Debuggable.</text>
    </g>

    <!-- Card 4: Incremental at any scale — stacked rows, active middle row + Δ+1 + palm tick -->
    <g transform="translate(855, 0)">
      <rect x="-4" y="-8" width="275" height="82" rx="12" fill="url(#r4d-dots)"/>
      <g transform="translate(6, 6)">
        <g stroke="#532638" stroke-opacity="0.3" stroke-width="1" fill="rgba(83,38,56,0.05)">
          <rect x="5" y="7" width="38" height="5" rx="1.5"/>
          <rect x="5" y="15" width="38" height="5" rx="1.5"/>
          <rect x="5" y="31" width="38" height="5" rx="1.5"/>
          <rect x="5" y="39" width="38" height="5" rx="1.5"/>
        </g>
        <rect class="pulse" x="5" y="23" width="38" height="5" rx="1.5" fill="rgba(190,81,51,0.32)" stroke="#BE5133" stroke-width="1.4"/>
        <text x="40" y="27.5" text-anchor="end" font-family="JetBrains Mono, ui-monospace, monospace" font-size="5" font-weight="700" fill="#BE5133" letter-spacing="0.05em">Δ +1</text>
        <circle cx="2.5" cy="25.5" r="1.6" fill="#27E62B"/>
      </g>
      <text x="68" y="24" font-size="17" font-weight="800" fill="#532638"><tspan fill="#BE5133">Incremental</tspan> at any scale</text>
      <text x="68" y="48" font-size="12" font-weight="500" fill="rgba(42,18,27,0.7)">Only the Δ is reprocessed.</text>
      <text x="68" y="64" font-size="12" font-weight="500" fill="rgba(42,18,27,0.7)">Skip the other 99.9%.</text>
    </g>
  </g>

  <!-- ================== BOTTOM TAGLINE ================== -->
  <text x="600" y="568" text-anchor="middle" font-family="Inter, -apple-system, system-ui, sans-serif" font-size="13" font-style="italic" fill="rgba(42,18,27,0.6)">
    Your code is as simple as the one-off version — the engine does the rest.
  </text>
</svg>
