<svg xmlns="http://www.w3.org/2000/svg" width="1240" height="1180" viewBox="0 0 1240 1180" role="img"><rect width="1240" height="1180" fill="#FCF3D8"/><defs><marker id="ah" markerWidth="13" markerHeight="12" refX="10" refY="4" orient="auto" markerUnits="userSpaceOnUse"><path d="M0 0 L11 4 L0 8 Z" fill="#532638"/></marker></defs><circle cx="60" cy="59" r="6" fill="#BE5133"/><text x="82" y="59" dominant-baseline="central" font-family="'JetBrains Mono', ui-monospace, 'SF Mono', Menlo, monospace" font-size="21" font-weight="600" fill="#BE5133" letter-spacing="3.8">COCOINDEX · FILES TRANSFORM FLOW</text><rect x="240" y="106" width="760" height="104" rx="18" fill="#FCF3D8" stroke="#532638" stroke-width="1.8"/><text x="620" y="132" text-anchor="middle" dominant-baseline="central" font-family="'JetBrains Mono', ui-monospace, 'SF Mono', Menlo, monospace" font-size="14" font-weight="600" fill="rgba(42,18,27,0.58)" letter-spacing="1.9">SOURCE</text><text x="620" y="162" text-anchor="middle" dominant-baseline="central" font-family="'JetBrains Mono', ui-monospace, 'SF Mono', Menlo, monospace" font-size="24" font-weight="600" fill="#2A121B">localfs.walk_dir</text><text x="620" y="190" text-anchor="middle" dominant-baseline="central" font-family="Inter, 'Plus Jakarta Sans', system-ui, -apple-system, sans-serif" font-size="18" font-weight="400" fill="rgba(42,18,27,0.58)">Local filesystem · *.md · watches for changes (live=True)</text><line x1="620" y1="210" x2="620" y2="243" stroke="#532638" stroke-width="2.6"/><path d="M 613 243 L 627 243 L 620 252 Z" fill="#532638"/><rect x="240" y="252" width="760" height="104" rx="5" fill="#FCF3D8" stroke="#532638" stroke-width="1.8"/><text x="620" y="278" text-anchor="middle" dominant-baseline="central" font-family="'JetBrains Mono', ui-monospace, 'SF Mono', Menlo, monospace" font-size="14" font-weight="600" fill="rgba(42,18,27,0.58)" letter-spacing="1.9">DATA</text><text x="620" y="308" text-anchor="middle" dominant-baseline="central" font-family="'JetBrains Mono', ui-monospace, 'SF Mono', Menlo, monospace" font-size="24" font-weight="600" fill="#2A121B">files</text><text x="620" y="336" text-anchor="middle" dominant-baseline="central" font-family="Inter, 'Plus Jakarta Sans', system-ui, -apple-system, sans-serif" font-size="18" font-weight="400" fill="rgba(42,18,27,0.58)">one FileLike per Markdown file</text><line x1="620" y1="356" x2="620" y2="389" stroke="#532638" stroke-width="2.6"/><path d="M 613 389 L 627 389 L 620 398 Z" fill="#532638"/><rect x="60" y="398" width="1120" height="508" rx="24" fill="#FAE9CB" stroke="#BE5133" stroke-width="2"/><text x="620" y="430" text-anchor="middle" dominant-baseline="central" font-family="'JetBrains Mono', ui-monospace, 'SF Mono', Menlo, monospace" font-size="16" font-weight="600" fill="#BE5133" letter-spacing="1.3">PROCESSING COMPONENT</text><text x="620" y="456" text-anchor="middle" dominant-baseline="central" font-family="Inter, 'Plus Jakarta Sans', system-ui, -apple-system, sans-serif" font-size="17" font-weight="500" fill="rgba(42,18,27,0.58)">mount_each → process_file (per file, memoized)</text><rect x="94" y="480" width="1052" height="104" rx="18" fill="#FCF3D8" stroke="#16A534" stroke-width="3"/><text x="620" y="506" text-anchor="middle" dominant-baseline="central" font-family="'JetBrains Mono', ui-monospace, 'SF Mono', Menlo, monospace" font-size="14" font-weight="600" fill="rgba(42,18,27,0.58)" letter-spacing="1.9">TRANSFORM · MARKDOWN-IT-PY</text><text x="620" y="536" text-anchor="middle" dominant-baseline="central" font-family="'JetBrains Mono', ui-monospace, 'SF Mono', Menlo, monospace" font-size="24" font-weight="600" fill="#2A121B">MarkdownIt.render</text><text x="620" y="564" text-anchor="middle" dominant-baseline="central" font-family="Inter, 'Plus Jakarta Sans', system-ui, -apple-system, sans-serif" font-size="18" font-weight="400" fill="rgba(42,18,27,0.58)">Markdown text → HTML string</text><line x1="620" y1="584" x2="620" y2="617" stroke="#532638" stroke-width="2.6"/><path d="M 613 617 L 627 617 L 620 626 Z" fill="#532638"/><rect x="94" y="626" width="1052" height="104" rx="5" fill="#FCF3D8" stroke="#532638" stroke-width="1.8"/><text x="620" y="652" text-anchor="middle" dominant-baseline="central" font-family="'JetBrains Mono', ui-monospace, 'SF Mono', Menlo, monospace" font-size="14" font-weight="600" fill="rgba(42,18,27,0.58)" letter-spacing="1.9">DATA</text><text x="620" y="682" text-anchor="middle" dominant-baseline="central" font-family="'JetBrains Mono', ui-monospace, 'SF Mono', Menlo, monospace" font-size="24" font-weight="600" fill="#2A121B">html</text><text x="620" y="710" text-anchor="middle" dominant-baseline="central" font-family="Inter, 'Plus Jakarta Sans', system-ui, -apple-system, sans-serif" font-size="18" font-weight="400" fill="rgba(42,18,27,0.58)">rendered HTML · outname from path parts</text><line x1="620" y1="730" x2="620" y2="763" stroke="#532638" stroke-width="2.6"/><path d="M 613 763 L 627 763 L 620 772 Z" fill="#532638"/><path d="M 98 772 L 1124 772 A 22 22 0 0 1 1146 794 L 1146 854 A 22 22 0 0 1 1124 876 L 98 876 A 4 4 0 0 1 94 872 L 94 776 A 4 4 0 0 1 98 772 Z" fill="#FCF3D8" stroke="#532638" stroke-width="1.8"/><text x="620" y="798" text-anchor="middle" dominant-baseline="central" font-family="'JetBrains Mono', ui-monospace, 'SF Mono', Menlo, monospace" font-size="14" font-weight="600" fill="rgba(42,18,27,0.58)" letter-spacing="1.9">TARGET STATE</text><text x="620" y="828" text-anchor="middle" dominant-baseline="central" font-family="'JetBrains Mono', ui-monospace, 'SF Mono', Menlo, monospace" font-size="24" font-weight="600" fill="#2A121B">localfs.declare_file</text><text x="620" y="856" text-anchor="middle" dominant-baseline="central" font-family="Inter, 'Plus Jakarta Sans', system-ui, -apple-system, sans-serif" font-size="18" font-weight="400" fill="rgba(42,18,27,0.58)">outdir / name.html · create_parent_dirs=True</text><line x1="620" y1="906" x2="620" y2="939" stroke="#532638" stroke-width="2.6"/><path d="M 613 939 L 627 939 L 620 948 Z" fill="#532638"/><rect x="240" y="948" width="760" height="104" rx="18" fill="#FCF3D8" stroke="#532638" stroke-width="1.8"/><text x="620" y="974" text-anchor="middle" dominant-baseline="central" font-family="'JetBrains Mono', ui-monospace, 'SF Mono', Menlo, monospace" font-size="14" font-weight="600" fill="rgba(42,18,27,0.58)" letter-spacing="1.9">TARGET</text><text x="620" y="1004" text-anchor="middle" dominant-baseline="central" font-family="'JetBrains Mono', ui-monospace, 'SF Mono', Menlo, monospace" font-size="24" font-weight="600" fill="#2A121B">Local filesystem</text><text x="620" y="1032" text-anchor="middle" dominant-baseline="central" font-family="Inter, 'Plus Jakarta Sans', system-ui, -apple-system, sans-serif" font-size="18" font-weight="400" fill="rgba(42,18,27,0.58)">output_html/ folder · one .html per source .md</text><line x1="60" y1="1090" x2="1180" y2="1090" stroke="rgba(42,18,27,0.16)" stroke-width="1.5"/><rect x="189" y="1114" width="40" height="26" rx="18" fill="#FCF3D8" stroke="#532638" stroke-width="1.8"/><text x="241" y="1127" dominant-baseline="central" font-family="Inter, 'Plus Jakarta Sans', system-ui, -apple-system, sans-serif" font-size="18" font-weight="400" fill="rgba(42,18,27,0.58)">Source / transform</text><rect x="435" y="1114" width="40" height="26" rx="5" fill="#FCF3D8" stroke="#532638" stroke-width="1.8"/><text x="487" y="1127" dominant-baseline="central" font-family="Inter, 'Plus Jakarta Sans', system-ui, -apple-system, sans-serif" font-size="18" font-weight="400" fill="rgba(42,18,27,0.58)">Data (state)</text><path d="M 632 1114 L 655 1114 A 13.0 13.0 0 0 1 668 1127 L 668 1127 A 13.0 13.0 0 0 1 655 1140 L 632 1140 A 4 4 0 0 1 628 1136 L 628 1118 A 4 4 0 0 1 632 1114 Z" fill="#FCF3D8" stroke="#532638" stroke-width="1.8"/><text x="680" y="1127" dominant-baseline="central" font-family="Inter, 'Plus Jakarta Sans', system-ui, -apple-system, sans-serif" font-size="18" font-weight="400" fill="rgba(42,18,27,0.58)">Target state</text><rect x="821" y="1114" width="40" height="26" rx="8" fill="#FAE9CB" stroke="#BE5133" stroke-width="1.8"/><text x="873" y="1127" dominant-baseline="central" font-family="Inter, 'Plus Jakarta Sans', system-ui, -apple-system, sans-serif" font-size="18" font-weight="400" fill="rgba(42,18,27,0.58)">Processing component</text></svg>